AcariSans-ExtraLight.ufo
<glyph name="numbersign" format="2">
  <advance width="1369"/>
  <unicode hex="0023"/>
  <outline>
    <contour>
      <point x="803" y="0" type="line"/>
      <point x="718" y="0" type="line"/>
      <point x="811" y="438" type="line"/>
      <point x="454" y="438" type="line"/>
      <point x="364" y="0" type="line"/>
      <point x="277" y="0" type="line"/>
      <point x="368" y="450" type="line"/>
      <point x="124" y="450" type="line"/>
      <point x="124" y="534" type="line"/>
      <point x="386" y="534" type="line"/>
      <point x="458" y="903" type="line"/>
      <point x="206" y="903" type="line"/>
      <point x="206" y="978" type="line"/>
      <point x="476" y="978" type="line"/>
      <point x="570" y="1434" type="line"/>
      <point x="656" y="1434" type="line"/>
      <point x="560" y="995" type="line"/>
      <point x="917" y="995" type="line"/>
      <point x="1009" y="1434" type="line"/>
      <point x="1095" y="1434" type="line"/>
      <point x="1004" y="983" type="line"/>
      <point x="1247" y="983" type="line"/>
      <point x="1247" y="903" type="line"/>
      <point x="988" y="903" type="line"/>
      <point x="914" y="534" type="line"/>
      <point x="1164" y="534" type="line"/>
      <point x="1164" y="459" type="line"/>
      <point x="896" y="459" type="line"/>
    </contour>
    <contour>
      <point x="827" y="534" type="line"/>
      <point x="901" y="903" type="line"/>
      <point x="546" y="903" type="line"/>
      <point x="470" y="534" type="line"/>
    </contour>
  </outline>
</glyph>
<glyph name="dollar" format="2">
  <advance width="1112"/>
  <unicode hex="0024"/>
  <outline>
    <contour>
      <point x="586" y="-247" type="line"/>
      <point x="523" y="-247" type="line"/>
      <point x="523" y="-12" type="line"/>
      <point x="359" y="1"/>
      <point x="128" y="193"/>
      <point x="101" y="356" type="qcurve"/>
      <point x="210" y="391" type="line"/>
      <point x="221" y="294"/>
      <point x="323" y="161"/>
      <point x="481" y="96"/>
      <point x="571" y="96" type="qcurve" smooth="yes"/>
      <point x="660" y="96"/>
      <point x="799" y="156"/>
      <point x="878" y="279"/>
      <point x="878" y="373" type="qcurve" smooth="yes"/>
      <point x="878" y="436"/>
      <point x="862" y="466" type="qcurve" smooth="yes"/>
      <point x="815" y="552"/>
      <point x="720" y="607" type="qcurve" smooth="yes"/>
      <point x="654" y="645"/>
      <point x="549" y="703" type="qcurve" smooth="yes"/>
      <point x="431" y="768"/>
      <point x="358" y="810" type="qcurve"/>
      <point x="195" y="909"/>
      <point x="195" y="1082" type="qcurve" smooth="yes"/>
      <point x="195" y="1225"/>
      <point x="372" y="1410"/>
      <point x="523" y="1431" type="qcurve"/>
      <point x="523" y="1660" type="line"/>
      <point x="586" y="1660" type="line"/>
      <point x="586" y="1432" type="line"/>
      <point x="825" y="1417"/>
      <point x="934" y="1216" type="qcurve"/>
      <point x="849" y="1155" type="line"/>
      <point x="800" y="1243"/>
      <point x="644" y="1331"/>
      <point x="559" y="1331" type="qcurve" smooth="yes"/>
      <point x="495" y="1331"/>
      <point x="381" y="1274"/>
      <point x="311" y="1170"/>
      <point x="311" y="1100" type="qcurve" smooth="yes"/>
      <point x="311" y="1038"/>
      <point x="386" y="927"/>
      <point x="510" y="849"/>
      <point x="611" y="800" type="qcurve" smooth="yes"/>
      <point x="831" y="692"/>
      <point x="906" y="613" type="qcurve" smooth="yes"/>
      <point x="993" y="520"/>
      <point x="993" y="385" type="qcurve" smooth="yes"/>
      <point x="993" y="267"/>
      <point x="888" y="89"/>
      <point x="707" y="-12"/>
      <point x="586" y="-14" type="qcurve"/>
    </contour>
  </outline>
</glyph>
<glyph name="percent" format="2">
  <advance width="1599"/>
  <unicode hex="0025"/>
  <outline>
    <contour>
      <point x="388" y="823" type="qcurve" smooth="yes"/>
      <point x="304" y="823"/>
      <point x="202" y="914"/>
      <point x="155" y="1053"/>
      <point x="155" y="1126" type="qcurve" smooth="yes"/>
      <point x="155" y="1244"/>
      <point x="205" y="1331" type="qcurve" smooth="yes"/>
      <point x="264" y="1436"/>
      <point x="382" y="1436" type="qcurve" smooth="yes"/>
      <point x="458" y="1436"/>
      <point x="561" y="1347"/>
      <point x="613" y="1206"/>
      <point x="613" y="1127" type="qcurve" smooth="yes"/>
      <point x="613" y="1052"/>
      <point x="564" y="912"/>
      <point x="465" y="823"/>
    </contour>
    <contour>
      <point x="472" y="11" type="qcurve"/>
      <point x="377" y="11" type="line"/>
      <point x="1115" y="1388" type="line"/>
      <point x="1208" y="1388" type="line"/>
      <point x="1021" y="1039"/>
      <point x="841" y="701" type="qcurve" smooth="yes"/>
      <point x="661" y="363"/>
    </contour>
    <contour>
      <point x="386" y="887" type="qcurve" smooth="yes"/>
      <point x="452" y="887"/>
      <point x="536" y="1017"/>
      <point x="536" y="1129" type="qcurve" smooth="yes"/>
      <point x="536" y="1179"/>
      <point x="507" y="1290"/>
      <point x="440" y="1369"/>
      <point x="382" y="1369" type="qcurve" smooth="yes"/>
      <point x="325" y="1369"/>
      <point x="257" y="1293"/>
      <point x="226" y="1181"/>
      <point x="226" y="1126" type="qcurve" smooth="yes"/>
      <point x="226" y="1071"/>
      <point x="257" y="962"/>
      <point x="326" y="887"/>
    </contour>
    <contour>
      <point x="1219" y="8" type="qcurve" smooth="yes"/>
      <point x="1136" y="8"/>
      <point x="1034" y="97"/>
      <point x="987" y="236"/>
      <point x="987" y="309" type="qcurve" smooth="yes"/>
      <point x="987" y="497"/>
      <point x="1107" y="585" type="qcurve"/>
      <point x="1149" y="614"/>
      <point x="1213" y="614" type="qcurve" smooth="yes"/>
      <point x="1290" y="614"/>
      <point x="1393" y="525"/>
      <point x="1445" y="383"/>
      <point x="1445" y="307" type="qcurve" smooth="yes"/>
      <point x="1445" y="234"/>
      <point x="1396" y="96"/>
      <point x="1296" y="8"/>
    </contour>
    <contour>
      <point x="1217" y="73" type="qcurve" smooth="yes"/>
      <point x="1281" y="73"/>
      <point x="1369" y="200"/>
      <point x="1369" y="309" type="qcurve" smooth="yes"/>
      <point x="1369" y="363"/>
      <point x="1338" y="474"/>
      <point x="1269" y="547"/>
      <point x="1213" y="547" type="qcurve" smooth="yes"/>
      <point x="1157" y="547"/>
      <point x="1088" y="475"/>
      <point x="1058" y="365"/>
      <point x="1058" y="309" type="qcurve" smooth="yes"/>
      <point x="1058" y="257"/>
      <point x="1086" y="148"/>
      <point x="1156" y="73"/>
    </contour>
  </outline>
</glyph>
<glyph name="ampersand" format="2">
  <advance width="1380"/>
  <unicode hex="0026"/>
  <outline>
    <contour>
      <point x="1185" y="-45" type="line"/>
      <point x="980" y="198" type="line"/>
      <point x="814" y="-20"/>
      <point x="529" y="-20" type="qcurve" smooth="yes"/>
      <point x="427" y="-20"/>
      <point x="254" y="45"/>
      <point x="150" y="182"/>
      <point x="150" y="289" type="qcurve" smooth="yes"/>
      <point x="150" y="396"/>
      <point x="243" y="558"/>
      <point x="404" y="694"/>
      <point x="511" y="764" type="qcurve"/>
      <point x="420" y="872"/>
      <point x="311" y="1052"/>
      <point x="311" y="1134" type="qcurve" smooth="yes"/>
      <point x="311" y="1223"/>
      <point x="395" y="1357"/>
      <point x="540" y="1430"/>
      <point x="632" y="1430" type="qcurve" smooth="yes"/>
      <point x="713" y="1430"/>
      <point x="845" y="1356"/>
      <point x="924" y="1222"/>
      <point x="924" y="1133" type="qcurve" smooth="yes"/>
      <point x="924" y="1047"/>
      <point x="846" y="916"/>
      <point x="714" y="803"/>
      <point x="628" y="746" type="qcurve"/>
      <point x="968" y="343" type="line"/>
      <point x="1036" y="484"/>
      <point x="1059" y="686" type="qcurve"/>
      <point x="1144" y="676" type="line"/>
      <point x="1120" y="438"/>
      <point x="1027" y="273" type="qcurve"/>
      <point x="1248" y="10" type="line"/>
    </contour>
    <contour>
      <point x="577" y="808" type="qcurve"/>
      <point x="661" y="861"/>
      <point x="782" y="960"/>
      <point x="850" y="1068"/>
      <point x="850" y="1134" type="qcurve" smooth="yes"/>
      <point x="850" y="1194"/>
      <point x="786" y="1287"/>
      <point x="687" y="1339"/>
      <point x="634" y="1339" type="qcurve" smooth="yes"/>
      <point x="534" y="1339"/>
      <point x="393" y="1225"/>
      <point x="393" y="1132" type="qcurve" smooth="yes"/>
      <point x="393" y="1014"/>
    </contour>
    <contour>
      <point x="534" y="77" type="qcurve" smooth="yes"/>
      <point x="788" y="77"/>
      <point x="923" y="265" type="qcurve"/>
      <point x="559" y="699" type="line"/>
      <point x="461" y="635"/>
      <point x="315" y="516"/>
      <point x="233" y="383"/>
      <point x="233" y="294" type="qcurve" smooth="yes"/>
      <point x="233" y="218"/>
      <point x="318" y="122"/>
      <point x="455" y="77"/>
    </contour>
  </outline>
</glyph>
<glyph name="quotesingle" format="2">
  <advance width="605"/>
  <unicode hex="0027"/>
  <outline>
    <contour>
      <point x="352" y="1065" type="line"/>
      <point x="253" y="1065" type="line"/>
      <point x="253" y="1442" type="line"/>
      <point x="352" y="1442" type="line"/>
    </contour>
  </outline>
</glyph>
<glyph name="parenleft" format="2">
  <advance width="558"/>
  <unicode hex="0028"/>
  <outline>
    <contour>
      <point x="460" y="7" type="qcurve"/>
      <point x="380" y="7" type="line"/>
      <point x="272" y="133"/>
      <point x="143" y="545"/>
      <point x="143" y="705" type="qcurve" smooth="yes"/>
      <point x="143" y="805"/>
      <point x="189" y="1051"/>
      <point x="294" y="1298"/>
      <point x="379" y="1405" type="qcurve"/>
      <point x="463" y="1405" type="line"/>
      <point x="352" y="1252"/>
      <point x="231" y="882"/>
      <point x="231" y="702" type="qcurve" smooth="yes"/>
      <point x="231" y="534"/>
      <point x="352" y="148"/>
    </contour>
  </outline>
</glyph>
<glyph name="asterisk" format="2">
  <advance width="859"/>
  <unicode hex="002A"/>
  <outline>
    <contour>
      <point x="558" y="861" type="line"/>
      <point x="427" y="1106" type="line"/>
      <point x="299" y="861" type="line"/>
      <point x="239" y="911" type="line"/>
      <point x="419" y="1127" type="line"/>
      <point x="160" y="1173" type="line"/>
      <point x="181" y="1256" type="line"/>
      <point x="424" y="1147" type="line"/>
      <point x="392" y="1413" type="line"/>
      <point x="465" y="1413" type="line"/>
      <point x="433" y="1147" type="line"/>
      <point x="675" y="1256" type="line"/>
      <point x="700" y="1172" type="line"/>
      <point x="439" y="1127" type="line"/>
      <point x="621" y="911" type="line"/>
    </contour>
  </outline>
</glyph>
<glyph name="plus" format="2">
  <advance width="1276"/>
  <unicode hex="002B"/>
  <outline>
    <contour>
      <point x="677" y="107" type="line"/>
      <point x="598" y="107" type="line"/>
      <point x="598" y="587" type="line"/>
      <point x="139" y="587" type="line"/>
      <point x="139" y="666" type="line"/>
      <point x="598" y="666" type="line"/>
      <point x="598" y="1142" type="line"/>
      <point x="677" y="1142" type="line"/>
      <point x="677" y="666" type="line"/>
      <point x="1136" y="666" type="line"/>
      <point x="1136" y="587" type="line"/>
      <point x="677" y="587" type="line"/>
    </contour>
  </outline>
</glyph>
<glyph name="comma" format="2">
  <advance width="619"/>
  <unicode hex="002C"/>
  <outline>
    <contour>
      <point x="217" y="-335" type="line"/>
      <point x="159" y="-335" type="line"/>
      <point x="304" y="259" type="line"/>
      <point x="456" y="259" type="line"/>
    </contour>
  </outline>
</glyph>
<glyph name="two" format="2">
  <advance width="1200"/>
  <unicode hex="0032"/>
  <outline>
    <contour>
      <point x="1058" y="0" type="line"/>
      <point x="123" y="0" type="line"/>
      <point x="123" y="114" type="line"/>
      <point x="315" y="238"/>
      <point x="504" y="404"/>
      <point x="578" y="489" type="qcurve"/>
      <point x="718" y="637"/>
      <point x="875" y="889"/>
      <point x="875" y="1036" type="qcurve" smooth="yes"/>
      <point x="875" y="1134"/>
      <point x="805" y="1266"/>
      <point x="674" y="1333"/>
      <point x="598" y="1333" type="qcurve" smooth="yes"/>
      <point x="466" y="1333"/>
      <point x="303" y="1143"/>
      <point x="301" y="976" type="qcurve"/>
      <point x="199" y="989" type="line"/>
      <point x="199" y="1156"/>
      <point x="397" y="1432"/>
      <point x="591" y="1432" type="qcurve" smooth="yes"/>
      <point x="776" y="1432"/>
      <point x="990" y="1219"/>
      <point x="990" y="1036" type="qcurve" smooth="yes"/>
      <point x="990" y="872"/>
      <point x="820" y="589"/>
      <point x="649" y="419" type="qcurve"/>
      <point x="518" y="286"/>
      <point x="366" y="165"/>
      <point x="278" y="111" type="qcurve"/>
      <point x="265" y="104"/>
      <point x="248" y="90" type="qcurve"/>
      <point x="1058" y="90" type="line"/>
    </contour>
  </outline>
</glyph>
<glyph name="three" format="2">
  <advance width="1200"/>
  <unicode hex="0033"/>
  <outline>
    <contour>
      <point x="576" y="-20" type="qcurve" smooth="yes"/>
      <point x="452" y="-20"/>
      <point x="245" y="66"/>
      <point x="121" y="242"/>
      <point x="121" y="376" type="qcurve"/>
      <point x="144" y="380"/>
      <point x="171" y="383" type="qcurve" smooth="yes"/>
      <point x="198" y="385"/>
      <point x="220" y="388" type="qcurve"/>
      <point x="220" y="290"/>
      <point x="318" y="148"/>
      <point x="480" y="73"/>
      <point x="576" y="73" type="qcurve" smooth="yes"/>
      <point x="671" y="73"/>
      <point x="848" y="161"/>
      <point x="899" y="254" type="qcurve"/>
      <point x="930" y="314"/>
      <point x="930" y="393" type="qcurve" smooth="yes"/>
      <point x="930" y="494"/>
      <point x="838" y="630"/>
      <point x="684" y="699"/>
      <point x="592" y="699" type="qcurve" smooth="yes"/>
      <point x="521" y="699" type="line"/>
      <point x="521" y="801" type="line"/>
      <point x="592" y="801" type="line" smooth="yes"/>
      <point x="662" y="801"/>
      <point x="780" y="857"/>
      <point x="852" y="973"/>
      <point x="852" y="1064" type="qcurve" smooth="yes"/>
      <point x="852" y="1149"/>
      <point x="773" y="1272"/>
      <point x="645" y="1338"/>
      <point x="572" y="1338" type="qcurve" smooth="yes"/>
      <point x="448" y="1338"/>
      <point x="287" y="1183"/>
      <point x="287" y="1072" type="qcurve"/>
      <point x="187" y="1087" type="line"/>
      <point x="187" y="1245"/>
      <point x="403" y="1434"/>
      <point x="572" y="1434" type="qcurve" smooth="yes"/>
      <point x="672" y="1434"/>
      <point x="847" y="1352"/>
      <point x="955" y="1192"/>
      <point x="955" y="1078" type="qcurve" smooth="yes"/>
      <point x="955" y="973"/>
      <point x="858" y="810"/>
      <point x="765" y="759" type="qcurve"/>
      <point x="1021" y="680"/>
      <point x="1030" y="393" type="qcurve"/>
      <point x="1030" y="258"/>
      <point x="912" y="74"/>
      <point x="708" y="-20"/>
    </contour>
  </outline>
</glyph>
<glyph name="six" format="2">
  <advance width="1200"/>
  <unicode hex="0036"/>
  <outline>
    <contour>
      <point x="620" y="1414" type="line"/>
      <point x="733" y="1414" type="line"/>
      <point x="422" y="860" type="line"/>
      <point x="504" y="881"/>
      <point x="591" y="881" type="qcurve" smooth="yes"/>
      <point x="745" y="881"/>
      <point x="928" y="767"/>
      <point x="1039" y="568"/>
      <point x="1039" y="442" type="qcurve" smooth="yes"/>
      <point x="1039" y="323"/>
      <point x="927" y="111"/>
      <point x="725" y="-20"/>
      <point x="589" y="-20" type="qcurve" smooth="yes"/>
      <point x="470" y="-20"/>
      <point x="269" y="102"/>
      <point x="146" y="312"/>
      <point x="146" y="441" type="qcurve" smooth="yes"/>
      <point x="146" y="573"/>
      <point x="209" y="683" type="qcurve"/>
    </contour>
    <contour>
      <point x="591" y="782" type="qcurve" smooth="yes"/>
      <point x="499" y="782"/>
      <point x="345" y="706"/>
      <point x="254" y="542"/>
      <point x="254" y="440" type="qcurve" smooth="yes"/>
      <point x="254" y="345"/>
      <point x="344" y="180"/>
      <point x="497" y="78"/>
      <point x="591" y="78" type="qcurve" smooth="yes"/>
      <point x="688" y="78"/>
      <point x="842" y="180"/>
      <point x="932" y="345"/>
      <point x="932" y="440" type="qcurve" smooth="yes"/>
      <point x="932" y="536"/>
      <point x="843" y="701"/>
      <point x="690" y="782"/>
    </contour>
  </outline>
</glyph>
<glyph name="eight" format="2">
  <advance width="1200"/>
  <unicode hex="0038"/>
  <outline>
    <contour>
      <point x="600" y="-20" type="qcurve" smooth="yes"/>
      <point x="462" y="-20"/>
      <point x="238" y="90"/>
      <point x="180" y="206" type="qcurve"/>
      <point x="144" y="281"/>
      <point x="144" y="381" type="qcurve" smooth="yes"/>
      <point x="144" y="655"/>
      <point x="417" y="762" type="qcurve"/>
      <point x="320" y="810"/>
      <point x="216" y="975"/>
      <point x="216" y="1080" type="qcurve" smooth="yes"/>
      <point x="216" y="1190"/>
      <point x="319" y="1350"/>
      <point x="494" y="1434"/>
      <point x="602" y="1434" type="qcurve" smooth="yes"/>
      <point x="704" y="1434"/>
      <point x="876" y="1353"/>
      <point x="981" y="1194"/>
      <point x="981" y="1080" type="qcurve" smooth="yes"/>
      <point x="981" y="970"/>
      <point x="879" y="809"/>
      <point x="785" y="762" type="qcurve"/>
      <point x="915" y="712"/>
      <point x="1053" y="516"/>
      <point x="1053" y="381" type="qcurve" smooth="yes"/>
      <point x="1053" y="249"/>
      <point x="933" y="71"/>
      <point x="728" y="-20"/>
    </contour>
    <contour>
      <point x="606" y="789" type="qcurve" smooth="yes"/>
      <point x="672" y="789"/>
      <point x="797" y="850"/>
      <point x="879" y="971"/>
      <point x="879" y="1061" type="qcurve" smooth="yes"/>
      <point x="879" y="1181"/>
      <point x="728" y="1339"/>
      <point x="604" y="1339" type="qcurve" smooth="yes"/>
      <point x="530" y="1339"/>
      <point x="405" y="1274"/>
      <point x="329" y="1155"/>
      <point x="329" y="1076" type="qcurve" smooth="yes"/>
      <point x="329" y="948"/>
      <point x="479" y="789"/>
    </contour>
    <contour>
      <point x="600" y="68" type="qcurve" smooth="yes"/>
      <point x="732" y="68"/>
      <point x="829" y="145" type="qcurve" smooth="yes"/>
      <point x="939" y="233"/>
      <point x="939" y="393" type="qcurve" smooth="yes"/>
      <point x="939" y="496"/>
      <point x="843" y="640"/>
      <point x="687" y="716"/>
      <point x="600" y="716" type="qcurve" smooth="yes"/>
      <point x="505" y="716"/>
      <point x="348" y="640"/>
      <point x="253" y="495"/>
      <point x="253" y="393" type="qcurve" smooth="yes"/>
      <point x="253" y="286"/>
      <point x="352" y="141"/>
      <point x="510" y="68"/>
    </contour>
  </outline>
</glyph>
<glyph name="colon" format="2">
  <advance width="672"/>
  <unicode hex="003A"/>
  <outline>
    <contour>
      <point x="417" y="792" type="line"/>
      <point x="255" y="792" type="line"/>
      <point x="255" y="952" type="line"/>
      <point x="417" y="952" type="line"/>
    </contour>
    <contour>
      <point x="417" y="0" type="line"/>
      <point x="255" y="0" type="line"/>
      <point x="255" y="160" type="line"/>
      <point x="417" y="160" type="line"/>
    </contour>
  </outline>
</glyph>
<glyph name="semicolon" format="2">
  <advance width="650"/>
  <unicode hex="003B"/>
  <outline>
    <contour>
      <point x="433" y="792" type="line"/>
      <point x="271" y="792" type="line"/>
      <point x="271" y="952" type="line"/>
      <point x="433" y="952" type="line"/>
    </contour>
    <contour>
      <point x="198" y="-335" type="line"/>
      <point x="140" y="-335" type="line"/>
      <point x="285" y="259" type="line"/>
      <point x="437" y="259" type="line"/>
    </contour>
  </outline>
</glyph>
<glyph name="equal" format="2">
  <advance width="1266"/>
  <unicode hex="003D"/>
  <outline>
    <contour>
      <point x="996" y="786" type="line"/>
      <point x="269" y="786" type="line"/>
      <point x="269" y="890" type="line"/>
      <point x="996" y="890" type="line"/>
    </contour>
    <contour>
      <point x="996" y="453" type="line"/>
      <point x="269" y="453" type="line"/>
      <point x="269" y="555" type="line"/>
      <point x="996" y="555" type="line"/>
    </contour>
  </outline>
</glyph>
<glyph name="question" format="2">
  <advance width="1034"/>
  <unicode hex="003F"/>
  <outline>
    <contour>
      <point x="560" y="360" type="line"/>
      <point x="457" y="360" type="line"/>
      <point x="457" y="620" type="line" smooth="yes"/>
      <point x="457" y="669"/>
      <point x="468" y="701" type="qcurve" smooth="yes"/>
      <point x="487" y="758"/>
      <point x="567" y="808" type="qcurve" smooth="yes"/>
      <point x="608" y="833"/>
      <point x="666" y="867" type="qcurve" smooth="yes"/>
      <point x="697" y="885"/>
      <point x="721" y="904" type="qcurve" smooth="yes"/>
      <point x="793" y="961"/>
      <point x="795" y="1088" type="qcurve"/>
      <point x="795" y="1204"/>
      <point x="715" y="1271" type="qcurve" smooth="yes"/>
      <point x="638" y="1336"/>
      <point x="510" y="1336" type="qcurve" smooth="yes"/>
      <point x="399" y="1336"/>
      <point x="315" y="1271" type="qcurve" smooth="yes"/>
      <point x="224" y="1201"/>
      <point x="224" y="1095" type="qcurve"/>
      <point x="114" y="1095" type="line"/>
      <point x="114" y="1166"/>
      <point x="178" y="1292"/>
      <point x="282" y="1384"/>
      <point x="424" y="1434"/>
      <point x="502" y="1434" type="qcurve" smooth="yes"/>
      <point x="677" y="1434"/>
      <point x="902" y="1246"/>
      <point x="902" y="1085" type="qcurve" smooth="yes"/>
      <point x="902" y="969"/>
      <point x="854" y="908" type="qcurve" smooth="yes"/>
      <point x="811" y="852"/>
      <point x="714" y="802" type="qcurve" smooth="yes"/>
      <point x="670" y="780"/>
      <point x="619" y="742" type="qcurve"/>
      <point x="560" y="693"/>
      <point x="560" y="618" type="qcurve" smooth="yes"/>
    </contour>
    <contour>
      <point x="593" y="0" type="line"/>
      <point x="431" y="0" type="line"/>
      <point x="431" y="160" type="line"/>
      <point x="593" y="160" type="line"/>
    </contour>
  </outline>
</glyph>
<glyph name="B" format="2">
  <advance width="1236"/>
  <unicode hex="0042"/>
  <outline>
    <contour>
      <point x="656" y="0" type="qcurve" smooth="yes"/>
      <point x="228" y="0" type="line"/>
      <point x="228" y="1413" type="line"/>
      <point x="578" y="1413" type="line" smooth="yes"/>
      <point x="766" y="1413"/>
      <point x="888" y="1337" type="qcurve"/>
      <point x="1029" y="1251"/>
      <point x="1029" y="1078" type="qcurve" smooth="yes"/>
      <point x="1029" y="955"/>
      <point x="929" y="801"/>
      <point x="832" y="744" type="qcurve"/>
      <point x="970" y="682"/>
      <point x="1099" y="510"/>
      <point x="1099" y="363" type="qcurve" smooth="yes"/>
      <point x="1099" y="227"/>
      <point x="980" y="69"/>
      <point x="779" y="0"/>
    </contour>
    <contour>
      <point x="568" y="767" type="line" smooth="yes"/>
      <point x="651" y="767"/>
      <point x="802" y="823"/>
      <point x="898" y="949"/>
      <point x="898" y="1055" type="qcurve" smooth="yes"/>
      <point x="898" y="1153"/>
      <point x="819" y="1265"/>
      <point x="676" y="1311"/>
      <point x="580" y="1311" type="qcurve" smooth="yes"/>
      <point x="338" y="1311" type="line"/>
      <point x="338" y="767" type="line"/>
    </contour>
    <contour>
      <point x="660" y="103" type="line" smooth="yes"/>
      <point x="986" y="103"/>
      <point x="986" y="364" type="qcurve" smooth="yes"/>
      <point x="986" y="512"/>
      <point x="833" y="662"/>
      <point x="668" y="662" type="qcurve" smooth="yes"/>
      <point x="338" y="662" type="line"/>
      <point x="338" y="103" type="line"/>
    </contour>
  </outline>
</glyph>
<glyph name="D" format="2">
  <advance width="1411"/>
  <unicode hex="0044"/>
  <outline>
    <contour>
      <point x="565" y="0" type="qcurve" smooth="yes"/>
      <point x="228" y="0" type="line"/>
      <point x="228" y="1413" type="line"/>
      <point x="567" y="1413" type="line" smooth="yes"/>
      <point x="901" y="1413"/>
      <point x="1270" y="1045"/>
      <point x="1270" y="696" type="qcurve" smooth="yes"/>
      <point x="1270" y="360"/>
      <point x="900" y="0"/>
    </contour>
    <contour>
      <point x="541" y="104" type="line" smooth="yes"/>
      <point x="659" y="104"/>
      <point x="880" y="173"/>
      <point x="1053" y="319"/>
      <point x="1155" y="548"/>
      <point x="1155" y="707" type="qcurve" smooth="yes"/>
      <point x="1155" y="994"/>
      <point x="849" y="1314"/>
      <point x="563" y="1314" type="qcurve" smooth="yes"/>
      <point x="343" y="1314" type="line"/>
      <point x="343" y="104" type="line"/>
    </contour>
  </outline>
</glyph>
<glyph name="E" format="2">
  <advance width="1241"/>
  <unicode hex="0045"/>
  <outline>
    <contour>
      <point x="1131" y="0" type="line"/>
      <point x="228" y="0" type="line"/>
      <point x="228" y="1413" type="line"/>
      <point x="1131" y="1413" type="line"/>
      <point x="1131" y="1321" type="line"/>
      <point x="343" y="1321" type="line"/>
      <point x="343" y="751" type="line"/>
      <point x="1011" y="751" type="line"/>
      <point x="1011" y="664" type="line"/>
      <point x="343" y="664" type="line"/>
      <point x="343" y="101" type="line"/>
      <point x="1131" y="101" type="line"/>
    </contour>
  </outline>
</glyph>
<glyph name="G" format="2">
  <advance width="1506"/>
  <unicode hex="0047"/>
  <outline>
    <contour>
      <point x="761" y="-20" type="qcurve" smooth="yes"/>
      <point x="465" y="-20"/>
      <point x="299" y="189" type="qcurve" smooth="yes"/>
      <point x="146" y="382"/>
      <point x="146" y="707" type="qcurve" smooth="yes"/>
      <point x="146" y="856"/>
      <point x="222" y="1121"/>
      <point x="374" y="1319"/>
      <point x="605" y="1436"/>
      <point x="759" y="1436" type="qcurve" smooth="yes"/>
      <point x="952" y="1436"/>
      <point x="1233" y="1250"/>
      <point x="1313" y="1075" type="qcurve"/>
      <point x="1206" y="1026" type="line"/>
      <point x="1135" y="1168"/>
      <point x="908" y="1322"/>
      <point x="757" y="1322" type="qcurve" smooth="yes"/>
      <point x="508" y="1322"/>
      <point x="378" y="1143" type="qcurve" smooth="yes"/>
      <point x="258" y="980"/>
      <point x="258" y="717" type="qcurve" smooth="yes"/>
      <point x="258" y="440"/>
      <point x="377" y="275" type="qcurve" smooth="yes"/>
      <point x="510" y="91"/>
      <point x="761" y="91" type="qcurve" smooth="yes"/>
      <point x="857" y="91"/>
      <point x="943" y="124" type="qcurve" smooth="yes"/>
      <point x="1121" y="192"/>
      <point x="1196" y="383" type="qcurve"/>
      <point x="1233" y="474"/>
      <point x="1233" y="606" type="qcurve"/>
      <point x="907" y="606" type="line"/>
      <point x="907" y="691" type="line"/>
      <point x="1336" y="691" type="line"/>
      <point x="1336" y="0" type="line"/>
      <point x="1239" y="0" type="line"/>
      <point x="1246" y="299" type="line"/>
      <point x="1197" y="156"/>
      <point x="1075" y="72" type="qcurve" smooth="yes"/>
      <point x="942" y="-20"/>
    </contour>
  </outline>
</glyph>
<glyph name="H" format="2">
  <advance width="1446"/>
  <unicode hex="0048"/>
  <outline>
    <contour>
      <point x="1219" y="0" type="line"/>
      <point x="1105" y="0" type="line"/>
      <point x="1105" y="664" type="line"/>
      <point x="342" y="664" type="line"/>
      <point x="342" y="0" type="line"/>
      <point x="228" y="0" type="line"/>
      <point x="228" y="1413" type="line"/>
      <point x="342" y="1413" type="line"/>
      <point x="342" y="751" type="line"/>
      <point x="1105" y="751" type="line"/>
      <point x="1105" y="1413" type="line"/>
      <point x="1219" y="1413" type="line"/>
    </contour>
  </outline>
</glyph>
<glyph name="J" format="2">
  <advance width="1115"/>
  <unicode hex="004A"/>
  <outline>
    <contour>
      <point x="495" y="-20" type="qcurve" smooth="yes"/>
      <point x="369" y="-20"/>
      <point x="194" y="89"/>
      <point x="99" y="267"/>
      <point x="91" y="374" type="qcurve"/>
      <point x="118" y="379"/>
      <point x="147" y="383" type="qcurve" smooth="yes"/>
      <point x="175" y="386"/>
      <point x="201" y="390" type="qcurve"/>
      <point x="206" y="312"/>
      <point x="271" y="168"/>
      <point x="398" y="75"/>
      <point x="495" y="75" type="qcurve" smooth="yes"/>
      <point x="611" y="75"/>
      <point x="676" y="127" type="qcurve" smooth="yes"/>
      <point x="794" y="220"/>
      <point x="794" y="464" type="qcurve" smooth="yes"/>
      <point x="794" y="1321" type="line"/>
      <point x="259" y="1321" type="line"/>
      <point x="259" y="1413" type="line"/>
      <point x="910" y="1413" type="line"/>
      <point x="910" y="498" type="line" smooth="yes"/>
      <point x="910" y="-20"/>
    </contour>
  </outline>
</glyph>
<glyph name="K" format="2">
  <advance width="1443"/>
  <unicode hex="004B"/>
  <outline>
    <contour>
      <point x="1346" y="0" type="line"/>
      <point x="1211" y="0" type="line"/>
      <point x="708" y="776" type="line"/>
      <point x="343" y="398" type="line"/>
      <point x="343" y="0" type="line"/>
      <point x="228" y="0" type="line"/>
      <point x="228" y="1413" type="line"/>
      <point x="343" y="1413" type="line"/>
      <point x="343" y="549" type="line"/>
      <point x="1160" y="1413" type="line"/>
      <point x="1311" y="1413" type="line"/>
      <point x="791" y="866" type="line"/>
    </contour>
  </outline>
</glyph>
<glyph name="M" format="2">
  <advance width="1755"/>
  <unicode hex="004D"/>
  <outline>
    <contour>
      <point x="1528" y="0" type="line"/>
      <point x="1411" y="0" type="line"/>
      <point x="1411" y="1335" type="line"/>
      <point x="947" y="124" type="line"/>
      <point x="808" y="124" type="line"/>
      <point x="346" y="1335" type="line"/>
      <point x="346" y="0" type="line"/>
      <point x="228" y="0" type="line"/>
      <point x="228" y="1413" type="line"/>
      <point x="429" y="1413" type="line"/>
      <point x="873" y="215" type="line"/>
      <point x="1327" y="1413" type="line"/>
      <point x="1528" y="1413" type="line"/>
    </contour>
  </outline>
</glyph>
<glyph name="P" format="2">
  <advance width="1145"/>
  <unicode hex="0050"/>
  <outline>
    <contour>
      <point x="343" y="0" type="line"/>
      <point x="228" y="0" type="line"/>
      <point x="228" y="1413" type="line"/>
      <point x="604" y="1413" type="line" smooth="yes"/>
      <point x="801" y="1413"/>
      <point x="1036" y="1213"/>
      <point x="1036" y="1036" type="qcurve" smooth="yes"/>
      <point x="1036" y="854"/>
      <point x="807" y="662"/>
      <point x="604" y="662" type="qcurve" smooth="yes"/>
      <point x="343" y="662" type="line"/>
    </contour>
    <contour>
      <point x="604" y="758" type="line" smooth="yes"/>
      <point x="698" y="758"/>
      <point x="842" y="816"/>
      <point x="923" y="938"/>
      <point x="923" y="1036" type="qcurve" smooth="yes"/>
      <point x="923" y="1168"/>
      <point x="751" y="1317"/>
      <point x="604" y="1317" type="qcurve" smooth="yes"/>
      <point x="343" y="1317" type="line"/>
      <point x="343" y="758" type="line"/>
    </contour>
  </outline>
</glyph>
<glyph name="T" format="2">
  <advance width="1260"/>
  <unicode hex="0054"/>
  <outline>
    <contour>
      <point x="689" y="0" type="line"/>
      <point x="571" y="0" type="line"/>
      <point x="571" y="1328" type="line"/>
      <point x="79" y="1328" type="line"/>
      <point x="79" y="1413" type="line"/>
      <point x="1182" y="1413" type="line"/>
      <point x="1182" y="1328" type="line"/>
      <point x="689" y="1328" type="line"/>
    </contour>
  </outline>
</glyph>
<glyph name="U" format="2">
  <advance width="1348"/>
  <unicode hex="0055"/>
  <outline>
    <contour>
      <point x="673" y="-20" type="qcurve" smooth="yes"/>
      <point x="519" y="-20"/>
      <point x="309" y="118"/>
      <point x="202" y="354"/>
      <point x="202" y="504" type="qcurve" smooth="yes"/>
      <point x="202" y="1413" type="line"/>
      <point x="317" y="1413" type="line"/>
      <point x="317" y="555" type="line" smooth="yes"/>
      <point x="317" y="85"/>
      <point x="673" y="85" type="qcurve" smooth="yes"/>
      <point x="801" y="85"/>
      <point x="880" y="145" type="qcurve" smooth="yes"/>
      <point x="1033" y="261"/>
      <point x="1033" y="555" type="qcurve" smooth="yes"/>
      <point x="1033" y="1413" type="line"/>
      <point x="1147" y="1413" type="line"/>
      <point x="1147" y="514" type="line" smooth="yes"/>
      <point x="1147" y="293"/>
      <point x="1037" y="148" type="qcurve" smooth="yes"/>
      <point x="909" y="-20"/>
    </contour>
  </outline>
</glyph>
<glyph name="V" format="2">
  <advance width="1321"/>
  <unicode hex="0056"/>
  <outline>
    <contour>
      <point x="718" y="0" type="line"/>
      <point x="607" y="0" type="line"/>
      <point x="88" y="1413" type="line"/>
      <point x="211" y="1413" type="line"/>
      <point x="662" y="127" type="line"/>
      <point x="1114" y="1413" type="line"/>
      <point x="1233" y="1413" type="line"/>
    </contour>
  </outline>
</glyph>
<glyph name="X" format="2">
  <advance width="1231"/>
  <unicode hex="0058"/>
  <outline>
    <contour>
      <point x="1133" y="0" type="line"/>
      <point x="1003" y="0" type="line"/>
      <point x="613" y="597" type="line"/>
      <point x="232" y="0" type="line"/>
      <point x="97" y="0" type="line"/>
      <point x="564" y="707" type="line"/>
      <point x="99" y="1413" type="line"/>
      <point x="234" y="1413" type="line"/>
      <point x="617" y="806" type="line"/>
      <point x="1001" y="1413" type="line"/>
      <point x="1131" y="1413" type="line"/>
      <point x="672" y="707" type="line"/>
    </contour>
  </outline>
</glyph>
<glyph name="Y" format="2">
  <advance width="1319"/>
  <unicode hex="0059"/>
  <outline>
    <contour>
      <point x="714" y="0" type="line"/>
      <point x="607" y="0" type="line"/>
      <point x="607" y="553" type="line"/>
      <point x="79" y="1413" type="line"/>
      <point x="209" y="1413" type="line"/>
      <point x="659" y="675" type="line"/>
      <point x="1112" y="1413" type="line"/>
      <point x="1240" y="1413" type="line"/>
      <point x="714" y="553" type="line"/>
    </contour>
  </outline>
</glyph>
<glyph name="Z" format="2">
  <advance width="1279"/>
  <unicode hex="005A"/>
  <outline>
    <contour>
      <point x="1167" y="0" type="line"/>
      <point x="101" y="0" type="line"/>
      <point x="101" y="99" type="line"/>
      <point x="1047" y="1321" type="line"/>
      <point x="146" y="1321" type="line"/>
      <point x="146" y="1413" type="line"/>
      <point x="1167" y="1413" type="line"/>
      <point x="1167" y="1308" type="line"/>
      <point x="226" y="105" type="line"/>
      <point x="1167" y="105" type="line"/>
    </contour>
  </outline>
</glyph>
<glyph name="backslash" format="2">
  <advance width="928"/>
  <unicode hex="005C"/>
  <outline>
    <contour>
      <point x="893" y="-432" type="line"/>
      <point x="778" y="-432" type="line"/>
      <point x="34" y="1517" type="line"/>
      <point x="152" y="1517" type="line"/>
    </contour>
  </outline>
</glyph>
<glyph name="bracketright" format="2">
  <advance width="632"/>
  <unicode hex="005D"/>
  <outline>
    <contour>
      <point x="412" y="-65" type="line"/>
      <point x="84" y="-65" type="line"/>
      <point x="84" y="-6" type="line"/>
      <point x="320" y="-6" type="line"/>
      <point x="320" y="1419" type="line"/>
      <point x="84" y="1419" type="line"/>
      <point x="84" y="1476" type="line"/>
      <point x="412" y="1476" type="line"/>
    </contour>
  </outline>
</glyph>
<glyph name="asciicircum" format="2">
  <advance width="976"/>
  <unicode hex="005E"/>
  <outline>
    <contour>
      <point x="824" y="857" type="line"/>
      <point x="706" y="857" type="line"/>
      <point x="486" y="1208" type="line"/>
      <point x="272" y="857" type="line"/>
      <point x="154" y="857" type="line"/>
      <point x="486" y="1397" type="line"/>
    </contour>
  </outline>
</glyph>
<glyph name="underscore" format="2">
  <advance width="1236"/>
  <unicode hex="005F"/>
  <outline>
    <contour>
      <point x="991" y="-85" type="line"/>
      <point x="245" y="-85" type="line"/>
      <point x="245" y="-6" type="line"/>
      <point x="991" y="-6" type="line"/>
    </contour>
  </outline>
</glyph>
<glyph name="grave" format="2">
  <advance width="538"/>
  <unicode hex="0060"/>
  <outline>
    <contour>
      <point x="335" y="1129" type="line"/>
      <point x="76" y="1413" type="line"/>
      <point x="234" y="1413" type="line"/>
      <point x="444" y="1129" type="line"/>
    </contour>
  </outline>
</glyph>
<glyph name="b" format="2">
  <advance width="1113"/>
  <unicode hex="0062"/>
  <outline>
    <contour>
      <point x="610" y="-20" type="qcurve" smooth="yes"/>
      <point x="399" y="-20"/>
      <point x="285" y="159" type="qcurve"/>
      <point x="285" y="0" type="line"/>
      <point x="184" y="0" type="line"/>
      <point x="184" y="1413" type="line"/>
      <point x="285" y="1413" type="line"/>
      <point x="285" y="839" type="line"/>
      <point x="404" y="1020"/>
      <point x="611" y="1020" type="qcurve" smooth="yes"/>
      <point x="733" y="1020"/>
      <point x="908" y="882"/>
      <point x="1001" y="645"/>
      <point x="1001" y="499" type="qcurve" smooth="yes"/>
      <point x="1001" y="353"/>
      <point x="908" y="117"/>
      <point x="733" y="-20"/>
    </contour>
    <contour>
      <point x="582" y="67" type="qcurve" smooth="yes"/>
      <point x="723" y="67"/>
      <point x="897" y="304"/>
      <point x="897" y="499" type="qcurve" smooth="yes"/>
      <point x="897" y="671"/>
      <point x="823" y="793" type="qcurve" smooth="yes"/>
      <point x="738" y="931"/>
      <point x="582" y="931" type="qcurve" smooth="yes"/>
      <point x="476" y="931"/>
      <point x="341" y="810"/>
      <point x="277" y="614"/>
      <point x="277" y="499" type="qcurve" smooth="yes"/>
      <point x="277" y="327"/>
      <point x="342" y="209" type="qcurve" smooth="yes"/>
      <point x="420" y="67"/>
    </contour>
  </outline>
</glyph>
<glyph name="c" format="2">
  <advance width="965"/>
  <unicode hex="0063"/>
  <outline>
    <contour>
      <point x="522" y="-20" type="qcurve" smooth="yes"/>
      <point x="387" y="-20"/>
      <point x="203" y="120"/>
      <point x="108" y="356"/>
      <point x="108" y="497" type="qcurve" smooth="yes"/>
      <point x="108" y="641"/>
      <point x="219" y="900"/>
      <point x="341" y="972" type="qcurve"/>
      <point x="417" y="1014"/>
      <point x="520" y="1014" type="qcurve" smooth="yes"/>
      <point x="653" y="1014"/>
      <point x="840" y="877"/>
      <point x="889" y="769" type="qcurve"/>
      <point x="790" y="722" type="line"/>
      <point x="766" y="799"/>
      <point x="614" y="913"/>
      <point x="520" y="913" type="qcurve" smooth="yes"/>
      <point x="365" y="913"/>
      <point x="289" y="788" type="qcurve" smooth="yes"/>
      <point x="217" y="670"/>
      <point x="217" y="497" type="qcurve" smooth="yes"/>
      <point x="217" y="326"/>
      <point x="285" y="208" type="qcurve" smooth="yes"/>
      <point x="359" y="80"/>
      <point x="520" y="80" type="qcurve" smooth="yes"/>
      <point x="619" y="80"/>
      <point x="768" y="197"/>
      <point x="790" y="272" type="qcurve"/>
      <point x="878" y="230" type="line"/>
      <point x="832" y="107"/>
      <point x="645" y="-20"/>
    </contour>
  </outline>
</glyph>
<glyph name="e" format="2">
  <advance width="1029"/>
  <unicode hex="0065"/>
  <outline>
    <contour>
      <point x="537" y="-12" type="qcurve" smooth="yes"/>
      <point x="334" y="-12"/>
      <point x="218" y="133" type="qcurve" smooth="yes"/>
      <point x="109" y="269"/>
      <point x="109" y="493" type="qcurve" smooth="yes"/>
      <point x="109" y="707"/>
      <point x="212" y="852" type="qcurve" smooth="yes"/>
      <point x="326" y="1010"/>
      <point x="520" y="1010" type="qcurve" smooth="yes"/>
      <point x="743" y="1010"/>
      <point x="848" y="866" type="qcurve" smooth="yes"/>
      <point x="926" y="759"/>
      <point x="926" y="599" type="qcurve" smooth="yes"/>
      <point x="926" y="473"/>
      <point x="924" y="470" type="qcurve" smooth="yes"/>
      <point x="921" y="466"/>
      <point x="921" y="464" type="qcurve"/>
      <point x="223" y="464" type="line"/>
      <point x="223" y="439" type="line" smooth="yes"/>
      <point x="223" y="289"/>
      <point x="298" y="191" type="qcurve"/>
      <point x="386" y="80"/>
      <point x="535" y="80" type="qcurve" smooth="yes"/>
      <point x="639" y="80"/>
      <point x="705" y="103" type="qcurve" smooth="yes"/>
      <point x="777" y="129"/>
      <point x="831" y="184" type="qcurve"/>
      <point x="902" y="131" type="line"/>
      <point x="818" y="52"/>
      <point x="739" y="22" type="qcurve"/>
      <point x="656" y="-12"/>
    </contour>
    <contour>
      <point x="831" y="562" type="line"/>
      <point x="831" y="582" type="line" smooth="yes"/>
      <point x="831" y="724"/>
      <point x="764" y="802" type="qcurve" smooth="yes"/>
      <point x="671" y="912"/>
      <point x="520" y="912" type="qcurve" smooth="yes"/>
      <point x="383" y="912"/>
      <point x="301" y="809" type="qcurve" smooth="yes"/>
      <point x="226" y="715"/>
      <point x="223" y="562" type="qcurve"/>
    </contour>
  </outline>
</glyph>
<glyph name="f" format="2">
  <advance width="677"/>
  <unicode hex="0066"/>
  <outline>
    <contour>
      <point x="329" y="0" type="line"/>
      <point x="223" y="0" type="line"/>
      <point x="223" y="914" type="line"/>
      <point x="40" y="914" type="line"/>
      <point x="40" y="995" type="line"/>
      <point x="222" y="995" type="line"/>
      <point x="222" y="1183" type="line" smooth="yes"/>
      <point x="222" y="1302"/>
      <point x="359" y="1434"/>
      <point x="471" y="1434" type="qcurve" smooth="yes"/>
      <point x="550" y="1434"/>
      <point x="625" y="1398" type="qcurve"/>
      <point x="608" y="1308" type="line"/>
      <point x="536" y="1341"/>
      <point x="477" y="1341" type="qcurve" smooth="yes"/>
      <point x="409" y="1341"/>
      <point x="329" y="1269"/>
      <point x="329" y="1181" type="qcurve" smooth="yes"/>
      <point x="329" y="997" type="line"/>
      <point x="635" y="997" type="line"/>
      <point x="635" y="914" type="line"/>
      <point x="334" y="914" type="line"/>
    </contour>
  </outline>
</glyph>
<glyph name="g" format="2">
  <advance width="1019"/>
  <unicode hex="0067"/>
  <outline>
    <contour>
      <point x="538" y="-455" type="qcurve" smooth="yes"/>
      <point x="420" y="-455"/>
      <point x="233" y="-367"/>
      <point x="123" y="-216"/>
      <point x="123" y="-122" type="qcurve" smooth="yes"/>
      <point x="123" y="-94"/>
      <point x="125" y="-88" type="qcurve"/>
      <point x="288" y="81" type="line"/>
      <point x="147" y="151"/>
      <point x="147" y="289" type="qcurve" smooth="yes"/>
      <point x="147" y="332"/>
      <point x="175" y="405"/>
      <point x="213" y="440" type="qcurve"/>
      <point x="127" y="529"/>
      <point x="127" y="668" type="qcurve" smooth="yes"/>
      <point x="127" y="816"/>
      <point x="325" y="1010"/>
      <point x="485" y="1010" type="qcurve" smooth="yes"/>
      <point x="650" y="1010"/>
      <point x="752" y="902" type="qcurve"/>
      <point x="903" y="1041" type="line"/>
      <point x="967" y="959" type="line"/>
      <point x="799" y="829" type="line"/>
      <point x="835" y="752"/>
      <point x="835" y="669" type="qcurve" smooth="yes"/>
      <point x="835" y="565"/>
      <point x="744" y="416"/>
      <point x="583" y="336"/>
      <point x="481" y="336" type="qcurve" smooth="yes"/>
      <point x="379" y="336"/>
      <point x="294" y="379" type="qcurve"/>
      <point x="243" y="339"/>
      <point x="243" y="288" type="qcurve" smooth="yes"/>
      <point x="243" y="216"/>
      <point x="368" y="131"/>
      <point x="524" y="110" type="qcurve"/>
      <point x="669" y="88"/>
      <point x="740" y="67" type="qcurve" smooth="yes"/>
      <point x="920" y="14"/>
      <point x="920" y="-164" type="qcurve" smooth="yes"/>
      <point x="920" y="-259"/>
      <point x="811" y="-388"/>
      <point x="637" y="-455"/>
    </contour>
    <contour>
      <point x="479" y="422" type="qcurve" smooth="yes"/>
      <point x="585" y="422"/>
      <point x="728" y="555"/>
      <point x="728" y="673" type="qcurve" smooth="yes"/>
      <point x="728" y="737"/>
      <point x="668" y="853"/>
      <point x="557" y="926"/>
      <point x="479" y="926" type="qcurve" smooth="yes"/>
      <point x="402" y="926"/>
      <point x="293" y="853"/>
      <point x="234" y="737"/>
      <point x="234" y="673" type="qcurve" smooth="yes"/>
      <point x="234" y="559"/>
      <point x="366" y="422"/>
    </contour>
    <contour>
      <point x="554" y="-352" type="qcurve" smooth="yes"/>
      <point x="664" y="-352"/>
      <point x="742" y="-307" type="qcurve" smooth="yes"/>
      <point x="831" y="-256"/>
      <point x="831" y="-168" type="qcurve" smooth="yes"/>
      <point x="831" y="-120"/>
      <point x="794" y="-61"/>
      <point x="731" y="-27"/>
      <point x="643" y="-8"/>
      <point x="593" y="0" type="qcurve" smooth="yes"/>
      <point x="542" y="8"/>
      <point x="433" y="27"/>
      <point x="376" y="46" type="qcurve"/>
      <point x="229" y="-123" type="line"/>
      <point x="229" y="-134" type="line" smooth="yes"/>
      <point x="229" y="-212"/>
      <point x="306" y="-275" type="qcurve" smooth="yes"/>
      <point x="401" y="-352"/>
    </contour>
  </outline>
</glyph>
<glyph name="n" format="2">
  <advance width="1106"/>
  <unicode hex="006E"/>
  <outline>
    <contour>
      <point x="945" y="0" type="line"/>
      <point x="841" y="0" type="line"/>
      <point x="841" y="602" type="line" smooth="yes"/>
      <point x="841" y="681"/>
      <point x="801" y="823"/>
      <point x="698" y="912"/>
      <point x="604" y="912" type="qcurve" smooth="yes"/>
      <point x="521" y="912"/>
      <point x="375" y="822"/>
      <point x="285" y="674"/>
      <point x="285" y="586" type="qcurve" smooth="yes"/>
      <point x="285" y="0" type="line"/>
      <point x="182" y="0" type="line"/>
      <point x="182" y="997" type="line"/>
      <point x="285" y="997" type="line"/>
      <point x="285" y="813" type="line"/>
      <point x="338" y="909"/>
      <point x="512" y="1014"/>
      <point x="613" y="1014" type="qcurve" smooth="yes"/>
      <point x="728" y="1014"/>
      <point x="875" y="913"/>
      <point x="945" y="730"/>
      <point x="945" y="609" type="qcurve" smooth="yes"/>
    </contour>
  </outline>
</glyph>
<glyph name="u" format="2">
  <advance width="1101"/>
  <unicode hex="0075"/>
  <outline>
    <contour>
      <point x="489" y="-23" type="qcurve" smooth="yes"/>
      <point x="377" y="-23"/>
      <point x="230" y="83"/>
      <point x="158" y="276"/>
      <point x="158" y="404" type="qcurve" smooth="yes"/>
      <point x="158" y="997" type="line"/>
      <point x="261" y="997" type="line"/>
      <point x="261" y="390" type="line" smooth="yes"/>
      <point x="261" y="308"/>
      <point x="302" y="156"/>
      <point x="401" y="58"/>
      <point x="488" y="58" type="qcurve" smooth="yes"/>
      <point x="567" y="58"/>
      <point x="719" y="152"/>
      <point x="818" y="311"/>
      <point x="818" y="408" type="qcurve" smooth="yes"/>
      <point x="818" y="997" type="line"/>
      <point x="919" y="997" type="line"/>
      <point x="919" y="0" type="line"/>
      <point x="818" y="0" type="line"/>
      <point x="818" y="206" type="line"/>
      <point x="797" y="145"/>
      <point x="709" y="48"/>
      <point x="575" y="-23"/>
    </contour>
  </outline>
</glyph>
<glyph name="v" format="2">
  <advance width="931"/>
  <unicode hex="0076"/>
  <outline>
    <contour>
      <point x="517" y="0" type="line"/>
      <point x="418" y="0" type="line"/>
      <point x="58" y="997" type="line"/>
      <point x="173" y="997" type="line"/>
      <point x="467" y="133" type="line"/>
      <point x="763" y="997" type="line"/>
      <point x="873" y="997" type="line"/>
    </contour>
  </outline>
</glyph>
<glyph name="x" format="2">
  <advance width="880"/>
  <unicode hex="0078"/>
  <outline>
    <contour>
      <point x="833" y="0" type="line"/>
      <point x="706" y="0" type="line"/>
      <point x="452" y="412" type="line"/>
      <point x="196" y="0" type="line"/>
      <point x="67" y="0" type="line"/>
      <point x="397" y="502" type="line"/>
      <point x="67" y="997" type="line"/>
      <point x="196" y="997" type="line"/>
      <point x="451" y="588" type="line"/>
      <point x="709" y="997" type="line"/>
      <point x="841" y="997" type="line"/>
      <point x="509" y="498" type="line"/>
    </contour>
  </outline>
</glyph>
<glyph name="bar" format="2">
  <advance width="623"/>
  <unicode hex="007C"/>
  <outline>
    <contour>
      <point x="348" y="-514" type="line"/>
      <point x="273" y="-514" type="line"/>
      <point x="273" y="1535" type="line"/>
      <point x="348" y="1535" type="line"/>
    </contour>
  </outline>
</glyph>
<glyph name="braceright" format="2">
  <advance width="593"/>
  <unicode hex="007D"/>
  <outline>
    <contour>
      <point x="92" y="-107" type="qcurve" smooth="yes"/>
      <point x="84" y="-107" type="line"/>
      <point x="84" y="-53" type="line"/>
      <point x="95" y="-57"/>
      <point x="109" y="-57" type="qcurve" smooth="yes"/>
      <point x="259" y="-57"/>
      <point x="259" y="104" type="qcurve" smooth="yes"/>
      <point x="259" y="470" type="line" smooth="yes"/>
      <point x="259" y="528"/>
      <point x="355" y="603"/>
      <point x="460" y="635" type="qcurve"/>
      <point x="342" y="677"/>
      <point x="259" y="771"/>
      <point x="259" y="838" type="qcurve" smooth="yes"/>
      <point x="259" y="1346" type="line" smooth="yes"/>
      <point x="259" y="1422"/>
      <point x="130" y="1422" type="qcurve" smooth="yes"/>
      <point x="97" y="1422"/>
      <point x="84" y="1420" type="qcurve"/>
      <point x="84" y="1475" type="line"/>
      <point x="93" y="1475" type="line"/>
      <point x="107" y="1473"/>
      <point x="168" y="1473" type="qcurve" smooth="yes"/>
      <point x="269" y="1473"/>
      <point x="361" y="1382"/>
      <point x="361" y="1280" type="qcurve" smooth="yes"/>
      <point x="361" y="850" type="line" smooth="yes"/>
      <point x="361" y="789"/>
      <point x="426" y="703"/>
      <point x="493" y="689" type="qcurve"/>
      <point x="493" y="596" type="line"/>
      <point x="361" y="549"/>
      <point x="361" y="466" type="qcurve" smooth="yes"/>
      <point x="361" y="94" type="line" smooth="yes"/>
      <point x="361" y="-105"/>
      <point x="191" y="-105" type="qcurve" smooth="yes"/>
      <point x="110" y="-105"/>
      <point x="104" y="-106" type="qcurve" smooth="yes"/>
      <point x="98" y="-107"/>
    </contour>
  </outline>
</glyph>
<glyph name="cent" format="2">
  <advance width="1147"/>
  <unicode hex="00A2"/>
  <outline>
    <contour>
      <point x="646" y="-206" type="line"/>
      <point x="571" y="-206" type="line"/>
      <point x="571" y="-13" type="line"/>
      <point x="442" y="-1"/>
      <point x="274" y="141"/>
      <point x="190" y="366"/>
      <point x="190" y="497" type="qcurve" smooth="yes"/>
      <point x="190" y="616"/>
      <point x="268" y="841"/>
      <point x="434" y="993"/>
      <point x="571" y="1010" type="qcurve"/>
      <point x="571" y="1199" type="line"/>
      <point x="646" y="1199" type="line"/>
      <point x="646" y="1010" type="line"/>
      <point x="757" y="996"/>
      <point x="936" y="870"/>
      <point x="980" y="769" type="qcurve"/>
      <point x="866" y="719" type="line"/>
      <point x="842" y="796"/>
      <point x="698" y="901"/>
      <point x="611" y="901" type="qcurve" smooth="yes"/>
      <point x="458" y="901"/>
      <point x="379" y="771" type="qcurve" smooth="yes"/>
      <point x="313" y="660"/>
      <point x="313" y="497" type="qcurve" smooth="yes"/>
      <point x="313" y="332"/>
      <point x="378" y="222" type="qcurve" smooth="yes"/>
      <point x="455" y="92"/>
      <point x="611" y="92" type="qcurve" smooth="yes"/>
      <point x="692" y="92"/>
      <point x="839" y="189"/>
      <point x="866" y="275" type="qcurve"/>
      <point x="970" y="229" type="line"/>
      <point x="928" y="117"/>
      <point x="758" y="-8"/>
      <point x="646" y="-16" type="qcurve"/>
    </contour>
  </outline>
</glyph>
<glyph name="sterling" format="2">
  <advance width="1263"/>
  <unicode hex="00A3"/>
  <outline>
    <contour>
      <point x="1183" y="0" type="line"/>
      <point x="178" y="0" type="line"/>
      <point x="178" y="72" type="line"/>
      <point x="175" y="75" type="line"/>
      <point x="188" y="75"/>
      <point x="248" y="144" type="qcurve" smooth="yes"/>
      <point x="324" y="229"/>
      <point x="369" y="297" type="qcurve"/>
      <point x="423" y="382"/>
      <point x="423" y="456" type="qcurve" smooth="yes"/>
      <point x="423" y="477"/>
      <point x="421" y="498" type="qcurve"/>
      <point x="420" y="542"/>
      <point x="395" y="653" type="qcurve"/>
      <point x="180" y="653" type="line"/>
      <point x="180" y="751" type="line"/>
      <point x="370" y="751" type="line"/>
      <point x="316" y="900"/>
      <point x="316" y="1008" type="qcurve" smooth="yes"/>
      <point x="316" y="1183"/>
      <point x="414" y="1302" type="qcurve" smooth="yes"/>
      <point x="517" y="1428"/>
      <point x="695" y="1428" type="qcurve" smooth="yes"/>
      <point x="817" y="1428"/>
      <point x="912" y="1353" type="qcurve"/>
      <point x="1008" y="1273"/>
      <point x="1051" y="1157" type="qcurve"/>
      <point x="1005" y="1139"/>
      <point x="957" y="1122" type="qcurve"/>
      <point x="925" y="1213"/>
      <point x="786" y="1330"/>
      <point x="695" y="1330" type="qcurve" smooth="yes"/>
      <point x="567" y="1330"/>
      <point x="414" y="1152"/>
      <point x="414" y="1010" type="qcurve" smooth="yes"/>
      <point x="414" y="918"/>
      <point x="467" y="751" type="qcurve"/>
      <point x="938" y="751" type="line"/>
      <point x="938" y="653" type="line"/>
      <point x="495" y="653" type="line"/>
      <point x="507" y="602"/>
      <point x="520" y="469" type="qcurve"/>
      <point x="520" y="310"/>
      <point x="382" y="157" type="qcurve" smooth="yes"/>
      <point x="335" y="106"/>
      <point x="335" y="104" type="qcurve" smooth="yes"/>
      <point x="335" y="99" type="line"/>
      <point x="1183" y="99" type="line"/>
    </contour>
  </outline>
</glyph>
<glyph name="currency" format="2">
  <advance width="1392"/>
  <unicode hex="00A4"/>
  <outline>
    <contour>
      <point x="1067" y="184" type="line"/>
      <point x="962" y="288" type="line"/>
      <point x="844" y="194"/>
      <point x="694" y="194" type="qcurve" smooth="yes"/>
      <point x="543" y="194"/>
      <point x="424" y="288" type="qcurve"/>
      <point x="322" y="184" type="line"/>
      <point x="304" y="202"/>
      <point x="286" y="223" type="qcurve" smooth="yes"/>
      <point x="267" y="244"/>
      <point x="249" y="262" type="qcurve"/>
      <point x="352" y="365" type="line"/>
      <point x="258" y="483"/>
      <point x="258" y="633" type="qcurve" smooth="yes"/>
      <point x="258" y="778"/>
      <point x="352" y="896" type="qcurve"/>
      <point x="251" y="996" type="line"/>
      <point x="325" y="1076" type="line"/>
      <point x="358" y="1043"/>
      <point x="391" y="1007" type="qcurve"/>
      <point x="426" y="971" type="line"/>
      <point x="549" y="1067"/>
      <point x="698" y="1067" type="qcurve" smooth="yes"/>
      <point x="844" y="1067"/>
      <point x="962" y="973" type="qcurve"/>
      <point x="1065" y="1074" type="line"/>
      <point x="1140" y="1000" type="line"/>
      <point x="1039" y="898" type="line"/>
      <point x="1133" y="778"/>
      <point x="1133" y="631" type="qcurve" smooth="yes"/>
      <point x="1133" y="479"/>
      <point x="1039" y="363" type="qcurve"/>
      <point x="1140" y="262" type="line"/>
    </contour>
    <contour>
      <point x="694" y="297" type="qcurve" smooth="yes"/>
      <point x="771" y="297"/>
      <point x="924" y="375"/>
      <point x="1026" y="523"/>
      <point x="1026" y="630" type="qcurve" smooth="yes"/>
      <point x="1026" y="716"/>
      <point x="938" y="867"/>
      <point x="787" y="960"/>
      <point x="695" y="960" type="qcurve" smooth="yes"/>
      <point x="615" y="960"/>
      <point x="462" y="879"/>
      <point x="362" y="730"/>
      <point x="362" y="627" type="qcurve" smooth="yes"/>
      <point x="362" y="543"/>
      <point x="446" y="392"/>
      <point x="595" y="297"/>
    </contour>
  </outline>
</glyph>
<glyph name="yen" format="2">
  <advance width="1305"/>
  <unicode hex="00A5"/>
  <outline>
    <contour>
      <point x="709" y="0" type="line"/>
      <point x="597" y="0" type="line"/>
      <point x="597" y="340" type="line"/>
      <point x="297" y="340" type="line"/>
      <point x="297" y="423" type="line"/>
      <point x="597" y="423" type="line"/>
      <point x="597" y="549" type="line"/>
      <point x="297" y="549" type="line"/>
      <point x="297" y="631" type="line"/>
      <point x="557" y="631" type="line"/>
      <point x="79" y="1413" type="line"/>
      <point x="208" y="1413" type="line"/>
      <point x="654" y="694" type="line"/>
      <point x="1100" y="1413" type="line"/>
      <point x="1226" y="1413" type="line"/>
      <point x="749" y="633" type="line"/>
      <point x="1011" y="633" type="line"/>
      <point x="1011" y="549" type="line"/>
      <point x="709" y="549" type="line"/>
      <point x="709" y="423" type="line"/>
      <point x="1011" y="423" type="line"/>
      <point x="1011" y="340" type="line"/>
      <point x="709" y="340" type="line"/>
    </contour>
  </outline>
</glyph>
<glyph name="brokenbar" format="2">
  <advance width="610"/>
  <unicode hex="00A6"/>
  <outline>
    <contour>
      <point x="337" y="734" type="line"/>
      <point x="273" y="734" type="line"/>
      <point x="273" y="1475" type="line"/>
      <point x="337" y="1475" type="line"/>
    </contour>
    <contour>
      <point x="337" y="-308" type="line"/>
      <point x="273" y="-308" type="line"/>
      <point x="273" y="416" type="line"/>
      <point x="337" y="416" type="line"/>
    </contour>
  </outline>
</glyph>
<glyph name="copyright" format="2">
  <advance width="1763"/>
  <unicode hex="00A9"/>
  <outline>
    <contour>
      <point x="882" y="-51" type="qcurve" smooth="yes"/>
      <point x="713" y="-51"/>
      <point x="422" y="91"/>
      <point x="216" y="340"/>
      <point x="170" y="504" type="qcurve" smooth="yes"/>
      <point x="143" y="601"/>
      <point x="143" y="707" type="qcurve" smooth="yes"/>
      <point x="143" y="911"/>
      <point x="340" y="1256"/>
      <point x="503" y="1357" type="qcurve" smooth="yes"/>
      <point x="676" y="1464"/>
      <point x="882" y="1464" type="qcurve" smooth="yes"/>
      <point x="1047" y="1464"/>
      <point x="1336" y="1322"/>
      <point x="1544" y="1074"/>
      <point x="1592" y="911" type="qcurve"/>
      <point x="1619" y="813"/>
      <point x="1619" y="707" type="qcurve" smooth="yes"/>
      <point x="1619" y="535"/>
      <point x="1480" y="237"/>
      <point x="1238" y="25"/>
      <point x="1080" y="-23" type="qcurve" smooth="yes"/>
      <point x="985" y="-51"/>
    </contour>
    <contour>
      <point x="882" y="34" type="qcurve" smooth="yes"/>
      <point x="1059" y="34"/>
      <point x="1354" y="219"/>
      <point x="1534" y="525"/>
      <point x="1534" y="707" type="qcurve" smooth="yes"/>
      <point x="1534" y="884"/>
      <point x="1356" y="1190"/>
      <point x="1061" y="1379"/>
      <point x="882" y="1379" type="qcurve" smooth="yes"/>
      <point x="706" y="1379"/>
      <point x="407" y="1194"/>
      <point x="226" y="889"/>
      <point x="226" y="707" type="qcurve" smooth="yes"/>
      <point x="226" y="575"/>
      <point x="327" y="333"/>
      <point x="507" y="144"/>
      <point x="745" y="34"/>
    </contour>
    <contour>
      <point x="898" y="316" type="qcurve" smooth="yes"/>
      <point x="740" y="316"/>
      <point x="561" y="530"/>
      <point x="561" y="705" type="qcurve" smooth="yes"/>
      <point x="561" y="813"/>
      <point x="636" y="988"/>
      <point x="786" y="1093"/>
      <point x="898" y="1093" type="qcurve" smooth="yes"/>
      <point x="987" y="1093"/>
      <point x="1146" y="1003"/>
      <point x="1182" y="930" type="qcurve"/>
      <point x="1106" y="897" type="line"/>
      <point x="1078" y="946"/>
      <point x="965" y="1009"/>
      <point x="898" y="1009" type="qcurve" smooth="yes"/>
      <point x="811" y="1009"/>
      <point x="697" y="923"/>
      <point x="642" y="784"/>
      <point x="642" y="705" type="qcurve" smooth="yes"/>
      <point x="642" y="631"/>
      <point x="692" y="491"/>
      <point x="804" y="402"/>
      <point x="896" y="402" type="qcurve" smooth="yes"/>
      <point x="958" y="402"/>
      <point x="1075" y="462"/>
      <point x="1104" y="516" type="qcurve"/>
      <point x="1122" y="508"/>
      <point x="1144" y="499" type="qcurve" smooth="yes"/>
      <point x="1165" y="490"/>
      <point x="1182" y="482" type="qcurve"/>
      <point x="1144" y="404"/>
      <point x="990" y="316"/>
    </contour>
  </outline>
</glyph>
<glyph name="sfthyphen" format="2">
  <advance width="971"/>
  <unicode hex="00AD"/>
  <outline>
    <contour>
      <point x="798" y="610" type="line"/>
      <point x="173" y="610" type="line"/>
      <point x="173" y="689" type="line"/>
      <point x="798" y="689" type="line"/>
    </contour>
  </outline>
</glyph>
<glyph name="registered" format="2">
  <advance width="1763"/>
  <unicode hex="00AE"/>
  <outline>
    <contour>
      <point x="882" y="-49" type="qcurve" smooth="yes"/>
      <point x="713" y="-49"/>
      <point x="422" y="93"/>
      <point x="216" y="342"/>
      <point x="170" y="506" type="qcurve" smooth="yes"/>
      <point x="143" y="603"/>
      <point x="143" y="709" type="qcurve" smooth="yes"/>
      <point x="143" y="913"/>
      <point x="340" y="1258"/>
      <point x="503" y="1359" type="qcurve" smooth="yes"/>
      <point x="676" y="1466"/>
      <point x="882" y="1466" type="qcurve" smooth="yes"/>
      <point x="1047" y="1466"/>
      <point x="1336" y="1324"/>
      <point x="1544" y="1076"/>
      <point x="1592" y="913" type="qcurve"/>
      <point x="1619" y="815"/>
      <point x="1619" y="709" type="qcurve" smooth="yes"/>
      <point x="1619" y="537"/>
      <point x="1480" y="239"/>
      <point x="1238" y="27"/>
      <point x="1080" y="-21" type="qcurve" smooth="yes"/>
      <point x="985" y="-49"/>
    </contour>
    <contour>
      <point x="882" y="28" type="qcurve" smooth="yes"/>
      <point x="1054" y="28"/>
      <point x="1357" y="209"/>
      <point x="1449" y="363" type="qcurve"/>
      <point x="1542" y="523"/>
      <point x="1542" y="709" type="qcurve" smooth="yes"/>
      <point x="1542" y="843"/>
      <point x="1440" y="1088"/>
      <point x="1260" y="1278"/>
      <point x="1019" y="1389"/>
      <point x="882" y="1389" type="qcurve" smooth="yes"/>
      <point x="702" y="1389"/>
      <point x="400" y="1202"/>
      <point x="218" y="894"/>
      <point x="218" y="709" type="qcurve" smooth="yes"/>
      <point x="218" y="532"/>
      <point x="394" y="219"/>
      <point x="545" y="125" type="qcurve" smooth="yes"/>
      <point x="702" y="28"/>
    </contour>
    <contour>
      <point x="1211" y="310" type="line"/>
      <point x="1104" y="310" type="line"/>
      <point x="1013" y="481"/>
      <point x="923" y="653" type="qcurve"/>
      <point x="734" y="653" type="line"/>
      <point x="734" y="310" type="line"/>
      <point x="643" y="310" type="line"/>
      <point x="643" y="1093" type="line"/>
      <point x="935" y="1093" type="line" smooth="yes"/>
      <point x="1185" y="1093"/>
      <point x="1185" y="870" type="qcurve" smooth="yes"/>
      <point x="1185" y="775"/>
      <point x="1088" y="669"/>
      <point x="1007" y="658" type="qcurve"/>
    </contour>
    <contour>
      <point x="935" y="731" type="line" smooth="yes"/>
      <point x="1105" y="731"/>
      <point x="1105" y="870" type="qcurve" smooth="yes"/>
      <point x="1105" y="1010"/>
      <point x="935" y="1010" type="qcurve" smooth="yes"/>
      <point x="723" y="1010" type="line"/>
      <point x="723" y="731" type="line"/>
    </contour>
  </outline>
</glyph>
<glyph name="twosuperior" format="2">
  <advance width="898"/>
  <unicode hex="00B2"/>
  <outline>
    <contour>
      <point x="755" y="490" type="line"/>
      <point x="124" y="490" type="line"/>
      <point x="124" y="569" type="line"/>
      <point x="254" y="653"/>
      <point x="380" y="764"/>
      <point x="430" y="821" type="qcurve"/>
      <point x="523" y="920"/>
      <point x="628" y="1088"/>
      <point x="628" y="1186" type="qcurve" smooth="yes"/>
      <point x="628" y="1251"/>
      <point x="582" y="1339"/>
      <point x="495" y="1383"/>
      <point x="445" y="1383" type="qcurve" smooth="yes"/>
      <point x="357" y="1383"/>
      <point x="249" y="1257"/>
      <point x="248" y="1144" type="qcurve"/>
      <point x="175" y="1153" type="line"/>
      <point x="175" y="1267"/>
      <point x="309" y="1453"/>
      <point x="440" y="1453" type="qcurve" smooth="yes"/>
      <point x="565" y="1453"/>
      <point x="709" y="1310"/>
      <point x="709" y="1186" type="qcurve" smooth="yes"/>
      <point x="709" y="1076"/>
      <point x="595" y="885"/>
      <point x="480" y="771" type="qcurve" smooth="yes"/>
      <point x="392" y="682"/>
      <point x="290" y="601"/>
      <point x="231" y="565" type="qcurve" smooth="yes"/>
      <point x="223" y="560"/>
      <point x="216" y="554" type="qcurve"/>
      <point x="755" y="554" type="line"/>
    </contour>
  </outline>
</glyph>
<glyph name="mu" format="2">
  <advance width="1303"/>
  <unicode hex="00B5"/>
  <outline>
    <contour>
      <point x="377" y="-267" type="line"/>
      <point x="274" y="-267" type="line"/>
      <point x="274" y="997" type="line"/>
      <point x="397" y="997" type="line"/>
      <point x="397" y="396" type="line" smooth="yes"/>
      <point x="397" y="83"/>
      <point x="619" y="83" type="qcurve" smooth="yes"/>
      <point x="694" y="83"/>
      <point x="840" y="168"/>
      <point x="937" y="315"/>
      <point x="937" y="411" type="qcurve" smooth="yes"/>
      <point x="937" y="997" type="line"/>
      <point x="1059" y="997" type="line"/>
      <point x="1059" y="0" type="line"/>
      <point x="937" y="0" type="line"/>
      <point x="937" y="212" type="line"/>
      <point x="913" y="146"/>
      <point x="822" y="47"/>
      <point x="687" y="-23"/>
      <point x="604" y="-23" type="qcurve" smooth="yes"/>
      <point x="495" y="-23"/>
      <point x="400" y="39" type="qcurve"/>
    </contour>
  </outline>
</glyph>
<glyph name="paragraph" format="2">
  <advance width="1367"/>
  <unicode hex="00B6"/>
  <outline>
    <contour>
      <point x="716" y="-247" type="line"/>
      <point x="600" y="-247" type="line"/>
      <point x="600" y="626" type="line"/>
      <point x="468" y="626"/>
      <point x="244" y="739"/>
      <point x="183" y="854" type="qcurve" smooth="yes"/>
      <point x="145" y="927"/>
      <point x="145" y="1019" type="qcurve" smooth="yes"/>
      <point x="145" y="1139"/>
      <point x="270" y="1316"/>
      <point x="477" y="1413"/>
      <point x="597" y="1413" type="qcurve" smooth="yes"/>
      <point x="716" y="1413" type="line"/>
    </contour>
    <contour>
      <point x="1093" y="-247" type="line"/>
      <point x="976" y="-247" type="line"/>
      <point x="976" y="1413" type="line"/>
      <point x="1093" y="1413" type="line"/>
    </contour>
  </outline>
</glyph>
<glyph name="periodcentered" format="2">
  <advance width="656"/>
  <unicode hex="00B7"/>
  <outline>
    <contour>
      <point x="327" y="721" type="qcurve" smooth="yes"/>
      <point x="280" y="721"/>
      <point x="215" y="788"/>
      <point x="215" y="833" type="qcurve" smooth="yes"/>
      <point x="215" y="882"/>
      <point x="278" y="946"/>
      <point x="327" y="946" type="qcurve" smooth="yes"/>
      <point x="375" y="946"/>
      <point x="439" y="880"/>
      <point x="439" y="833" type="qcurve" smooth="yes"/>
      <point x="439" y="788"/>
      <point x="374" y="721"/>
    </contour>
  </outline>
</glyph>
<glyph name="ordmasculine" format="2">
  <advance width="862"/>
  <unicode hex="00BA"/>
  <outline>
    <contour>
      <point x="432" y="714" type="qcurve" smooth="yes"/>
      <point x="287" y="714"/>
      <point x="101" y="920"/>
      <point x="101" y="1075" type="qcurve" smooth="yes"/>
      <point x="101" y="1171"/>
      <point x="184" y="1335"/>
      <point x="333" y="1434"/>
      <point x="432" y="1434" type="qcurve" smooth="yes"/>
      <point x="531" y="1434"/>
      <point x="679" y="1335"/>
      <point x="762" y="1170"/>
      <point x="762" y="1075" type="qcurve" smooth="yes"/>
      <point x="762" y="976"/>
      <point x="678" y="813"/>
      <point x="530" y="714"/>
    </contour>
    <contour>
      <point x="432" y="803" type="qcurve" smooth="yes"/>
      <point x="506" y="803"/>
      <point x="603" y="874"/>
      <point x="650" y="997"/>
      <point x="650" y="1075" type="qcurve" smooth="yes"/>
      <point x="650" y="1146"/>
      <point x="606" y="1269"/>
      <point x="510" y="1347"/>
      <point x="432" y="1347" type="qcurve" smooth="yes"/>
      <point x="354" y="1347"/>
      <point x="257" y="1271"/>
      <point x="212" y="1148"/>
      <point x="212" y="1075" type="qcurve" smooth="yes"/>
      <point x="212" y="997"/>
      <point x="259" y="874"/>
      <point x="356" y="803"/>
    </contour>
  </outline>
</glyph>
<glyph name="guillemotright" format="2">
  <advance width="970"/>
  <unicode hex="00BB"/>
  <outline>
    <contour>
      <point x="175" y="203" type="line"/>
      <point x="175" y="336" type="line"/>
      <point x="377" y="511" type="line"/>
      <point x="175" y="684" type="line"/>
      <point x="175" y="818" type="line"/>
      <point x="514" y="511" type="line"/>
    </contour>
    <contour>
      <point x="539" y="203" type="line"/>
      <point x="539" y="336" type="line"/>
      <point x="740" y="511" type="line"/>
      <point x="539" y="684" type="line"/>
      <point x="539" y="818" type="line"/>
      <point x="881" y="511" type="line"/>
    </contour>
  </outline>
</glyph>
<glyph name="questiondown" format="2">
  <advance width="1034"/>
  <unicode hex="00BF"/>
  <outline>
    <contour>
      <point x="602" y="838" type="line"/>
      <point x="440" y="838" type="line"/>
      <point x="440" y="997" type="line"/>
      <point x="602" y="997" type="line"/>
    </contour>
    <contour>
      <point x="530" y="-436" type="qcurve" smooth="yes"/>
      <point x="354" y="-436"/>
      <point x="247" y="-347" type="qcurve" smooth="yes"/>
      <point x="132" y="-251"/>
      <point x="132" y="-89" type="qcurve" smooth="yes"/>
      <point x="132" y="56"/>
      <point x="218" y="128" type="qcurve" smooth="yes"/>
      <point x="256" y="159"/>
      <point x="340" y="207" type="qcurve" smooth="yes"/>
      <point x="423" y="254"/>
      <point x="469" y="324"/>
      <point x="472" y="383" type="qcurve" smooth="yes"/>
      <point x="473" y="412"/>
      <point x="473" y="639" type="qcurve"/>
      <point x="576" y="639" type="line"/>
      <point x="576" y="471"/>
      <point x="577" y="425" type="qcurve"/>
      <point x="577" y="380"/>
      <point x="572" y="341" type="qcurve" smooth="yes"/>
      <point x="562" y="257"/>
      <point x="506" y="213" type="qcurve"/>
      <point x="476" y="191"/>
      <point x="442" y="172" type="qcurve" smooth="yes"/>
      <point x="354" y="123"/>
      <point x="314" y="91" type="qcurve" smooth="yes"/>
      <point x="261" y="48"/>
      <point x="247" y="-16" type="qcurve"/>
      <point x="241" y="-49"/>
      <point x="239" y="-92" type="qcurve"/>
      <point x="239" y="-207"/>
      <point x="395" y="-337"/>
      <point x="525" y="-337" type="qcurve" smooth="yes"/>
      <point x="642" y="-337"/>
      <point x="721" y="-271" type="qcurve" smooth="yes"/>
      <point x="807" y="-198"/>
      <point x="809" y="-80" type="qcurve"/>
      <point x="919" y="-80" type="line"/>
      <point x="917" y="-236"/>
      <point x="701" y="-436"/>
    </contour>
  </outline>
</glyph>
<glyph name="Thorn" format="2">
  <advance width="1154"/>
  <unicode hex="00DE"/>
  <outline>
    <contour>
      <point x="345" y="0" type="line"/>
      <point x="230" y="0" type="line"/>
      <point x="230" y="1413" type="line"/>
      <point x="345" y="1413" type="line"/>
      <point x="345" y="1209" type="line"/>
      <point x="603" y="1209" type="line" smooth="yes"/>
      <point x="732" y="1209"/>
      <point x="931" y="1117"/>
      <point x="1044" y="943"/>
      <point x="1044" y="821" type="qcurve" smooth="yes"/>
      <point x="1044" y="701"/>
      <point x="933" y="537"/>
      <point x="738" y="450"/>
      <point x="610" y="450" type="qcurve" smooth="yes"/>
      <point x="345" y="450" type="line"/>
    </contour>
    <contour>
      <point x="610" y="557" type="line" smooth="yes"/>
      <point x="704" y="557"/>
      <point x="848" y="612"/>
      <point x="928" y="729"/>
      <point x="928" y="820" type="qcurve" smooth="yes"/>
      <point x="928" y="949"/>
      <point x="756" y="1088"/>
      <point x="610" y="1088" type="qcurve" smooth="yes"/>
      <point x="345" y="1088" type="line"/>
      <point x="345" y="557" type="line"/>
    </contour>
  </outline>
</glyph>
<glyph name="germandbls" format="2">
  <advance width="1181"/>
  <unicode hex="00DF"/>
  <outline>
    <contour>
      <point x="718" y="-18" type="qcurve" smooth="yes"/>
      <point x="642" y="-18"/>
      <point x="507" y="21"/>
      <point x="431" y="59" type="qcurve"/>
      <point x="481" y="166" type="line"/>
      <point x="597" y="97"/>
      <point x="719" y="97" type="qcurve" smooth="yes"/>
      <point x="793" y="97"/>
      <point x="934" y="204"/>
      <point x="934" y="281" type="qcurve" smooth="yes"/>
      <point x="934" y="380"/>
      <point x="852" y="461" type="qcurve" smooth="yes"/>
      <point x="815" y="497"/>
      <point x="724" y="568"/>
      <point x="680" y="609" type="qcurve"/>
      <point x="606" y="683"/>
      <point x="606" y="775" type="qcurve" smooth="yes"/>
      <point x="606" y="868"/>
      <point x="703" y="941" type="qcurve" smooth="yes"/>
      <point x="727" y="959"/>
      <point x="749" y="974" type="qcurve" smooth="yes"/>
      <point x="821" y="1025"/>
      <point x="830" y="1073" type="qcurve" smooth="yes"/>
      <point x="835" y="1098"/>
      <point x="835" y="1122" type="qcurve" smooth="yes"/>
      <point x="835" y="1143"/>
      <point x="822" y="1208"/>
      <point x="697" y="1332"/>
      <point x="579" y="1332" type="qcurve" smooth="yes"/>
      <point x="441" y="1332"/>
      <point x="289" y="1107"/>
      <point x="289" y="881" type="qcurve" smooth="yes"/>
      <point x="289" y="0" type="line"/>
      <point x="184" y="0" type="line"/>
      <point x="184" y="883" type="line" smooth="yes"/>
      <point x="184" y="1434"/>
      <point x="577" y="1434" type="qcurve" smooth="yes"/>
      <point x="645" y="1434"/>
      <point x="779" y="1387"/>
      <point x="889" y="1303"/>
      <point x="956" y="1182"/>
      <point x="956" y="1109" type="qcurve" smooth="yes"/>
      <point x="956" y="1009"/>
      <point x="868" y="951" type="qcurve" smooth="yes"/>
      <point x="819" y="918" type="line" smooth="yes"/>
      <point x="758" y="878"/>
      <point x="737" y="834" type="qcurve" smooth="yes"/>
      <point x="726" y="810"/>
      <point x="726" y="774" type="qcurve" smooth="yes"/>
      <point x="726" y="718"/>
      <point x="771" y="668" type="qcurve" smooth="yes"/>
      <point x="798" y="639"/>
      <point x="846" y="601" type="qcurve" smooth="yes"/>
      <point x="876" y="578"/>
      <point x="935" y="528" type="qcurve"/>
      <point x="1005" y="464"/>
      <point x="1031" y="392" type="qcurve"/>
      <point x="1044" y="352"/>
      <point x="1044" y="301" type="qcurve" smooth="yes"/>
      <point x="1044" y="163"/>
      <point x="856" y="-18"/>
    </contour>
  </outline>
</glyph>
<glyph name="ae" format="2">
  <advance width="1666"/>
  <unicode hex="00E6"/>
  <outline>
    <contour>
      <point x="795" y="275" type="line"/>
      <point x="763" y="151"/>
      <point x="667" y="67" type="qcurve" smooth="yes"/>
      <point x="568" y="-20"/>
      <point x="395" y="-20" type="qcurve" smooth="yes"/>
      <point x="266" y="-20"/>
      <point x="92" y="139"/>
      <point x="92" y="263" type="qcurve" smooth="yes"/>
      <point x="92" y="557"/>
      <point x="440" y="557" type="qcurve" smooth="yes"/>
      <point x="772" y="557" type="line"/>
      <point x="772" y="925"/>
      <point x="496" y="925" type="qcurve" smooth="yes"/>
      <point x="404" y="925"/>
      <point x="258" y="836"/>
      <point x="218" y="781" type="qcurve"/>
      <point x="132" y="833" type="line"/>
      <point x="205" y="926"/>
      <point x="290" y="969" type="qcurve" smooth="yes"/>
      <point x="381" y="1014"/>
      <point x="503" y="1014" type="qcurve" smooth="yes"/>
      <point x="753" y="1014"/>
      <point x="828" y="807" type="qcurve"/>
      <point x="828" y="804" type="line"/>
      <point x="842" y="829"/>
      <point x="858" y="852" type="qcurve" smooth="yes"/>
      <point x="972" y="1010"/>
      <point x="1166" y="1010" type="qcurve" smooth="yes"/>
      <point x="1389" y="1010"/>
      <point x="1494" y="866" type="qcurve" smooth="yes"/>
      <point x="1572" y="759"/>
      <point x="1572" y="599" type="qcurve" smooth="yes"/>
      <point x="1572" y="473"/>
      <point x="1570" y="470" type="qcurve" smooth="yes"/>
      <point x="1567" y="466"/>
      <point x="1567" y="464" type="qcurve"/>
      <point x="869" y="464" type="line"/>
      <point x="869" y="439" type="line" smooth="yes"/>
      <point x="869" y="289"/>
      <point x="944" y="191" type="qcurve"/>
      <point x="1032" y="80"/>
      <point x="1181" y="80" type="qcurve" smooth="yes"/>
      <point x="1285" y="80"/>
      <point x="1351" y="103" type="qcurve" smooth="yes"/>
      <point x="1423" y="129"/>
      <point x="1477" y="184" type="qcurve"/>
      <point x="1548" y="131" type="line"/>
      <point x="1464" y="52"/>
      <point x="1385" y="22" type="qcurve"/>
      <point x="1302" y="-12"/>
      <point x="1183" y="-12" type="qcurve" smooth="yes"/>
      <point x="980" y="-12"/>
      <point x="864" y="133" type="qcurve" smooth="yes"/>
      <point x="827" y="179"/>
      <point x="807" y="238" type="qcurve" smooth="yes"/>
    </contour>
    <contour>
      <point x="1467" y="562" type="line"/>
      <point x="1467" y="582" type="line" smooth="yes"/>
      <point x="1467" y="724"/>
      <point x="1397" y="813" type="qcurve"/>
      <point x="1317" y="912"/>
      <point x="1166" y="912" type="qcurve" smooth="yes"/>
      <point x="1029" y="912"/>
      <point x="947" y="809" type="qcurve" smooth="yes"/>
      <point x="872" y="715"/>
      <point x="869" y="562" type="qcurve"/>
    </contour>
    <contour>
      <point x="434" y="73" type="qcurve" smooth="yes"/>
      <point x="503" y="73"/>
      <point x="564" y="102" type="qcurve" smooth="yes"/>
      <point x="692" y="163"/>
      <point x="747" y="297" type="qcurve" smooth="yes"/>
      <point x="773" y="359"/>
      <point x="773" y="430" type="qcurve" smooth="yes"/>
      <point x="773" y="437"/>
      <point x="777" y="464" type="qcurve"/>
      <point x="426" y="464" type="line" smooth="yes"/>
      <point x="324" y="464"/>
      <point x="261" y="407" type="qcurve" smooth="yes"/>
      <point x="205" y="357"/>
      <point x="205" y="263" type="qcurve" smooth="yes"/>
      <point x="205" y="190"/>
      <point x="264" y="135" type="qcurve" smooth="yes"/>
      <point x="331" y="73"/>
    </contour>
  </outline>
</glyph>
<glyph name="eth" format="2">
  <advance width="1153"/>
  <unicode hex="00F0"/>
  <outline>
    <contour>
      <point x="562" y="-16" type="qcurve" smooth="yes"/>
      <point x="420" y="-16"/>
      <point x="215" y="131"/>
      <point x="104" y="372"/>
      <point x="104" y="515" type="qcurve" smooth="yes"/>
      <point x="104" y="652"/>
      <point x="211" y="881"/>
      <point x="409" y="1018"/>
      <point x="547" y="1018" type="qcurve" smooth="yes"/>
      <point x="634" y="1018"/>
      <point x="790" y="960"/>
      <point x="831" y="913" type="qcurve"/>
      <point x="796" y="1121"/>
      <point x="565" y="1288" type="qcurve"/>
      <point x="471" y="1146" type="line"/>
      <point x="389" y="1199" type="line"/>
      <point x="412" y="1232"/>
      <point x="435" y="1268" type="qcurve" smooth="yes"/>
      <point x="458" y="1304"/>
      <point x="484" y="1342" type="qcurve"/>
      <point x="391" y="1398"/>
      <point x="305" y="1435" type="qcurve"/>
      <point x="364" y="1516" type="line"/>
      <point x="457" y="1478"/>
      <point x="543" y="1432" type="qcurve"/>
      <point x="559" y="1459"/>
      <point x="576" y="1484" type="qcurve" smooth="yes"/>
      <point x="603" y="1523" type="line"/>
      <point x="688" y="1469" type="line"/>
      <point x="628" y="1380" type="line"/>
      <point x="835" y="1238"/>
      <point x="1025" y="818"/>
      <point x="1025" y="504" type="qcurve" smooth="yes"/>
      <point x="1025" y="361"/>
      <point x="891" y="102"/>
      <point x="755" y="29" type="qcurve" smooth="yes"/>
      <point x="670" y="-16"/>
    </contour>
    <contour>
      <point x="566" y="87" type="qcurve" smooth="yes"/>
      <point x="675" y="87"/>
      <point x="824" y="207"/>
      <point x="898" y="402"/>
      <point x="898" y="515" type="qcurve" smooth="yes"/>
      <point x="898" y="688"/>
      <point x="811" y="806" type="qcurve" smooth="yes"/>
      <point x="725" y="923"/>
      <point x="566" y="923" type="qcurve" smooth="yes"/>
      <point x="401" y="923"/>
      <point x="316" y="805" type="qcurve" smooth="yes"/>
      <point x="233" y="691"/>
      <point x="233" y="515" type="qcurve" smooth="yes"/>
      <point x="233" y="395"/>
      <point x="316" y="184"/>
      <point x="416" y="124" type="qcurve" smooth="yes"/>
      <point x="479" y="87"/>
    </contour>
  </outline>
</glyph>
<glyph name="oslash" format="2">
  <advance width="1118"/>
  <unicode hex="00F8"/>
  <outline>
    <contour>
      <point x="338" y="39" type="qcurve"/>
      <point x="317" y="1" type="line"/>
      <point x="249" y="1" type="line"/>
      <point x="289" y="74" type="line"/>
      <point x="210" y="138"/>
      <point x="161" y="234" type="qcurve" smooth="yes"/>
      <point x="101" y="351"/>
      <point x="101" y="495" type="qcurve" smooth="yes"/>
      <point x="101" y="639"/>
      <point x="221" y="873"/>
      <point x="427" y="1010"/>
      <point x="558" y="1010" type="qcurve" smooth="yes"/>
      <point x="677" y="1010"/>
      <point x="774" y="953" type="qcurve"/>
      <point x="774" y="954" type="line"/>
      <point x="798" y="996" type="line"/>
      <point x="867" y="996" type="line"/>
      <point x="824" y="918" type="line"/>
      <point x="905" y="854"/>
      <point x="955" y="756" type="qcurve" smooth="yes"/>
      <point x="1015" y="639"/>
      <point x="1015" y="495" type="qcurve" smooth="yes"/>
      <point x="1015" y="351"/>
      <point x="895" y="117"/>
      <point x="689" y="-20"/>
      <point x="558" y="-20" type="qcurve" smooth="yes"/>
      <point x="436" y="-20"/>
    </contour>
    <contour>
      <point x="341" y="168" type="qcurve"/>
      <point x="725" y="865" type="line"/>
      <point x="652" y="908"/>
      <point x="558" y="908" type="qcurve" smooth="yes"/>
      <point x="412" y="908"/>
      <point x="308" y="788" type="qcurve" smooth="yes"/>
      <point x="214" y="678"/>
      <point x="214" y="495" type="qcurve" smooth="yes"/>
      <point x="214" y="312"/>
      <point x="308" y="202" type="qcurve" smooth="yes"/>
      <point x="324" y="184"/>
    </contour>
    <contour>
      <point x="389" y="131" type="line"/>
      <point x="465" y="82"/>
      <point x="558" y="82" type="qcurve" smooth="yes"/>
      <point x="714" y="82"/>
      <point x="811" y="201" type="qcurve" smooth="yes"/>
      <point x="902" y="312"/>
      <point x="902" y="495" type="qcurve" smooth="yes"/>
      <point x="902" y="678"/>
      <point x="811" y="789" type="qcurve" smooth="yes"/>
      <point x="794" y="810"/>
      <point x="774" y="828" type="qcurve"/>
    </contour>
  </outline>
</glyph>
<glyph name="ydieresis" format="2">
  <advance width="952"/>
  <unicode hex="00FF"/>
  <outline>
    <contour>
      <point x="375" y="1239" type="line"/>
      <point x="226" y="1239" type="line"/>
      <point x="226" y="1413" type="line"/>
      <point x="375" y="1413" type="line"/>
    </contour>
    <contour>
      <point x="706" y="1239" type="line"/>
      <point x="557" y="1239" type="line"/>
      <point x="557" y="1413" type="line"/>
      <point x="706" y="1413" type="line"/>
    </contour>
    <contour>
      <point x="383" y="-432" type="line"/>
      <point x="272" y="-432" type="line"/>
      <point x="438" y="-6" type="line"/>
      <point x="55" y="997" type="line"/>
      <point x="177" y="997" type="line"/>
      <point x="486" y="127" type="line"/>
      <point x="784" y="997" type="line"/>
      <point x="904" y="997" type="line"/>
    </contour>
  </outline>
</glyph>
<glyph name="abreve" format="2">
  <advance width="1010"/>
  <unicode hex="0103"/>
  <outline>
    <contour>
      <point x="499" y="1148" type="qcurve" smooth="yes"/>
      <point x="422" y="1148"/>
      <point x="284" y="1206"/>
      <point x="198" y="1325"/>
      <point x="198" y="1413" type="qcurve"/>
      <point x="314" y="1413" type="line"/>
      <point x="314" y="1344"/>
      <point x="422" y="1243"/>
      <point x="499" y="1243" type="qcurve" smooth="yes"/>
      <point x="574" y="1243"/>
      <point x="683" y="1334"/>
      <point x="683" y="1413" type="qcurve"/>
      <point x="800" y="1413" type="line"/>
      <point x="800" y="1328"/>
      <point x="718" y="1209"/>
      <point x="582" y="1148"/>
    </contour>
    <contour>
      <point x="395" y="-20" type="qcurve" smooth="yes"/>
      <point x="259" y="-20"/>
      <point x="90" y="131"/>
      <point x="90" y="263" type="qcurve" smooth="yes"/>
      <point x="90" y="557"/>
      <point x="544" y="557" type="qcurve" smooth="yes"/>
      <point x="765" y="557" type="line"/>
      <point x="765" y="673"/>
      <point x="712" y="837"/>
      <point x="593" y="924"/>
      <point x="495" y="924" type="qcurve" smooth="yes"/>
      <point x="423" y="924"/>
      <point x="311" y="881"/>
      <point x="227" y="813"/>
      <point x="200" y="774" type="qcurve"/>
      <point x="126" y="833" type="line"/>
      <point x="256" y="1014"/>
      <point x="484" y="1014" type="qcurve" smooth="yes"/>
      <point x="665" y="1014"/>
      <point x="856" y="798"/>
      <point x="856" y="615" type="qcurve" smooth="yes"/>
      <point x="856" y="0" type="line"/>
      <point x="766" y="0" type="line"/>
      <point x="766" y="104"/>
      <point x="768" y="226" type="qcurve"/>
      <point x="709" y="95"/>
      <point x="512" y="-20"/>
    </contour>
    <contour>
      <point x="406" y="67" type="qcurve" smooth="yes"/>
      <point x="566" y="67"/>
      <point x="669" y="197" type="qcurve" smooth="yes"/>
      <point x="765" y="318"/>
      <point x="765" y="475" type="qcurve"/>
      <point x="547" y="475" type="line" smooth="yes"/>
      <point x="369" y="475"/>
      <point x="200" y="378"/>
      <point x="200" y="262" type="qcurve" smooth="yes"/>
      <point x="200" y="161"/>
      <point x="314" y="67"/>
    </contour>
  </outline>
</glyph>
<glyph name="Dcroat" format="2">
  <advance width="1420"/>
  <unicode hex="0110"/>
  <outline>
    <contour>
      <point x="591" y="0" type="qcurve" smooth="yes"/>
      <point x="244" y="0" type="line"/>
      <point x="244" y="672" type="line"/>
      <point x="131" y="672" type="line"/>
      <point x="131" y="754" type="line"/>
      <point x="244" y="754" type="line"/>
      <point x="244" y="1413" type="line"/>
      <point x="593" y="1413" type="line" smooth="yes"/>
      <point x="926" y="1413"/>
      <point x="1285" y="1044"/>
      <point x="1285" y="696" type="qcurve" smooth="yes"/>
      <point x="1285" y="363"/>
      <point x="923" y="0"/>
    </contour>
    <contour>
      <point x="566" y="113" type="line" smooth="yes"/>
      <point x="824" y="113"/>
      <point x="981" y="250" type="qcurve"/>
      <point x="1157" y="406"/>
      <point x="1157" y="707" type="qcurve" smooth="yes"/>
      <point x="1157" y="890"/>
      <point x="1036" y="1157"/>
      <point x="785" y="1303"/>
      <point x="589" y="1303" type="qcurve" smooth="yes"/>
      <point x="371" y="1303" type="line"/>
      <point x="371" y="754" type="line"/>
      <point x="754" y="754" type="line"/>
      <point x="754" y="672" type="line"/>
      <point x="371" y="672" type="line"/>
      <point x="371" y="113" type="line"/>
    </contour>
  </outline>
</glyph>
<glyph name="dcroat" format="2">
  <advance width="1116"/>
  <unicode hex="0111"/>
  <outline>
    <contour>
      <point x="500" y="-20" type="qcurve" smooth="yes"/>
      <point x="378" y="-20"/>
      <point x="205" y="116"/>
      <point x="112" y="352"/>
      <point x="112" y="499" type="qcurve" smooth="yes"/>
      <point x="112" y="643"/>
      <point x="204" y="879"/>
      <point x="378" y="1018"/>
      <point x="501" y="1018" type="qcurve" smooth="yes"/>
      <point x="709" y="1018"/>
      <point x="828" y="839" type="qcurve"/>
      <point x="828" y="1171" type="line"/>
      <point x="514" y="1171" type="line"/>
      <point x="514" y="1264" type="line"/>
      <point x="828" y="1264" type="line"/>
      <point x="828" y="1413" type="line"/>
      <point x="933" y="1413" type="line"/>
      <point x="933" y="1264" type="line"/>
      <point x="1146" y="1264" type="line"/>
      <point x="1146" y="1171" type="line"/>
      <point x="933" y="1171" type="line"/>
      <point x="933" y="0" type="line"/>
      <point x="825" y="0" type="line"/>
      <point x="827" y="158" type="line"/>
      <point x="770" y="74"/>
      <point x="620" y="-20"/>
    </contour>
    <contour>
      <point x="529" y="74" type="qcurve" smooth="yes"/>
      <point x="633" y="74"/>
      <point x="770" y="185"/>
      <point x="837" y="377"/>
      <point x="837" y="499" type="qcurve" smooth="yes"/>
      <point x="837" y="674"/>
      <point x="768" y="788" type="qcurve" smooth="yes"/>
      <point x="687" y="920"/>
      <point x="529" y="920" type="qcurve" smooth="yes"/>
      <point x="424" y="920"/>
      <point x="286" y="804"/>
      <point x="221" y="613"/>
      <point x="221" y="499" type="qcurve" smooth="yes"/>
      <point x="221" y="328"/>
      <point x="288" y="211" type="qcurve" smooth="yes"/>
      <point x="368" y="74"/>
    </contour>
  </outline>
</glyph>
<glyph name="Eogonek" format="2">
  <advance width="1236"/>
  <unicode hex="0118"/>
  <outline>
    <contour>
      <point x="1131" y="0" type="line"/>
      <point x="228" y="0" type="line"/>
      <point x="228" y="1413" type="line"/>
      <point x="1131" y="1413" type="line"/>
      <point x="1131" y="1321" type="line"/>
      <point x="343" y="1321" type="line"/>
      <point x="343" y="751" type="line"/>
      <point x="1011" y="751" type="line"/>
      <point x="1011" y="664" type="line"/>
      <point x="343" y="664" type="line"/>
      <point x="343" y="101" type="line"/>
      <point x="1131" y="101" type="line"/>
    </contour>
    <contour>
      <point x="996" y="-453" type="qcurve" smooth="yes"/>
      <point x="945" y="-453"/>
      <point x="856" y="-405"/>
      <point x="801" y="-314"/>
      <point x="801" y="-250" type="qcurve" smooth="yes"/>
      <point x="801" y="-103"/>
      <point x="972" y="-30" type="qcurve"/>
      <point x="997" y="-16"/>
      <point x="1023" y="-6" type="qcurve"/>
      <point x="1123" y="0" type="line"/>
      <point x="1092" y="-13" type="line" smooth="yes"/>
      <point x="1010" y="-49"/>
      <point x="890" y="-174"/>
      <point x="890" y="-240" type="qcurve" smooth="yes"/>
      <point x="890" y="-294"/>
      <point x="947" y="-359"/>
      <point x="986" y="-359" type="qcurve" smooth="yes"/>
      <point x="1074" y="-359"/>
      <point x="1117" y="-294" type="qcurve"/>
      <point x="1193" y="-347" type="line"/>
      <point x="1124" y="-453"/>
    </contour>
  </outline>
</glyph>
<glyph name="Hbar" format="2">
  <advance width="1445"/>
  <unicode hex="0126"/>
  <outline>
    <contour>
      <point x="1219" y="0" type="line"/>
      <point x="1104" y="0" type="line"/>
      <point x="1104" y="664" type="line"/>
      <point x="342" y="664" type="line"/>
      <point x="342" y="0" type="line"/>
      <point x="228" y="0" type="line"/>
      <point x="228" y="1086" type="line"/>
      <point x="107" y="1086" type="line"/>
      <point x="107" y="1148" type="line"/>
      <point x="228" y="1148" type="line"/>
      <point x="228" y="1413" type="line"/>
      <point x="342" y="1413" type="line"/>
      <point x="342" y="1148" type="line"/>
      <point x="1104" y="1148" type="line"/>
      <point x="1104" y="1413" type="line"/>
      <point x="1219" y="1413" type="line"/>
      <point x="1219" y="1148" type="line"/>
      <point x="1335" y="1148" type="line"/>
      <point x="1335" y="1086" type="line"/>
      <point x="1219" y="1086" type="line"/>
    </contour>
    <contour>
      <point x="1104" y="751" type="line"/>
      <point x="1104" y="1086" type="line"/>
      <point x="342" y="1086" type="line"/>
      <point x="342" y="751" type="line"/>
    </contour>
  </outline>
</glyph>
<glyph name="kgreenlandic" format="2">
  <advance width="1023"/>
  <unicode hex="0138"/>
  <outline>
    <contour>
      <point x="291" y="998" type="line"/>
      <point x="291" y="441" type="line"/>
      <point x="771" y="997" type="line"/>
      <point x="897" y="997" type="line"/>
      <point x="592" y="630" type="line"/>
      <point x="963" y="0" type="line"/>
      <point x="838" y="0" type="line"/>
      <point x="523" y="542" type="line"/>
      <point x="291" y="293" type="line"/>
      <point x="291" y="0" type="line"/>
      <point x="184" y="0" type="line"/>
      <point x="184" y="998" type="line"/>
    </contour>
  </outline>
</glyph>
<glyph name="Lcaron" format="2">
  <advance width="1034"/>
  <unicode hex="013D"/>
  <outline>
    <contour>
      <point x="949" y="0" type="line"/>
      <point x="228" y="0" type="line"/>
      <point x="228" y="1413" type="line"/>
      <point x="343" y="1413" type="line"/>
      <point x="343" y="101" type="line"/>
      <point x="949" y="101" type="line"/>
    </contour>
    <contour>
      <point x="667" y="1046" type="line"/>
      <point x="580" y="1046" type="line"/>
      <point x="677" y="1413" type="line"/>
      <point x="865" y="1413" type="line"/>
    </contour>
  </outline>
</glyph>
<glyph name="Ldot" format="2">
  <advance width="1026"/>
  <unicode hex="013F"/>
  <outline>
    <contour>
      <point x="949" y="0" type="line"/>
      <point x="228" y="0" type="line"/>
      <point x="228" y="1413" type="line"/>
      <point x="343" y="1413" type="line"/>
      <point x="343" y="101" type="line"/>
      <point x="949" y="101" type="line"/>
    </contour>
    <contour>
      <point x="766" y="595" type="qcurve" smooth="yes"/>
      <point x="719" y="595"/>
      <point x="654" y="662"/>
      <point x="654" y="707" type="qcurve" smooth="yes"/>
      <point x="654" y="756"/>
      <point x="717" y="820"/>
      <point x="766" y="820" type="qcurve" smooth="yes"/>
      <point x="814" y="820"/>
      <point x="878" y="754"/>
      <point x="878" y="707" type="qcurve" smooth="yes"/>
      <point x="878" y="662"/>
      <point x="813" y="595"/>
    </contour>
  </outline>
</glyph>
<glyph name="Lslash" format="2">
  <advance width="1051"/>
  <unicode hex="0141"/>
  <outline>
    <contour>
      <point x="964" y="0" type="line"/>
      <point x="243" y="0" type="line"/>
      <point x="243" y="323" type="line"/>
      <point x="138" y="210" type="line"/>
      <point x="138" y="351" type="line"/>
      <point x="243" y="470" type="line"/>
      <point x="243" y="1413" type="line"/>
      <point x="357" y="1413" type="line"/>
      <point x="357" y="602" type="line"/>
      <point x="777" y="1080" type="line"/>
      <point x="777" y="907" type="line"/>
      <point x="357" y="448" type="line"/>
      <point x="357" y="101" type="line"/>
      <point x="964" y="101" type="line"/>
    </contour>
  </outline>
</glyph>
<glyph name="Tcaron" format="2">
  <advance width="1255"/>
  <unicode hex="0164"/>
  <outline>
    <contour>
      <point x="632" y="1501" type="line"/>
      <point x="304" y="1827" type="line"/>
      <point x="448" y="1827" type="line"/>
      <point x="632" y="1626" type="line"/>
      <point x="818" y="1827" type="line"/>
      <point x="960" y="1827" type="line"/>
    </contour>
    <contour>
      <point x="689" y="0" type="line"/>
      <point x="571" y="0" type="line"/>
      <point x="571" y="1328" type="line"/>
      <point x="79" y="1328" type="line"/>
      <point x="79" y="1413" type="line"/>
      <point x="1182" y="1413" type="line"/>
      <point x="1182" y="1328" type="line"/>
      <point x="689" y="1328" type="line"/>
    </contour>
  </outline>
</glyph>
<glyph name="Tbar" format="2">
  <advance width="1260"/>
  <unicode hex="0166"/>
  <outline>
    <contour>
      <point x="689" y="0" type="line"/>
      <point x="571" y="0" type="line"/>
      <point x="571" y="659" type="line"/>
      <point x="321" y="659" type="line"/>
      <point x="321" y="751" type="line"/>
      <point x="571" y="751" type="line"/>
      <point x="571" y="1328" type="line"/>
      <point x="79" y="1328" type="line"/>
      <point x="79" y="1413" type="line"/>
      <point x="1182" y="1413" type="line"/>
      <point x="1182" y="1328" type="line"/>
      <point x="689" y="1328" type="line"/>
      <point x="689" y="751" type="line"/>
      <point x="953" y="751" type="line"/>
      <point x="953" y="659" type="line"/>
      <point x="689" y="659" type="line"/>
    </contour>
  </outline>
</glyph>
<glyph name="tbar" format="2">
  <advance width="643"/>
  <unicode hex="0167"/>
  <outline>
    <contour>
      <point x="452" y="-20" type="qcurve" smooth="yes"/>
      <point x="423" y="-20" type="line" smooth="yes"/>
      <point x="309" y="-20"/>
      <point x="211" y="118"/>
      <point x="211" y="258" type="qcurve" smooth="yes"/>
      <point x="211" y="451" type="line"/>
      <point x="-11" y="451" type="line"/>
      <point x="-11" y="543" type="line"/>
      <point x="211" y="543" type="line"/>
      <point x="211" y="914" type="line"/>
      <point x="55" y="914" type="line"/>
      <point x="55" y="997" type="line"/>
      <point x="211" y="997" type="line"/>
      <point x="211" y="1216" type="line"/>
      <point x="321" y="1336" type="line"/>
      <point x="321" y="997" type="line"/>
      <point x="575" y="997" type="line"/>
      <point x="575" y="914" type="line"/>
      <point x="321" y="914" type="line"/>
      <point x="321" y="543" type="line"/>
      <point x="621" y="543" type="line"/>
      <point x="621" y="451" type="line"/>
      <point x="321" y="451" type="line"/>
      <point x="321" y="239" type="line" smooth="yes"/>
      <point x="321" y="153"/>
      <point x="397" y="60"/>
      <point x="457" y="60" type="qcurve" smooth="yes"/>
      <point x="496" y="60"/>
      <point x="538" y="79" type="qcurve"/>
      <point x="538" y="-5" type="line"/>
      <point x="498" y="-20"/>
    </contour>
  </outline>
</glyph>
<glyph name="Uogonek" format="2">
  <advance width="1348"/>
  <unicode hex="0172"/>
  <outline>
    <contour>
      <point x="734" y="-449" type="qcurve"/>
      <point x="725" y="-449" type="line" smooth="yes"/>
      <point x="639" y="-449"/>
      <point x="586" y="-395" type="qcurve"/>
      <point x="524" y="-336"/>
      <point x="524" y="-243" type="qcurve" smooth="yes"/>
      <point x="524" y="-169"/>
      <point x="569" y="-111" type="qcurve"/>
      <point x="610" y="-61"/>
      <point x="692" y="-20" type="qcurve"/>
      <point x="462" y="-20"/>
      <point x="334" y="117" type="qcurve" smooth="yes"/>
      <point x="202" y="258"/>
      <point x="202" y="504" type="qcurve" smooth="yes"/>
      <point x="202" y="1413" type="line"/>
      <point x="317" y="1413" type="line"/>
      <point x="317" y="555" type="line" smooth="yes"/>
      <point x="317" y="334"/>
      <point x="397" y="217" type="qcurve" smooth="yes"/>
      <point x="487" y="85"/>
      <point x="673" y="85" type="qcurve" smooth="yes"/>
      <point x="856" y="85"/>
      <point x="949" y="217" type="qcurve" smooth="yes"/>
      <point x="1033" y="336"/>
      <point x="1033" y="555" type="qcurve" smooth="yes"/>
      <point x="1033" y="1413" type="line"/>
      <point x="1147" y="1413" type="line"/>
      <point x="1147" y="514" type="line" smooth="yes"/>
      <point x="1147" y="336"/>
      <point x="1075" y="204" type="qcurve"/>
      <point x="998" y="67"/>
      <point x="841" y="5" type="qcurve"/>
      <point x="848" y="11" type="line"/>
      <point x="793" y="-14" type="line"/>
      <point x="726" y="-48"/>
      <point x="672" y="-93" type="qcurve"/>
      <point x="614" y="-153"/>
      <point x="614" y="-232" type="qcurve" smooth="yes"/>
      <point x="614" y="-282"/>
      <point x="668" y="-352"/>
      <point x="709" y="-352" type="qcurve" smooth="yes"/>
      <point x="791" y="-352"/>
      <point x="840" y="-287" type="qcurve"/>
      <point x="879" y="-313"/>
      <point x="917" y="-339" type="qcurve"/>
      <point x="883" y="-386"/>
      <point x="851" y="-413" type="qcurve"/>
      <point x="805" y="-446"/>
    </contour>
  </outline>
</glyph>
<glyph name="longs" format="2">
  <advance width="676"/>
  <unicode hex="017F"/>
  <outline>
    <contour>
      <point x="324" y="0" type="line"/>
      <point x="223" y="0" type="line"/>
      <point x="223" y="914" type="line"/>
      <point x="40" y="914" type="line"/>
      <point x="40" y="995" type="line"/>
      <point x="222" y="995" type="line"/>
      <point x="222" y="1183" type="line" smooth="yes"/>
      <point x="222" y="1302"/>
      <point x="359" y="1434"/>
      <point x="471" y="1434" type="qcurve" smooth="yes"/>
      <point x="550" y="1434"/>
      <point x="625" y="1398" type="qcurve"/>
      <point x="608" y="1318" type="line"/>
      <point x="536" y="1351"/>
      <point x="477" y="1351" type="qcurve" smooth="yes"/>
      <point x="409" y="1351"/>
      <point x="324" y="1269"/>
      <point x="324" y="1181" type="qcurve" smooth="yes"/>
    </contour>
  </outline>
</glyph>
<glyph name="clickretroflex" format="2">
  <advance width="670"/>
  <unicode hex="01C3"/>
  <outline>
    <contour>
      <point x="374" y="361" type="line"/>
      <point x="297" y="361" type="line"/>
      <point x="268" y="1436" type="line"/>
      <point x="403" y="1436" type="line"/>
    </contour>
    <contour>
      <point x="415" y="0" type="line"/>
      <point x="256" y="0" type="line"/>
      <point x="256" y="158" type="line"/>
      <point x="415" y="158" type="line"/>
    </contour>
  </outline>
</glyph>
<glyph name="DZ" format="2">
  <advance width="2679"/>
  <unicode hex="01F1"/>
  <outline>
    <contour>
      <point x="565" y="0" type="qcurve" smooth="yes"/>
      <point x="228" y="0" type="line"/>
      <point x="228" y="1413" type="line"/>
      <point x="567" y="1413" type="line" smooth="yes"/>
      <point x="901" y="1413"/>
      <point x="1270" y="1045"/>
      <point x="1270" y="696" type="qcurve" smooth="yes"/>
      <point x="1270" y="360"/>
      <point x="900" y="0"/>
    </contour>
    <contour>
      <point x="2571" y="0" type="line"/>
      <point x="1505" y="0" type="line"/>
      <point x="1505" y="99" type="line"/>
      <point x="2451" y="1321" type="line"/>
      <point x="1550" y="1321" type="line"/>
      <point x="1550" y="1413" type="line"/>
      <point x="2571" y="1413" type="line"/>
      <point x="2571" y="1308" type="line"/>
      <point x="1630" y="105" type="line"/>
      <point x="2571" y="105" type="line"/>
    </contour>
    <contour>
      <point x="541" y="104" type="line" smooth="yes"/>
      <point x="659" y="104"/>
      <point x="880" y="173"/>
      <point x="1053" y="319"/>
      <point x="1155" y="548"/>
      <point x="1155" y="707" type="qcurve" smooth="yes"/>
      <point x="1155" y="994"/>
      <point x="849" y="1314"/>
      <point x="563" y="1314" type="qcurve" smooth="yes"/>
      <point x="343" y="1314" type="line"/>
      <point x="343" y="104" type="line"/>
    </contour>
  </outline>
</glyph>
<glyph name="dotlessj" format="2">
  <advance width="476"/>
  <unicode hex="0237"/>
  <outline>
    <contour>
      <point x="52" y="-440" type="qcurve" smooth="yes"/>
      <point x="26" y="-440"/>
      <point x="-57" y="-422"/>
      <point x="-86" y="-411" type="qcurve"/>
      <point x="-67" y="-323" type="line"/>
      <point x="-51" y="-328"/>
      <point x="28" y="-338"/>
      <point x="57" y="-338" type="qcurve" smooth="yes"/>
      <point x="121" y="-338"/>
      <point x="184" y="-258"/>
      <point x="184" y="-201" type="qcurve" smooth="yes"/>
      <point x="184" y="997" type="line"/>
      <point x="293" y="997" type="line"/>
      <point x="293" y="-180" type="line" smooth="yes"/>
      <point x="293" y="-257"/>
      <point x="243" y="-374"/>
      <point x="138" y="-440"/>
    </contour>
  </outline>
</glyph>
<glyph name="ereversed" format="2">
  <advance width="1029"/>
  <unicode hex="0258"/>
  <outline>
    <contour>
      <point x="498" y="-12" type="qcurve" smooth="yes"/>
      <point x="379" y="-12"/>
      <point x="296" y="22" type="qcurve"/>
      <point x="217" y="52"/>
      <point x="133" y="131" type="qcurve"/>
      <point x="204" y="184" type="line"/>
      <point x="258" y="129"/>
      <point x="330" y="103" type="qcurve" smooth="yes"/>
      <point x="396" y="80"/>
      <point x="500" y="80" type="qcurve" smooth="yes"/>
      <point x="649" y="80"/>
      <point x="737" y="191" type="qcurve"/>
      <point x="812" y="289"/>
      <point x="812" y="439" type="qcurve" smooth="yes"/>
      <point x="812" y="464" type="line"/>
      <point x="114" y="464" type="line"/>
      <point x="114" y="466"/>
      <point x="111" y="470" type="qcurve" smooth="yes"/>
      <point x="109" y="473"/>
      <point x="109" y="599" type="qcurve" smooth="yes"/>
      <point x="109" y="759"/>
      <point x="187" y="866" type="qcurve" smooth="yes"/>
      <point x="292" y="1010"/>
      <point x="515" y="1010" type="qcurve" smooth="yes"/>
      <point x="709" y="1010"/>
      <point x="823" y="852" type="qcurve" smooth="yes"/>
      <point x="926" y="707"/>
      <point x="926" y="493" type="qcurve" smooth="yes"/>
      <point x="926" y="269"/>
      <point x="817" y="133" type="qcurve" smooth="yes"/>
      <point x="701" y="-12"/>
    </contour>
    <contour>
      <point x="204" y="562" type="line"/>
      <point x="812" y="562" type="line"/>
      <point x="809" y="715"/>
      <point x="734" y="809" type="qcurve" smooth="yes"/>
      <point x="652" y="912"/>
      <point x="515" y="912" type="qcurve" smooth="yes"/>
      <point x="364" y="912"/>
      <point x="271" y="802" type="qcurve" smooth="yes"/>
      <point x="204" y="724"/>
      <point x="204" y="582" type="qcurve" smooth="yes"/>
    </contour>
  </outline>
</glyph>
<glyph name="schwa" format="2">
  <advance width="1029"/>
  <unicode hex="0259"/>
  <outline>
    <contour>
      <point x="498" y="1010" type="qcurve" smooth="yes"/>
      <point x="701" y="1010"/>
      <point x="817" y="865" type="qcurve" smooth="yes"/>
      <point x="926" y="729"/>
      <point x="926" y="505" type="qcurve" smooth="yes"/>
      <point x="926" y="291"/>
      <point x="823" y="146" type="qcurve" smooth="yes"/>
      <point x="709" y="-12"/>
      <point x="515" y="-12" type="qcurve" smooth="yes"/>
      <point x="292" y="-12"/>
      <point x="187" y="132" type="qcurve" smooth="yes"/>
      <point x="109" y="239"/>
      <point x="109" y="399" type="qcurve" smooth="yes"/>
      <point x="109" y="525"/>
      <point x="111" y="528" type="qcurve" smooth="yes"/>
      <point x="114" y="532"/>
      <point x="114" y="534" type="qcurve"/>
      <point x="812" y="534" type="line"/>
      <point x="812" y="559" type="line" smooth="yes"/>
      <point x="812" y="709"/>
      <point x="737" y="807" type="qcurve"/>
      <point x="649" y="918"/>
      <point x="500" y="918" type="qcurve" smooth="yes"/>
      <point x="396" y="918"/>
      <point x="330" y="895" type="qcurve" smooth="yes"/>
      <point x="258" y="869"/>
      <point x="204" y="814" type="qcurve"/>
      <point x="133" y="867" type="line"/>
      <point x="217" y="946"/>
      <point x="296" y="976" type="qcurve"/>
      <point x="379" y="1010"/>
    </contour>
    <contour>
      <point x="204" y="436" type="line"/>
      <point x="204" y="416" type="line" smooth="yes"/>
      <point x="204" y="274"/>
      <point x="271" y="196" type="qcurve" smooth="yes"/>
      <point x="364" y="86"/>
      <point x="515" y="86" type="qcurve" smooth="yes"/>
      <point x="652" y="86"/>
      <point x="734" y="189" type="qcurve" smooth="yes"/>
      <point x="809" y="283"/>
      <point x="812" y="436" type="qcurve"/>
    </contour>
  </outline>
</glyph>
<glyph name="circumflex" format="2">
  <advance width="789"/>
  <unicode hex="02C6"/>
  <outline>
    <contour>
      <point x="717" y="1103" type="line"/>
      <point x="576" y="1103" type="line"/>
      <point x="389" y="1307" type="line"/>
      <point x="205" y="1103" type="line"/>
      <point x="60" y="1103" type="line"/>
      <point x="389" y="1453" type="line"/>
    </contour>
  </outline>
</glyph>
<glyph name="colontriangularhalfmod" format="2">
  <advance width="552"/>
  <unicode hex="02D1"/>
  <outline>
    <contour>
      <point x="303" y="292" type="line"/>
      <point x="87" y="599" type="line"/>
      <point x="440" y="651" type="line"/>
    </contour>
  </outline>
</glyph>
<glyph name="dotaccent" format="2">
  <advance width="486"/>
  <unicode hex="02D9"/>
  <outline>
    <contour>
      <point x="308" y="1239" type="line"/>
      <point x="174" y="1239" type="line"/>
      <point x="174" y="1413" type="line"/>
      <point x="308" y="1413" type="line"/>
    </contour>
  </outline>
</glyph>
<glyph name="ogonek" format="2">
  <advance width="599"/>
  <unicode hex="02DB"/>
  <outline>
    <contour>
      <point x="312" y="-453" type="qcurve" smooth="yes"/>
      <point x="261" y="-453"/>
      <point x="172" y="-405"/>
      <point x="117" y="-314"/>
      <point x="117" y="-250" type="qcurve" smooth="yes"/>
      <point x="117" y="-103"/>
      <point x="288" y="-30" type="qcurve"/>
      <point x="313" y="-16"/>
      <point x="339" y="-6" type="qcurve"/>
      <point x="439" y="0" type="line"/>
      <point x="408" y="-13" type="line" smooth="yes"/>
      <point x="326" y="-49"/>
      <point x="206" y="-174"/>
      <point x="206" y="-240" type="qcurve" smooth="yes"/>
      <point x="206" y="-294"/>
      <point x="263" y="-359"/>
      <point x="302" y="-359" type="qcurve" smooth="yes"/>
      <point x="390" y="-359"/>
      <point x="433" y="-294" type="qcurve"/>
      <point x="509" y="-347" type="line"/>
      <point x="440" y="-453"/>
    </contour>
  </outline>
</glyph>
<glyph name="uni02F5" format="2">
  <advance width="857"/>
  <unicode hex="02F5"/>
  <outline>
    <contour>
      <point x="664" y="569" type="line"/>
      <point x="395" y="843" type="line"/>
      <point x="562" y="843" type="line"/>
      <point x="773" y="569" type="line"/>
    </contour>
    <contour>
      <point x="340" y="569" type="line"/>
      <point x="81" y="843" type="line"/>
      <point x="239" y="843" type="line"/>
      <point x="449" y="569" type="line"/>
    </contour>
  </outline>
</glyph>
<glyph name="acutecmb" format="2">
  <unicode hex="0301"/>
  <anchor x="-323" y="999" name="_t.ringcmb_1"/>
  <outline>
    <contour>
      <point x="-337" y="1129" type="line"/>
      <point x="-446" y="1129" type="line"/>
      <point x="-236" y="1413" type="line"/>
      <point x="-78" y="1413" type="line"/>
    </contour>
  </outline>
</glyph>
<glyph name="tildecmb" format="2">
  <advance width="1"/>
  <unicode hex="0303"/>
  <anchor x="-428" y="999" name="_t.ringcmb_1"/>
  <outline>
    <contour>
      <point x="-308" y="1164" type="qcurve" smooth="yes"/>
      <point x="-355" y="1164"/>
      <point x="-385" y="1186" type="qcurve"/>
      <point x="-414" y="1204"/>
      <point x="-461" y="1256" type="qcurve" smooth="yes"/>
      <point x="-492" y="1291"/>
      <point x="-535" y="1327"/>
      <point x="-562" y="1327" type="qcurve" smooth="yes"/>
      <point x="-600" y="1327"/>
      <point x="-620" y="1284" type="qcurve" smooth="yes"/>
      <point x="-637" y="1248"/>
      <point x="-637" y="1189" type="qcurve"/>
      <point x="-714" y="1189" type="line"/>
      <point x="-714" y="1293"/>
      <point x="-672" y="1359" type="qcurve" smooth="yes"/>
      <point x="-632" y="1421"/>
      <point x="-561" y="1421" type="qcurve"/>
      <point x="-499" y="1413"/>
      <point x="-454" y="1377" type="qcurve"/>
      <point x="-427" y="1351" type="line"/>
      <point x="-361" y="1276" type="line" smooth="yes"/>
      <point x="-338" y="1251"/>
      <point x="-305" y="1251" type="qcurve" smooth="yes"/>
      <point x="-227" y="1251"/>
      <point x="-227" y="1413" type="qcurve"/>
      <point x="-142" y="1413" type="line"/>
      <point x="-142" y="1164"/>
    </contour>
  </outline>
</glyph>
<glyph name="macroncmb" format="2">
  <unicode hex="0304"/>
  <anchor x="-437" y="999" name="_t.ringcmb_1"/>
  <outline>
    <contour>
      <point x="-173" y="1203" type="line"/>
      <point x="-702" y="1203" type="line"/>
      <point x="-702" y="1316" type="line"/>
      <point x="-173" y="1316" type="line"/>
    </contour>
  </outline>
</glyph>
<glyph name="brevecmb" format="2">
  <advance width="1"/>
  <unicode hex="0306"/>
  <anchor x="-422" y="999" name="_t.ringcmb_1"/>
  <outline>
    <contour>
      <point x="-422" y="1148" type="qcurve" smooth="yes"/>
      <point x="-499" y="1148"/>
      <point x="-637" y="1206"/>
      <point x="-723" y="1325"/>
      <point x="-723" y="1413" type="qcurve"/>
      <point x="-607" y="1413" type="line"/>
      <point x="-607" y="1344"/>
      <point x="-499" y="1243"/>
      <point x="-422" y="1243" type="qcurve" smooth="yes"/>
      <point x="-347" y="1243"/>
      <point x="-238" y="1334"/>
      <point x="-238" y="1413" type="qcurve"/>
      <point x="-121" y="1413" type="line"/>
      <point x="-121" y="1328"/>
      <point x="-203" y="1209"/>
      <point x="-339" y="1148"/>
    </contour>
  </outline>
</glyph>
<glyph name="ringcmb" format="2">
  <unicode hex="030A"/>
  <anchor x="-319" y="999" name="_t.ringcmb_1"/>
  <outline>
    <contour>
      <point x="-320" y="1087" type="qcurve" smooth="yes"/>
      <point x="-399" y="1087"/>
      <point x="-509" y="1195"/>
      <point x="-509" y="1278" type="qcurve" smooth="yes"/>
      <point x="-509" y="1354"/>
      <point x="-401" y="1468"/>
      <point x="-320" y="1468" type="qcurve" smooth="yes"/>
      <point x="-240" y="1468"/>
      <point x="-129" y="1356"/>
      <point x="-129" y="1278" type="qcurve" smooth="yes"/>
      <point x="-129" y="1199"/>
      <point x="-239" y="1087"/>
    </contour>
    <contour>
      <point x="-320" y="1174" type="qcurve" smooth="yes"/>
      <point x="-278" y="1174"/>
      <point x="-215" y="1234"/>
      <point x="-215" y="1278" type="qcurve" smooth="yes"/>
      <point x="-215" y="1318"/>
      <point x="-276" y="1379"/>
      <point x="-320" y="1379" type="qcurve" smooth="yes"/>
      <point x="-365" y="1379"/>
      <point x="-421" y="1323"/>
      <point x="-421" y="1278" type="qcurve" smooth="yes"/>
      <point x="-421" y="1228"/>
      <point x="-360" y="1174"/>
    </contour>
  </outline>
</glyph>
<glyph name="caroncmb" format="2">
  <unicode hex="030C"/>
  <anchor x="-396" y="999" name="_t.ringcmb_1"/>
  <outline>
    <contour>
      <point x="-396" y="1087" type="line"/>
      <point x="-724" y="1413" type="line"/>
      <point x="-580" y="1413" type="line"/>
      <point x="-396" y="1212" type="line"/>
      <point x="-210" y="1413" type="line"/>
      <point x="-68" y="1413" type="line"/>
    </contour>
  </outline>
</glyph>
<glyph name="commaturnedabovecmb" format="2">
  <unicode hex="0312"/>
  <anchor x="-380" y="999" name="_t.ringcmb_1"/>
  <outline>
    <contour>
      <point x="-241" y="1131" type="line"/>
      <point x="-428" y="1131" type="line"/>
      <point x="-212" y="1417" type="line"/>
      <point x="-125" y="1417" type="line"/>
    </contour>
  </outline>
</glyph>
<glyph name="horncmb" format="2">
  <unicode hex="031B"/>
  <anchor x="-237" y="999" name="_m.horncmb_3"/>
  <outline>
    <contour>
      <point x="-303" y="1003" type="line"/>
      <point x="-390" y="1003" type="line"/>
      <point x="-273" y="1413" type="line"/>
      <point x="-86" y="1413" type="line"/>
    </contour>
  </outline>
</glyph>
<glyph name="ogonekcmb" format="2">
  <unicode hex="0328"/>
  <anchor x="-198" y="0" name="_b.ogonekcmb_2"/>
  <outline>
    <contour>
      <point x="-287" y="-453" type="qcurve" smooth="yes"/>
      <point x="-338" y="-453"/>
      <point x="-427" y="-405"/>
      <point x="-482" y="-314"/>
      <point x="-482" y="-250" type="qcurve" smooth="yes"/>
      <point x="-482" y="-103"/>
      <point x="-311" y="-30" type="qcurve"/>
      <point x="-286" y="-16"/>
      <point x="-260" y="-6" type="qcurve"/>
      <point x="-160" y="0" type="line"/>
      <point x="-191" y="-13" type="line" smooth="yes"/>
      <point x="-273" y="-49"/>
      <point x="-393" y="-174"/>
      <point x="-393" y="-240" type="qcurve" smooth="yes"/>
      <point x="-393" y="-294"/>
      <point x="-336" y="-359"/>
      <point x="-297" y="-359" type="qcurve" smooth="yes"/>
      <point x="-209" y="-359"/>
      <point x="-166" y="-294" type="qcurve"/>
      <point x="-90" y="-347" type="line"/>
      <point x="-159" y="-453"/>
    </contour>
  </outline>
</glyph>
<glyph name="afii10051" format="2">
  <advance width="1646"/>
  <unicode hex="0402"/>
  <outline>
    <contour>
      <point x="1163" y="-16" type="qcurve" smooth="yes"/>
      <point x="1051" y="-16"/>
      <point x="894" y="44"/>
      <point x="843" y="109" type="qcurve"/>
      <point x="935" y="182" type="line"/>
      <point x="973" y="132"/>
      <point x="1087" y="84"/>
      <point x="1173" y="84" type="qcurve" smooth="yes"/>
      <point x="1209" y="84"/>
      <point x="1243" y="104" type="qcurve"/>
      <point x="1314" y="142"/>
      <point x="1361" y="244" type="qcurve" smooth="yes"/>
      <point x="1405" y="338"/>
      <point x="1405" y="475" type="qcurve" smooth="yes"/>
      <point x="1405" y="691"/>
      <point x="1327" y="789" type="qcurve" smooth="yes"/>
      <point x="1243" y="893"/>
      <point x="1044" y="893" type="qcurve" smooth="yes"/>
      <point x="944" y="893"/>
      <point x="842" y="849" type="qcurve"/>
      <point x="742" y="803"/>
      <point x="689" y="732" type="qcurve"/>
      <point x="689" y="0" type="line"/>
      <point x="574" y="0" type="line"/>
      <point x="574" y="1331" type="line"/>
      <point x="79" y="1331" type="line"/>
      <point x="79" y="1413" type="line"/>
      <point x="1182" y="1413" type="line"/>
      <point x="1182" y="1331" type="line"/>
      <point x="689" y="1331" type="line"/>
      <point x="689" y="846" type="line"/>
      <point x="839" y="999"/>
      <point x="1044" y="999" type="qcurve" smooth="yes"/>
      <point x="1289" y="999"/>
      <point x="1520" y="735"/>
      <point x="1520" y="468" type="qcurve" smooth="yes"/>
      <point x="1520" y="386"/>
      <point x="1470" y="212"/>
      <point x="1376" y="73"/>
      <point x="1245" y="-16"/>
    </contour>
  </outline>
</glyph>
<glyph name="afii10062" format="2">
  <advance width="1121"/>
  <unicode hex="040E"/>
  <outline>
    <contour>
      <point x="568" y="1563" type="qcurve" smooth="yes"/>
      <point x="493" y="1563"/>
      <point x="358" y="1626"/>
      <point x="273" y="1748"/>
      <point x="273" y="1829" type="qcurve"/>
      <point x="370" y="1829" type="line"/>
      <point x="370" y="1752"/>
      <point x="490" y="1648"/>
      <point x="568" y="1648" type="qcurve" smooth="yes"/>
      <point x="616" y="1648"/>
      <point x="707" y="1693"/>
      <point x="766" y="1776"/>
      <point x="766" y="1829" type="qcurve"/>
      <point x="863" y="1829" type="line"/>
      <point x="863" y="1751"/>
      <point x="780" y="1629"/>
      <point x="646" y="1563"/>
    </contour>
    <contour>
      <point x="409" y="0" type="qcurve"/>
      <point x="284" y="0" type="line"/>
      <point x="483" y="456" type="line"/>
      <point x="88" y="1413" type="line"/>
      <point x="216" y="1413" type="line"/>
      <point x="542" y="571" type="line"/>
      <point x="810" y="1199"/>
      <point x="899" y="1413" type="qcurve"/>
      <point x="1032" y="1413" type="line"/>
      <point x="720" y="708"/>
    </contour>
  </outline>
</glyph>
<glyph name="afii10145" format="2">
  <advance width="1444"/>
  <unicode hex="040F"/>
  <outline>
    <contour>
      <point x="777" y="-308" type="line"/>
      <point x="666" y="-308" type="line"/>
      <point x="666" y="0" type="line"/>
      <point x="228" y="0" type="line"/>
      <point x="228" y="1413" type="line"/>
      <point x="339" y="1413" type="line"/>
      <point x="339" y="92" type="line"/>
      <point x="1105" y="92" type="line"/>
      <point x="1105" y="1413" type="line"/>
      <point x="1216" y="1413" type="line"/>
      <point x="1216" y="0" type="line"/>
      <point x="777" y="0" type="line"/>
    </contour>
  </outline>
</glyph>
<glyph name="afii10018" format="2">
  <advance width="1238"/>
  <unicode hex="0411"/>
  <outline>
    <contour>
      <point x="656" y="0" type="qcurve" smooth="yes"/>
      <point x="228" y="0" type="line"/>
      <point x="228" y="1413" type="line"/>
      <point x="939" y="1413" type="line"/>
      <point x="939" y="1312" type="line"/>
      <point x="340" y="1312" type="line"/>
      <point x="340" y="769" type="line"/>
      <point x="689" y="769" type="line" smooth="yes"/>
      <point x="802" y="769"/>
      <point x="988" y="689"/>
      <point x="1101" y="516"/>
      <point x="1101" y="379" type="qcurve" smooth="yes"/>
      <point x="1101" y="202"/>
      <point x="861" y="0"/>
    </contour>
    <contour>
      <point x="660" y="103" type="line" smooth="yes"/>
      <point x="745" y="103"/>
      <point x="907" y="188"/>
      <point x="955" y="268" type="qcurve"/>
      <point x="984" y="320"/>
      <point x="984" y="384" type="qcurve" smooth="yes"/>
      <point x="984" y="474"/>
      <point x="895" y="597"/>
      <point x="751" y="659"/>
      <point x="668" y="659" type="qcurve" smooth="yes"/>
      <point x="340" y="659" type="line"/>
      <point x="340" y="103" type="line"/>
    </contour>
  </outline>
</glyph>
<glyph name="afii10020" format="2">
  <advance width="1074"/>
  <unicode hex="0413"/>
  <outline>
    <contour>
      <point x="340" y="0" type="line"/>
      <point x="228" y="0" type="line"/>
      <point x="228" y="1413" type="line"/>
      <point x="995" y="1413" type="line"/>
      <point x="995" y="1325" type="line"/>
      <point x="340" y="1325" type="line"/>
    </contour>
  </outline>
</glyph>
<glyph name="afii10021" format="2">
  <advance width="1462"/>
  <unicode hex="0414"/>
  <outline>
    <contour>
      <point x="1384" y="-233" type="line"/>
      <point x="1270" y="-233" type="line"/>
      <point x="1270" y="-10" type="line"/>
      <point x="191" y="-10" type="line"/>
      <point x="191" y="-233" type="line"/>
      <point x="79" y="-233" type="line"/>
      <point x="79" y="85" type="line"/>
      <point x="191" y="85" type="line"/>
      <point x="676" y="1413" type="line"/>
      <point x="787" y="1413" type="line"/>
      <point x="1271" y="85" type="line"/>
      <point x="1384" y="85" type="line"/>
    </contour>
    <contour>
      <point x="1152" y="85" type="line"/>
      <point x="733" y="1286" type="line"/>
      <point x="314" y="85" type="line"/>
    </contour>
  </outline>
</glyph>
<glyph name="afii10026" format="2">
  <advance width="1409"/>
  <unicode hex="0418"/>
  <outline>
    <contour>
      <point x="228" y="0" type="line"/>
      <point x="228" y="1413" type="line"/>
      <point x="345" y="1413" type="line"/>
      <point x="345" y="97" type="line"/>
      <point x="987" y="1413" type="line"/>
      <point x="1182" y="1413" type="line"/>
      <point x="1182" y="0" type="line"/>
      <point x="1065" y="0" type="line"/>
      <point x="1065" y="1318" type="line"/>
      <point x="428" y="0" type="line"/>
    </contour>
  </outline>
</glyph>
<glyph name="afii10028" format="2">
  <advance width="1237"/>
  <unicode hex="041A"/>
  <outline>
    <contour>
      <point x="1141" y="0" type="line"/>
      <point x="1009" y="0" type="line"/>
      <point x="793" y="601" type="line"/>
      <point x="785" y="620"/>
      <point x="731" y="677"/>
      <point x="652" y="724"/>
      <point x="607" y="724" type="qcurve" smooth="yes"/>
      <point x="340" y="724" type="line"/>
      <point x="340" y="0" type="line"/>
      <point x="228" y="0" type="line"/>
      <point x="228" y="1413" type="line"/>
      <point x="340" y="1413" type="line"/>
      <point x="340" y="811" type="line"/>
      <point x="520" y="811" type="line"/>
      <point x="722" y="1112"/>
      <point x="924" y="1413" type="qcurve"/>
      <point x="1060" y="1413" type="line"/>
      <point x="653" y="806" type="line"/>
      <point x="721" y="806"/>
      <point x="825" y="757"/>
      <point x="896" y="692"/>
      <point x="907" y="665" type="qcurve"/>
    </contour>
  </outline>
</glyph>
<glyph name="afii10029" format="2">
  <advance width="1321"/>
  <unicode hex="041B"/>
  <outline>
    <contour>
      <point x="718" y="1413" type="line"/>
      <point x="1233" y="0" type="line"/>
      <point x="1124" y="0" type="line"/>
      <point x="662" y="1296" type="line"/>
      <point x="201" y="0" type="line"/>
      <point x="88" y="0" type="line"/>
      <point x="607" y="1413" type="line"/>
    </contour>
  </outline>
</glyph>
<glyph name="afii10043" format="2">
  <advance width="1749"/>
  <unicode hex="0429"/>
  <outline>
    <contour>
      <point x="1642" y="-233" type="line"/>
      <point x="1532" y="-233" type="line"/>
      <point x="1532" y="0" type="line"/>
      <point x="228" y="0" type="line"/>
      <point x="228" y="1413" type="line"/>
      <point x="340" y="1413" type="line"/>
      <point x="340" y="92" type="line"/>
      <point x="805" y="92" type="line"/>
      <point x="805" y="1413" type="line"/>
      <point x="919" y="1413" type="line"/>
      <point x="919" y="92" type="line"/>
      <point x="1388" y="92" type="line"/>
      <point x="1388" y="1413" type="line"/>
      <point x="1501" y="1413" type="line"/>
      <point x="1501" y="92" type="line"/>
      <point x="1642" y="92" type="line"/>
    </contour>
  </outline>
</glyph>
<glyph name="afii10046" format="2">
  <advance width="1145"/>
  <unicode hex="042C"/>
  <outline>
    <contour>
      <point x="604" y="0" type="qcurve" smooth="yes"/>
      <point x="228" y="0" type="line"/>
      <point x="228" y="1413" type="line"/>
      <point x="343" y="1413" type="line"/>
      <point x="343" y="753" type="line"/>
      <point x="604" y="753" type="line" smooth="yes"/>
      <point x="735" y="753"/>
      <point x="929" y="668"/>
      <point x="1036" y="501"/>
      <point x="1036" y="380" type="qcurve" smooth="yes"/>
      <point x="1036" y="201"/>
      <point x="806" y="0"/>
    </contour>
    <contour>
      <point x="604" y="97" type="line" smooth="yes"/>
      <point x="751" y="97"/>
      <point x="925" y="244"/>
      <point x="925" y="380" type="qcurve" smooth="yes"/>
      <point x="925" y="519"/>
      <point x="749" y="657"/>
      <point x="604" y="657" type="qcurve" smooth="yes"/>
      <point x="343" y="657" type="line"/>
      <point x="343" y="97" type="line"/>
    </contour>
  </outline>
</glyph>
<glyph name="afii10066" format="2">
  <advance width="1105"/>
  <unicode hex="0431"/>
  <outline>
    <contour>
      <point x="566" y="-20" type="qcurve" smooth="yes"/>
      <point x="439" y="-20"/>
      <point x="252" y="113"/>
      <point x="149" y="330"/>
      <point x="149" y="458" type="qcurve" smooth="yes"/>
      <point x="149" y="827"/>
      <point x="156" y="974"/>
      <point x="175" y="1034" type="qcurve" smooth="yes"/>
      <point x="220" y="1173"/>
      <point x="376" y="1254" type="qcurve" smooth="yes"/>
      <point x="474" y="1304"/>
      <point x="768" y="1433" type="qcurve"/>
      <point x="768" y="1333" type="line"/>
      <point x="542" y="1232" type="line"/>
      <point x="357" y="1146"/>
      <point x="301" y="1057" type="qcurve" smooth="yes"/>
      <point x="270" y="1006"/>
      <point x="248" y="874"/>
      <point x="248" y="775" type="qcurve"/>
      <point x="286" y="828"/>
      <point x="387" y="906"/>
      <point x="514" y="956"/>
      <point x="587" y="956" type="qcurve" smooth="yes"/>
      <point x="715" y="956"/>
      <point x="901" y="820"/>
      <point x="1003" y="595"/>
      <point x="1003" y="462" type="qcurve" smooth="yes"/>
      <point x="1003" y="329"/>
      <point x="891" y="111"/>
      <point x="694" y="-20"/>
    </contour>
    <contour>
      <point x="566" y="62" type="qcurve" smooth="yes"/>
      <point x="679" y="62"/>
      <point x="820" y="172"/>
      <point x="884" y="355"/>
      <point x="884" y="467" type="qcurve" smooth="yes"/>
      <point x="884" y="633"/>
      <point x="809" y="740" type="qcurve" smooth="yes"/>
      <point x="732" y="851"/>
      <point x="566" y="851" type="qcurve" smooth="yes"/>
      <point x="450" y="851"/>
      <point x="321" y="758"/>
      <point x="251" y="574"/>
      <point x="251" y="467" type="qcurve" smooth="yes"/>
      <point x="251" y="301"/>
      <point x="320" y="190" type="qcurve"/>
      <point x="402" y="62"/>
    </contour>
  </outline>
</glyph>
<glyph name="afii10072" format="2">
  <advance width="1397"/>
  <unicode hex="0436"/>
  <outline>
    <contour>
      <point x="1332" y="0" type="line"/>
      <point x="1212" y="0" type="line"/>
      <point x="1123" y="258"/>
      <point x="1086" y="370" type="qcurve" smooth="yes"/>
      <point x="1060" y="450"/>
      <point x="977" y="520"/>
      <point x="911" y="520" type="qcurve" smooth="yes"/>
      <point x="753" y="520" type="line"/>
      <point x="753" y="0" type="line"/>
      <point x="646" y="0" type="line"/>
      <point x="646" y="520" type="line"/>
      <point x="487" y="520" type="line" smooth="yes"/>
      <point x="358" y="520"/>
      <point x="313" y="370" type="qcurve"/>
      <point x="187" y="0" type="line"/>
      <point x="65" y="0" type="line"/>
      <point x="223" y="425" type="line"/>
      <point x="277" y="586"/>
      <point x="376" y="586" type="qcurve"/>
      <point x="134" y="997" type="line"/>
      <point x="270" y="997" type="line"/>
      <point x="486" y="620" type="line"/>
      <point x="646" y="620" type="line"/>
      <point x="646" y="1413" type="line"/>
      <point x="753" y="1413" type="line"/>
      <point x="753" y="620" type="line"/>
      <point x="911" y="620" type="line"/>
      <point x="1129" y="997" type="line"/>
      <point x="1265" y="997" type="line"/>
      <point x="1024" y="586" type="line"/>
      <point x="1118" y="586"/>
      <point x="1175" y="425" type="qcurve"/>
    </contour>
  </outline>
</glyph>
<glyph name="afii10076" format="2">
  <advance width="936"/>
  <unicode hex="043A"/>
  <outline>
    <contour>
      <point x="870" y="0" type="line"/>
      <point x="748" y="0" type="line"/>
      <point x="655" y="267"/>
      <point x="621" y="372" type="qcurve" smooth="yes"/>
      <point x="595" y="450"/>
      <point x="513" y="520"/>
      <point x="447" y="520" type="qcurve" smooth="yes"/>
      <point x="289" y="520" type="line"/>
      <point x="289" y="0" type="line"/>
      <point x="182" y="0" type="line"/>
      <point x="182" y="1413" type="line"/>
      <point x="289" y="1413" type="line"/>
      <point x="289" y="620" type="line"/>
      <point x="447" y="620" type="line"/>
      <point x="495" y="704"/>
      <point x="544" y="786" type="qcurve"/>
      <point x="666" y="997" type="line"/>
      <point x="801" y="997" type="line"/>
      <point x="560" y="586" type="line"/>
      <point x="653" y="586"/>
      <point x="713" y="425" type="qcurve" smooth="yes"/>
    </contour>
  </outline>
</glyph>
<glyph name="afii10078" format="2">
  <advance width="1368"/>
  <unicode hex="043C"/>
  <outline>
    <contour>
      <point x="1186" y="0" type="line"/>
      <point x="1075" y="0" type="line"/>
      <point x="1075" y="876" type="line"/>
      <point x="727" y="0" type="line"/>
      <point x="641" y="0" type="line"/>
      <point x="293" y="873" type="line"/>
      <point x="293" y="0" type="line"/>
      <point x="182" y="0" type="line"/>
      <point x="182" y="997" type="line"/>
      <point x="346" y="997" type="line"/>
      <point x="685" y="130" type="line"/>
      <point x="1023" y="994" type="line"/>
      <point x="1186" y="994" type="line"/>
    </contour>
  </outline>
</glyph>
<glyph name="afii10081" format="2">
  <advance width="1106"/>
  <unicode hex="043F"/>
  <outline>
    <contour>
      <point x="945" y="0" type="line"/>
      <point x="841" y="0" type="line"/>
      <point x="841" y="599" type="line" smooth="yes"/>
      <point x="841" y="677"/>
      <point x="798" y="821"/>
      <point x="696" y="912"/>
      <point x="607" y="912" type="qcurve" smooth="yes"/>
      <point x="520" y="912"/>
      <point x="374" y="819"/>
      <point x="285" y="664"/>
      <point x="285" y="574" type="qcurve" smooth="yes"/>
      <point x="285" y="0" type="line"/>
      <point x="182" y="0" type="line"/>
      <point x="182" y="997" type="line"/>
      <point x="285" y="997" type="line"/>
      <point x="285" y="811" type="line"/>
      <point x="338" y="906"/>
      <point x="512" y="1014"/>
      <point x="611" y="1014" type="qcurve" smooth="yes"/>
      <point x="726" y="1014"/>
      <point x="875" y="910"/>
      <point x="945" y="729"/>
      <point x="945" y="613" type="qcurve" smooth="yes"/>
    </contour>
  </outline>
</glyph>
<glyph name="afii10086" format="2">
  <advance width="1361"/>
  <unicode hex="0444"/>
  <outline>
    <contour>
      <point x="735" y="-432" type="line"/>
      <point x="627" y="-432" type="line"/>
      <point x="627" y="-13" type="line"/>
      <point x="594" y="-20"/>
      <point x="555" y="-20" type="qcurve" smooth="yes"/>
      <point x="421" y="-20"/>
      <point x="217" y="119"/>
      <point x="102" y="352"/>
      <point x="102" y="495" type="qcurve" smooth="yes"/>
      <point x="102" y="633"/>
      <point x="215" y="868"/>
      <point x="418" y="1010"/>
      <point x="555" y="1010" type="qcurve" smooth="yes"/>
      <point x="590" y="1010"/>
      <point x="627" y="1004" type="qcurve"/>
      <point x="627" y="1413" type="line"/>
      <point x="735" y="1413" type="line"/>
      <point x="735" y="1004" type="line"/>
      <point x="768" y="1010"/>
      <point x="804" y="1010" type="qcurve" smooth="yes"/>
      <point x="936" y="1010"/>
      <point x="1141" y="873"/>
      <point x="1259" y="639"/>
      <point x="1259" y="495" type="qcurve" smooth="yes"/>
      <point x="1259" y="353"/>
      <point x="1145" y="120"/>
      <point x="940" y="-20"/>
      <point x="804" y="-20" type="qcurve" smooth="yes"/>
      <point x="768" y="-20"/>
      <point x="735" y="-13" type="qcurve"/>
    </contour>
    <contour>
      <point x="555" y="74" type="qcurve" smooth="yes"/>
      <point x="601" y="74"/>
      <point x="627" y="79" type="qcurve"/>
      <point x="627" y="908" type="line"/>
      <point x="592" y="915"/>
      <point x="555" y="915" type="qcurve" smooth="yes"/>
      <point x="386" y="915"/>
      <point x="300" y="787" type="qcurve"/>
      <point x="226" y="674"/>
      <point x="226" y="495" type="qcurve" smooth="yes"/>
      <point x="226" y="384"/>
      <point x="290" y="193"/>
      <point x="435" y="74"/>
    </contour>
    <contour>
      <point x="804" y="74" type="qcurve" smooth="yes"/>
      <point x="960" y="74"/>
      <point x="1136" y="296"/>
      <point x="1136" y="495" type="qcurve" smooth="yes"/>
      <point x="1136" y="670"/>
      <point x="1063" y="784" type="qcurve"/>
      <point x="976" y="915"/>
      <point x="804" y="915" type="qcurve" smooth="yes"/>
      <point x="768" y="915"/>
      <point x="735" y="908" type="qcurve"/>
      <point x="735" y="79" type="line"/>
      <point x="758" y="74"/>
    </contour>
  </outline>
</glyph>
<glyph name="afii10088" format="2">
  <advance width="1132"/>
  <unicode hex="0446"/>
  <outline>
    <contour>
      <point x="1038" y="-308" type="line"/>
      <point x="965" y="-308" type="line"/>
      <point x="965" y="-23" type="line"/>
      <point x="903" y="-23"/>
      <point x="860" y="37" type="qcurve" smooth="yes"/>
      <point x="820" y="93"/>
      <point x="820" y="175" type="qcurve" smooth="yes"/>
      <point x="820" y="203" type="line"/>
      <point x="787" y="111"/>
      <point x="703" y="50" type="qcurve" smooth="yes"/>
      <point x="602" y="-23"/>
      <point x="492" y="-23" type="qcurve" smooth="yes"/>
      <point x="320" y="-23"/>
      <point x="235" y="100" type="qcurve" smooth="yes"/>
      <point x="158" y="210"/>
      <point x="158" y="401" type="qcurve" smooth="yes"/>
      <point x="158" y="997" type="line"/>
      <point x="264" y="997" type="line"/>
      <point x="264" y="393" type="line" smooth="yes"/>
      <point x="264" y="245"/>
      <point x="314" y="160" type="qcurve" smooth="yes"/>
      <point x="374" y="58"/>
      <point x="496" y="58" type="qcurve" smooth="yes"/>
      <point x="562" y="58"/>
      <point x="679" y="117"/>
      <point x="767" y="216"/>
      <point x="820" y="347"/>
      <point x="820" y="418" type="qcurve" smooth="yes"/>
      <point x="820" y="997" type="line"/>
      <point x="926" y="997" type="line"/>
      <point x="926" y="198" type="line" smooth="yes"/>
      <point x="926" y="121"/>
      <point x="1010" y="41"/>
      <point x="1069" y="41" type="qcurve"/>
    </contour>
  </outline>
</glyph>
<glyph name="afii10091" format="2">
  <advance width="1711"/>
  <unicode hex="0449"/>
  <outline>
    <contour>
      <point x="1619" y="-308" type="line"/>
      <point x="1546" y="-308" type="line"/>
      <point x="1546" y="-23" type="line"/>
      <point x="1483" y="-23"/>
      <point x="1440" y="41" type="qcurve" smooth="yes"/>
      <point x="1401" y="100"/>
      <point x="1401" y="182" type="qcurve" smooth="yes"/>
      <point x="1401" y="214" type="line"/>
      <point x="1381" y="147"/>
      <point x="1327" y="69"/>
      <point x="1254" y="13"/>
      <point x="1166" y="-18"/>
      <point x="1116" y="-18" type="qcurve" smooth="yes"/>
      <point x="1002" y="-18"/>
      <point x="836" y="93"/>
      <point x="799" y="212" type="qcurve"/>
      <point x="709" y="-16"/>
      <point x="498" y="-16" type="qcurve" smooth="yes"/>
      <point x="328" y="-16"/>
      <point x="241" y="96" type="qcurve" smooth="yes"/>
      <point x="161" y="199"/>
      <point x="161" y="387" type="qcurve" smooth="yes"/>
      <point x="161" y="997" type="line"/>
      <point x="268" y="997" type="line"/>
      <point x="268" y="399" type="line" smooth="yes"/>
      <point x="268" y="254"/>
      <point x="319" y="166" type="qcurve" smooth="yes"/>
      <point x="379" y="62"/>
      <point x="502" y="62" type="qcurve" smooth="yes"/>
      <point x="626" y="62"/>
      <point x="782" y="275"/>
      <point x="782" y="422" type="qcurve" smooth="yes"/>
      <point x="782" y="997" type="line"/>
      <point x="887" y="997" type="line"/>
      <point x="887" y="395" type="line" smooth="yes"/>
      <point x="887" y="247"/>
      <point x="938" y="162" type="qcurve" smooth="yes"/>
      <point x="998" y="62"/>
      <point x="1120" y="62" type="qcurve" smooth="yes"/>
      <point x="1243" y="62"/>
      <point x="1400" y="275"/>
      <point x="1400" y="422" type="qcurve" smooth="yes"/>
      <point x="1400" y="997" type="line"/>
      <point x="1507" y="997" type="line"/>
      <point x="1507" y="198" type="line" smooth="yes"/>
      <point x="1507" y="124"/>
      <point x="1549" y="81" type="qcurve" smooth="yes"/>
      <point x="1588" y="41"/>
      <point x="1650" y="41" type="qcurve"/>
    </contour>
  </outline>
</glyph>
<glyph name="afii10097" format="2">
  <advance width="951"/>
  <unicode hex="044F"/>
  <outline>
    <contour>
      <point x="768" y="0" type="line"/>
      <point x="661" y="0" type="line"/>
      <point x="661" y="482" type="line"/>
      <point x="497" y="482" type="line" smooth="yes"/>
      <point x="367" y="482"/>
      <point x="321" y="329" type="qcurve"/>
      <point x="303" y="275"/>
      <point x="208" y="0" type="qcurve"/>
      <point x="90" y="0" type="line"/>
      <point x="229" y="360" type="line"/>
      <point x="289" y="520"/>
      <point x="421" y="520" type="qcurve"/>
      <point x="255" y="542"/>
      <point x="136" y="657"/>
      <point x="136" y="773" type="qcurve" smooth="yes"/>
      <point x="136" y="826"/>
      <point x="189" y="929"/>
      <point x="314" y="997"/>
      <point x="421" y="997" type="qcurve" smooth="yes"/>
      <point x="768" y="997" type="line"/>
    </contour>
    <contour>
      <point x="661" y="583" type="line"/>
      <point x="661" y="922" type="line"/>
      <point x="412" y="922" type="line" smooth="yes"/>
      <point x="326" y="922"/>
      <point x="242" y="837"/>
      <point x="242" y="769" type="qcurve" smooth="yes"/>
      <point x="242" y="671"/>
      <point x="360" y="583"/>
      <point x="481" y="583" type="qcurve" smooth="yes"/>
    </contour>
  </outline>
</glyph>
<glyph name="afii10099" format="2">
  <advance width="1110"/>
  <unicode hex="0452"/>
  <outline>
    <contour>
      <point x="614" y="-466" type="qcurve" smooth="yes"/>
      <point x="505" y="-466"/>
      <point x="421" y="-417" type="qcurve" smooth="yes"/>
      <point x="343" y="-372"/>
      <point x="248" y="-269" type="qcurve"/>
      <point x="334" y="-217" type="line"/>
      <point x="375" y="-265" type="line" smooth="yes"/>
      <point x="434" y="-334"/>
      <point x="489" y="-358" type="qcurve"/>
      <point x="533" y="-381"/>
      <point x="598" y="-381" type="qcurve" smooth="yes"/>
      <point x="678" y="-381"/>
      <point x="777" y="-325"/>
      <point x="830" y="-221"/>
      <point x="844" y="-71"/>
      <point x="844" y="19" type="qcurve" smooth="yes"/>
      <point x="844" y="597" type="line" smooth="yes"/>
      <point x="844" y="738"/>
      <point x="793" y="821" type="qcurve"/>
      <point x="731" y="915"/>
      <point x="608" y="915" type="qcurve" smooth="yes"/>
      <point x="540" y="915"/>
      <point x="423" y="855"/>
      <point x="336" y="755"/>
      <point x="285" y="622"/>
      <point x="285" y="549" type="qcurve" smooth="yes"/>
      <point x="285" y="0" type="line"/>
      <point x="183" y="0" type="line"/>
      <point x="183" y="1159" type="line"/>
      <point x="-15" y="1159" type="line"/>
      <point x="-15" y="1249" type="line"/>
      <point x="183" y="1249" type="line"/>
      <point x="183" y="1413" type="line"/>
      <point x="285" y="1413" type="line"/>
      <point x="285" y="1249" type="line"/>
      <point x="615" y="1249" type="line"/>
      <point x="615" y="1159" type="line"/>
      <point x="285" y="1159" type="line"/>
      <point x="285" y="803" type="line"/>
      <point x="335" y="897"/>
      <point x="527" y="1011"/>
      <point x="627" y="1011" type="qcurve" smooth="yes"/>
      <point x="786" y="1011"/>
      <point x="873" y="900" type="qcurve" smooth="yes"/>
      <point x="951" y="800"/>
      <point x="951" y="625" type="qcurve" smooth="yes"/>
      <point x="951" y="-11" type="line" smooth="yes"/>
      <point x="951" y="-218"/>
      <point x="872" y="-337" type="qcurve" smooth="yes"/>
      <point x="786" y="-466"/>
    </contour>
  </outline>
</glyph>
<glyph name="afii10103" format="2">
  <advance width="478"/>
  <unicode hex="0456"/>
  <outline>
    <contour>
      <point x="308" y="1242" type="line"/>
      <point x="171" y="1242" type="line"/>
      <point x="171" y="1413" type="line"/>
      <point x="308" y="1413" type="line"/>
    </contour>
    <contour>
      <point x="291" y="0" type="line"/>
      <point x="184" y="0" type="line"/>
      <point x="184" y="997" type="line"/>
      <point x="291" y="997" type="line"/>
    </contour>
  </outline>
</glyph>
<glyph name="afii10106" format="2">
  <advance width="1548"/>
  <unicode hex="0459"/>
  <outline>
    <contour>
      <point x="758" y="0" type="line"/>
      <point x="758" y="911" type="line"/>
      <point x="394" y="911" type="line"/>
      <point x="394" y="617" type="line" smooth="yes"/>
      <point x="394" y="385"/>
      <point x="371" y="251" type="qcurve" smooth="yes"/>
      <point x="328" y="10"/>
      <point x="237" y="-15" type="qcurve"/>
      <point x="213" y="-23"/>
      <point x="192" y="-23" type="qcurve" smooth="yes"/>
      <point x="160" y="-23"/>
      <point x="64" y="1"/>
      <point x="39" y="14" type="qcurve"/>
      <point x="76" y="101" type="line"/>
      <point x="83" y="97" type="line"/>
      <point x="130" y="65"/>
      <point x="164" y="65" type="qcurve" smooth="yes"/>
      <point x="219" y="65"/>
      <point x="294" y="308"/>
      <point x="294" y="622" type="qcurve" smooth="yes"/>
      <point x="294" y="997" type="line"/>
      <point x="863" y="997" type="line"/>
      <point x="863" y="646" type="line"/>
      <point x="1069" y="646" type="line" smooth="yes"/>
      <point x="1244" y="646"/>
      <point x="1331" y="583" type="qcurve"/>
      <point x="1434" y="513"/>
      <point x="1434" y="309" type="qcurve"/>
      <point x="1432" y="133"/>
      <point x="1331" y="63" type="qcurve"/>
      <point x="1244" y="0"/>
      <point x="1069" y="0" type="qcurve" smooth="yes"/>
    </contour>
    <contour>
      <point x="862" y="566" type="line"/>
      <point x="862" y="80" type="line"/>
      <point x="1100" y="80" type="line" smooth="yes"/>
      <point x="1174" y="80"/>
      <point x="1284" y="128"/>
      <point x="1314" y="185" type="qcurve" smooth="yes"/>
      <point x="1342" y="237"/>
      <point x="1343" y="323" type="qcurve"/>
      <point x="1343" y="409"/>
      <point x="1314" y="462" type="qcurve" smooth="yes"/>
      <point x="1284" y="518"/>
      <point x="1174" y="566"/>
      <point x="1100" y="566" type="qcurve" smooth="yes"/>
    </contour>
  </outline>
</glyph>
<glyph name="afii10107" format="2">
  <advance width="1631"/>
  <unicode hex="045A"/>
  <outline>
    <contour>
      <point x="841" y="997" type="line"/>
      <point x="943" y="997" type="line"/>
      <point x="943" y="646" type="line"/>
      <point x="1151" y="646" type="line" smooth="yes"/>
      <point x="1326" y="646"/>
      <point x="1413" y="583" type="qcurve"/>
      <point x="1516" y="513"/>
      <point x="1516" y="309" type="qcurve"/>
      <point x="1514" y="133"/>
      <point x="1413" y="63" type="qcurve"/>
      <point x="1326" y="0"/>
      <point x="1151" y="0" type="qcurve" smooth="yes"/>
      <point x="841" y="0" type="line"/>
      <point x="841" y="504" type="line"/>
      <point x="286" y="504" type="line"/>
      <point x="286" y="0" type="line"/>
      <point x="182" y="0" type="line"/>
      <point x="182" y="997" type="line"/>
      <point x="286" y="997" type="line"/>
      <point x="286" y="591" type="line"/>
      <point x="841" y="591" type="line"/>
    </contour>
    <contour>
      <point x="1425" y="323" type="qcurve"/>
      <point x="1425" y="409"/>
      <point x="1396" y="462" type="qcurve" smooth="yes"/>
      <point x="1366" y="518"/>
      <point x="1256" y="566"/>
      <point x="1182" y="566" type="qcurve" smooth="yes"/>
      <point x="944" y="566" type="line"/>
      <point x="944" y="80" type="line"/>
      <point x="1182" y="80" type="line" smooth="yes"/>
      <point x="1256" y="80"/>
      <point x="1366" y="128"/>
      <point x="1396" y="185" type="qcurve" smooth="yes"/>
      <point x="1424" y="237"/>
    </contour>
  </outline>
</glyph>
<glyph name="uni045D" format="2">
  <advance width="1124"/>
  <unicode hex="045D"/>
  <outline>
    <contour>
      <point x="621" y="1142" type="line"/>
      <point x="501" y="1142" type="line"/>
      <point x="289" y="1413" type="line"/>
      <point x="418" y="1413" type="line"/>
    </contour>
    <contour>
      <point x="513" y="-23" type="qcurve" smooth="yes"/>
      <point x="397" y="-23"/>
      <point x="251" y="84"/>
      <point x="182" y="276"/>
      <point x="182" y="401" type="qcurve" smooth="yes"/>
      <point x="182" y="997" type="line"/>
      <point x="285" y="997" type="line"/>
      <point x="285" y="393" type="line" smooth="yes"/>
      <point x="285" y="253"/>
      <point x="331" y="166" type="qcurve" smooth="yes"/>
      <point x="388" y="58"/>
      <point x="516" y="58" type="qcurve" smooth="yes"/>
      <point x="603" y="58"/>
      <point x="751" y="159"/>
      <point x="841" y="322"/>
      <point x="841" y="418" type="qcurve" smooth="yes"/>
      <point x="841" y="997" type="line"/>
      <point x="943" y="997" type="line"/>
      <point x="943" y="0" type="line"/>
      <point x="841" y="0" type="line"/>
      <point x="841" y="204" type="line"/>
      <point x="820" y="144"/>
      <point x="732" y="48"/>
      <point x="596" y="-23"/>
    </contour>
  </outline>
</glyph>
<glyph name="afii10193" format="2">
  <advance width="1124"/>
  <unicode hex="045F"/>
  <outline>
    <contour>
      <point x="613" y="-308" type="line"/>
      <point x="510" y="-308" type="line"/>
      <point x="510" y="0" type="line"/>
      <point x="182" y="0" type="line"/>
      <point x="182" y="997" type="line"/>
      <point x="285" y="997" type="line"/>
      <point x="285" y="88" type="line"/>
      <point x="841" y="88" type="line"/>
      <point x="841" y="997" type="line"/>
      <point x="943" y="997" type="line"/>
      <point x="943" y="0" type="line"/>
      <point x="613" y="0" type="line"/>
    </contour>
  </outline>
</glyph>
<glyph name="afii10146" format="2">
  <advance width="1372"/>
  <unicode hex="0462"/>
  <outline>
    <contour>
      <point x="831" y="0" type="qcurve" smooth="yes"/>
      <point x="453" y="0" type="line"/>
      <point x="453" y="1124" type="line"/>
      <point x="84" y="1124" type="line"/>
      <point x="84" y="1214" type="line"/>
      <point x="453" y="1214" type="line"/>
      <point x="453" y="1413" type="line"/>
      <point x="568" y="1413" type="line"/>
      <point x="568" y="1214" type="line"/>
      <point x="941" y="1214" type="line"/>
      <point x="941" y="1124" type="line"/>
      <point x="568" y="1124" type="line"/>
      <point x="568" y="753" type="line"/>
      <point x="831" y="753" type="line" smooth="yes"/>
      <point x="959" y="753"/>
      <point x="1152" y="669"/>
      <point x="1261" y="502"/>
      <point x="1261" y="380" type="qcurve" smooth="yes"/>
      <point x="1261" y="257"/>
      <point x="1153" y="88"/>
      <point x="960" y="0"/>
    </contour>
    <contour>
      <point x="831" y="97" type="line" smooth="yes"/>
      <point x="983" y="97"/>
      <point x="1151" y="247"/>
      <point x="1151" y="380" type="qcurve" smooth="yes"/>
      <point x="1151" y="513"/>
      <point x="980" y="657"/>
      <point x="831" y="657" type="qcurve" smooth="yes"/>
      <point x="568" y="657" type="line"/>
      <point x="568" y="97" type="line"/>
    </contour>
  </outline>
</glyph>
<glyph name="afii10194" format="2">
  <advance width="972"/>
  <unicode hex="0463"/>
  <outline>
    <contour>
      <point x="184" y="1159" type="line"/>
      <point x="-21" y="1159" type="line"/>
      <point x="-21" y="1249" type="line"/>
      <point x="184" y="1249" type="line"/>
      <point x="184" y="1413" type="line"/>
      <point x="285" y="1413" type="line"/>
      <point x="285" y="1249" type="line"/>
      <point x="490" y="1249" type="line"/>
      <point x="490" y="1159" type="line"/>
      <point x="285" y="1159" type="line"/>
      <point x="285" y="646" type="line"/>
      <point x="494" y="646" type="line" smooth="yes"/>
      <point x="669" y="646"/>
      <point x="756" y="583" type="qcurve"/>
      <point x="859" y="513"/>
      <point x="859" y="309" type="qcurve"/>
      <point x="857" y="133"/>
      <point x="756" y="63" type="qcurve"/>
      <point x="669" y="0"/>
      <point x="494" y="0" type="qcurve" smooth="yes"/>
      <point x="184" y="0" type="line"/>
    </contour>
    <contour>
      <point x="766" y="323" type="qcurve"/>
      <point x="766" y="409"/>
      <point x="737" y="462" type="qcurve" smooth="yes"/>
      <point x="707" y="518"/>
      <point x="597" y="566"/>
      <point x="523" y="566" type="qcurve" smooth="yes"/>
      <point x="285" y="566" type="line"/>
      <point x="285" y="80" type="line"/>
      <point x="523" y="80" type="line" smooth="yes"/>
      <point x="597" y="80"/>
      <point x="707" y="128"/>
      <point x="737" y="185" type="qcurve" smooth="yes"/>
      <point x="765" y="237"/>
    </contour>
  </outline>
</glyph>
<glyph name="Eiotifiedcyrillic" format="2">
  <advance width="1772"/>
  <unicode hex="0464"/>
  <outline>
    <contour>
      <point x="1110" y="-20" type="qcurve" smooth="yes"/>
      <point x="913" y="-20"/>
      <point x="644" y="155"/>
      <point x="501" y="460"/>
      <point x="493" y="662" type="qcurve"/>
      <point x="340" y="662" type="line"/>
      <point x="340" y="0" type="line"/>
      <point x="228" y="0" type="line"/>
      <point x="228" y="1413" type="line"/>
      <point x="340" y="1413" type="line"/>
      <point x="340" y="751" type="line"/>
      <point x="493" y="751" type="line"/>
      <point x="504" y="1049"/>
      <point x="657" y="1239" type="qcurve"/>
      <point x="818" y="1436"/>
      <point x="1108" y="1436" type="qcurve" smooth="yes"/>
      <point x="1313" y="1436"/>
      <point x="1589" y="1243"/>
      <point x="1660" y="1075" type="qcurve"/>
      <point x="1610" y="1052"/>
      <point x="1559" y="1032" type="qcurve"/>
      <point x="1511" y="1186"/>
      <point x="1270" y="1334"/>
      <point x="1106" y="1334" type="qcurve" smooth="yes"/>
      <point x="866" y="1334"/>
      <point x="736" y="1163" type="qcurve" smooth="yes"/>
      <point x="616" y="1007"/>
      <point x="608" y="751" type="qcurve"/>
      <point x="1266" y="751" type="line"/>
      <point x="1266" y="662" type="line"/>
      <point x="608" y="662" type="line"/>
      <point x="613" y="409"/>
      <point x="730" y="253" type="qcurve" smooth="yes"/>
      <point x="860" y="81"/>
      <point x="1110" y="81" type="qcurve" smooth="yes"/>
      <point x="1447" y="81"/>
      <point x="1558" y="386" type="qcurve"/>
      <point x="1587" y="375"/>
      <point x="1616" y="362" type="qcurve" smooth="yes"/>
      <point x="1640" y="351"/>
      <point x="1663" y="342" type="qcurve"/>
      <point x="1582" y="157"/>
      <point x="1295" y="-20"/>
    </contour>
  </outline>
</glyph>
<glyph name="Yuslittleiotifiedcyrillic" format="2">
  <advance width="1637"/>
  <unicode hex="0468"/>
  <outline>
    <contour>
      <point x="1549" y="0" type="line"/>
      <point x="1428" y="0" type="line"/>
      <point x="1170" y="730" type="line"/>
      <point x="1045" y="730" type="line"/>
      <point x="1045" y="0" type="line"/>
      <point x="934" y="0" type="line"/>
      <point x="934" y="730" type="line"/>
      <point x="811" y="730" type="line"/>
      <point x="555" y="0" type="line"/>
      <point x="431" y="0" type="line"/>
      <point x="672" y="662" type="line"/>
      <point x="340" y="662" type="line"/>
      <point x="340" y="0" type="line"/>
      <point x="228" y="0" type="line"/>
      <point x="228" y="1413" type="line"/>
      <point x="340" y="1413" type="line"/>
      <point x="340" y="751" type="line"/>
      <point x="705" y="751" type="line"/>
      <point x="945" y="1413" type="line"/>
      <point x="1036" y="1413" type="line"/>
    </contour>
    <contour>
      <point x="1139" y="825" type="line"/>
      <point x="993" y="1251" type="line"/>
      <point x="843" y="825" type="line"/>
    </contour>
  </outline>
</glyph>
<glyph name="Yusbigiotifiedcyrillic" format="2">
  <advance width="1857"/>
  <unicode hex="046C"/>
  <outline>
    <contour>
      <point x="1762" y="0" type="line"/>
      <point x="1647" y="0" type="line"/>
      <point x="1472" y="409"/>
      <point x="1415" y="554" type="qcurve"/>
      <point x="1402" y="590"/>
      <point x="1335" y="639"/>
      <point x="1287" y="639" type="qcurve" smooth="yes"/>
      <point x="1159" y="639" type="line"/>
      <point x="1159" y="0" type="line"/>
      <point x="1044" y="0" type="line"/>
      <point x="1044" y="639" type="line"/>
      <point x="917" y="639" type="line" smooth="yes"/>
      <point x="875" y="639"/>
      <point x="816" y="605"/>
      <point x="793" y="570"/>
      <point x="773" y="525" type="qcurve"/>
      <point x="556" y="0" type="line"/>
      <point x="434" y="0" type="line"/>
      <point x="692" y="605" type="line" smooth="yes"/>
      <point x="702" y="629"/>
      <point x="726" y="657" type="qcurve"/>
      <point x="340" y="657" type="line"/>
      <point x="340" y="0" type="line"/>
      <point x="228" y="0" type="line"/>
      <point x="228" y="1413" type="line"/>
      <point x="340" y="1413" type="line"/>
      <point x="340" y="742" type="line"/>
      <point x="1009" y="742" type="line"/>
      <point x="586" y="1323" type="line"/>
      <point x="586" y="1413" type="line"/>
      <point x="1614" y="1413" type="line"/>
      <point x="1614" y="1323" type="line"/>
      <point x="1187" y="739" type="line"/>
      <point x="1338" y="739"/>
      <point x="1483" y="674"/>
      <point x="1522" y="579" type="qcurve" smooth="yes"/>
    </contour>
    <contour>
      <point x="1098" y="791" type="qcurve"/>
      <point x="1493" y="1325" type="line"/>
      <point x="707" y="1325" type="line"/>
      <point x="810" y="1185"/>
      <point x="903" y="1057" type="qcurve" smooth="yes"/>
      <point x="996" y="929"/>
    </contour>
  </outline>
</glyph>
<glyph name="afii10195" format="2">
  <advance width="1111"/>
  <unicode hex="0473"/>
  <outline>
    <contour>
      <point x="555" y="-20" type="qcurve" smooth="yes"/>
      <point x="421" y="-20"/>
      <point x="217" y="120"/>
      <point x="102" y="353"/>
      <point x="102" y="495" type="qcurve" smooth="yes"/>
      <point x="102" y="633"/>
      <point x="215" y="868"/>
      <point x="418" y="1010"/>
      <point x="555" y="1010" type="qcurve" smooth="yes"/>
      <point x="684" y="1010"/>
      <point x="889" y="875"/>
      <point x="1009" y="642"/>
      <point x="1009" y="495" type="qcurve" smooth="yes"/>
      <point x="1009" y="352"/>
      <point x="892" y="119"/>
      <point x="688" y="-20"/>
    </contour>
    <contour>
      <point x="883" y="558" type="line"/>
      <point x="874" y="666"/>
      <point x="797" y="824"/>
      <point x="657" y="915"/>
      <point x="555" y="915" type="qcurve" smooth="yes"/>
      <point x="453" y="915"/>
      <point x="313" y="824"/>
      <point x="234" y="665"/>
      <point x="224" y="558" type="qcurve"/>
    </contour>
    <contour>
      <point x="555" y="74" type="qcurve" smooth="yes"/>
      <point x="665" y="74"/>
      <point x="809" y="179"/>
      <point x="882" y="361"/>
      <point x="884" y="481" type="qcurve"/>
      <point x="222" y="481" type="line"/>
      <point x="224" y="308"/>
      <point x="297" y="199" type="qcurve" smooth="yes"/>
      <point x="382" y="74"/>
    </contour>
  </outline>
</glyph>
<glyph name="afii10148" format="2">
  <advance width="1267"/>
  <unicode hex="0474"/>
  <outline>
    <contour>
      <point x="597" y="0" type="line"/>
      <point x="487" y="0" type="line"/>
      <point x="44" y="1413" type="line"/>
      <point x="157" y="1413" type="line"/>
      <point x="542" y="116" type="line"/>
      <point x="620" y="333"/>
      <point x="693" y="527" type="qcurve"/>
      <point x="776" y="753"/>
      <point x="863" y="996" type="qcurve" smooth="yes"/>
      <point x="987" y="1341"/>
      <point x="1234" y="1412" type="qcurve"/>
      <point x="1234" y="1299" type="line"/>
      <point x="1117" y="1237"/>
      <point x="998" y="1089"/>
      <point x="989" y="1058" type="qcurve"/>
    </contour>
  </outline>
</glyph>
<glyph name="afii10196" format="2">
  <advance width="957"/>
  <unicode hex="0475"/>
  <outline>
    <contour>
      <point x="466" y="0" type="qcurve"/>
      <point x="365" y="0" type="line"/>
      <point x="58" y="997" type="line"/>
      <point x="173" y="997" type="line"/>
      <point x="415" y="135" type="line"/>
      <point x="451" y="229"/>
      <point x="482" y="323" type="qcurve" smooth="yes"/>
      <point x="600" y="675"/>
      <point x="683" y="813" type="qcurve" smooth="yes"/>
      <point x="793" y="998"/>
      <point x="891" y="998" type="qcurve" smooth="yes"/>
      <point x="900" y="998" type="line"/>
      <point x="900" y="878" type="line"/>
      <point x="880" y="873"/>
      <point x="856" y="863" type="qcurve"/>
      <point x="779" y="825"/>
      <point x="699" y="610" type="qcurve"/>
      <point x="511" y="122"/>
    </contour>
  </outline>
</glyph>
<glyph name="Ukcyrillic" format="2">
  <advance width="2461"/>
  <unicode hex="0478"/>
  <outline>
    <contour>
      <point x="760" y="-20" type="qcurve" smooth="yes"/>
      <point x="463" y="-20"/>
      <point x="300" y="187" type="qcurve" smooth="yes"/>
      <point x="146" y="383"/>
      <point x="146" y="707" type="qcurve" smooth="yes"/>
      <point x="146" y="1018"/>
      <point x="290" y="1213" type="qcurve" smooth="yes"/>
      <point x="454" y="1436"/>
      <point x="762" y="1436" type="qcurve" smooth="yes"/>
      <point x="1067" y="1436"/>
      <point x="1231" y="1213" type="qcurve" smooth="yes"/>
      <point x="1375" y="1018"/>
      <point x="1375" y="707" type="qcurve" smooth="yes"/>
      <point x="1375" y="383"/>
      <point x="1221" y="187" type="qcurve" smooth="yes"/>
      <point x="1058" y="-20"/>
    </contour>
    <contour>
      <point x="757" y="1324" type="line" smooth="yes"/>
      <point x="511" y="1324"/>
      <point x="389" y="1151" type="qcurve"/>
      <point x="269" y="984"/>
      <point x="269" y="717" type="qcurve" smooth="yes"/>
      <point x="269" y="590"/>
      <point x="323" y="363"/>
      <point x="444" y="187"/>
      <point x="533" y="143" type="qcurve"/>
      <point x="628" y="91"/>
      <point x="760" y="91" type="qcurve" smooth="yes"/>
      <point x="893" y="91"/>
      <point x="988" y="143" type="qcurve"/>
      <point x="1077" y="187"/>
      <point x="1198" y="363"/>
      <point x="1252" y="590"/>
      <point x="1252" y="717" type="qcurve" smooth="yes"/>
      <point x="1252" y="984"/>
      <point x="1132" y="1151" type="qcurve"/>
      <point x="1010" y="1324"/>
      <point x="764" y="1324" type="qcurve" smooth="yes"/>
    </contour>
    <contour>
      <point x="1892" y="-432" type="line"/>
      <point x="1781" y="-432" type="line"/>
      <point x="1947" y="-6" type="line"/>
      <point x="1564" y="997" type="line"/>
      <point x="1686" y="997" type="line"/>
      <point x="1995" y="127" type="line"/>
      <point x="2293" y="997" type="line"/>
      <point x="2413" y="997" type="line"/>
    </contour>
  </outline>
</glyph>
<glyph name="afii10098" format="2">
  <advance width="757"/>
  <unicode hex="0491"/>
  <outline>
    <contour>
      <point x="285" y="0" type="line"/>
      <point x="180" y="0" type="line"/>
      <point x="180" y="997" type="line"/>
      <point x="610" y="997" type="line"/>
      <point x="610" y="1307" type="line"/>
      <point x="712" y="1307" type="line"/>
      <point x="712" y="911" type="line"/>
      <point x="285" y="911" type="line"/>
    </contour>
  </outline>
</glyph>
<glyph name="Endescendercyrillic" format="2">
  <advance width="1446"/>
  <unicode hex="04A2"/>
  <outline>
    <contour>
      <point x="1337" y="-239" type="line"/>
      <point x="1230" y="-239" type="line"/>
      <point x="1230" y="0" type="line"/>
      <point x="1105" y="0" type="line"/>
      <point x="1105" y="664" type="line"/>
      <point x="343" y="664" type="line"/>
      <point x="343" y="0" type="line"/>
      <point x="228" y="0" type="line"/>
      <point x="228" y="1413" type="line"/>
      <point x="343" y="1413" type="line"/>
      <point x="343" y="751" type="line"/>
      <point x="1105" y="751" type="line"/>
      <point x="1105" y="1413" type="line"/>
      <point x="1219" y="1413" type="line"/>
      <point x="1219" y="163" type="line"/>
      <point x="1337" y="163" type="line"/>
    </contour>
  </outline>
</glyph>
<glyph name="Ustraightcyrillic" format="2">
  <advance width="1314"/>
  <unicode hex="04AE"/>
  <outline>
    <contour>
      <point x="714" y="0" type="line"/>
      <point x="607" y="0" type="line"/>
      <point x="607" y="553" type="line"/>
      <point x="79" y="1413" type="line"/>
      <point x="209" y="1413" type="line"/>
      <point x="659" y="675" type="line"/>
      <point x="1112" y="1413" type="line"/>
      <point x="1240" y="1413" type="line"/>
      <point x="714" y="553" type="line"/>
    </contour>
  </outline>
</glyph>
<glyph name="ustraightcyrillic" format="2">
  <advance width="936"/>
  <unicode hex="04AF"/>
  <outline>
    <contour>
      <point x="525" y="0" type="line"/>
      <point x="415" y="0" type="line"/>
      <point x="415" y="448" type="line"/>
      <point x="79" y="997" type="line"/>
      <point x="212" y="997" type="line"/>
      <point x="469" y="575" type="line"/>
      <point x="726" y="997" type="line"/>
      <point x="858" y="997" type="line"/>
      <point x="525" y="448" type="line"/>
    </contour>
  </outline>
</glyph>
<glyph name="Hadescendercyrillic" format="2">
  <advance width="1230"/>
  <unicode hex="04B2"/>
  <outline>
    <contour>
      <point x="1131" y="-239" type="line"/>
      <point x="1025" y="-239" type="line"/>
      <point x="1025" y="0" type="line"/>
      <point x="1000" y="0" type="line"/>
      <point x="611" y="599" type="line"/>
      <point x="232" y="0" type="line"/>
      <point x="97" y="0" type="line"/>
      <point x="561" y="707" type="line"/>
      <point x="99" y="1413" type="line"/>
      <point x="234" y="1413" type="line"/>
      <point x="613" y="803" type="line"/>
      <point x="999" y="1413" type="line"/>
      <point x="1131" y="1413" type="line"/>
      <point x="672" y="707" type="line"/>
      <point x="1027" y="163" type="line"/>
      <point x="1131" y="163" type="line"/>
    </contour>
  </outline>
</glyph>
<glyph name="Chedescendercyrillic" format="2">
  <advance width="1322"/>
  <unicode hex="04B6"/>
  <outline>
    <contour>
      <point x="1204" y="-239" type="line"/>
      <point x="1097" y="-239" type="line"/>
      <point x="1097" y="0" type="line"/>
      <point x="979" y="0" type="line"/>
      <point x="979" y="568" type="line"/>
      <point x="857" y="414"/>
      <point x="620" y="414" type="qcurve" smooth="yes"/>
      <point x="463" y="414"/>
      <point x="253" y="562"/>
      <point x="147" y="839"/>
      <point x="147" y="1034" type="qcurve" smooth="yes"/>
      <point x="147" y="1413" type="line"/>
      <point x="262" y="1413" type="line"/>
      <point x="262" y="1013" type="line" smooth="yes"/>
      <point x="262" y="867"/>
      <point x="328" y="645"/>
      <point x="485" y="520"/>
      <point x="620" y="520" type="qcurve" smooth="yes"/>
      <point x="727" y="520"/>
      <point x="918" y="608"/>
      <point x="979" y="681" type="qcurve"/>
      <point x="979" y="1413" type="line"/>
      <point x="1093" y="1413" type="line"/>
      <point x="1093" y="163" type="line"/>
      <point x="1204" y="163" type="line"/>
    </contour>
  </outline>
</glyph>
<glyph name="chedescendercyrillic" format="2">
  <advance width="1065"/>
  <unicode hex="04B7"/>
  <outline>
    <contour>
      <point x="991" y="-239" type="line"/>
      <point x="884" y="-239" type="line"/>
      <point x="884" y="0" type="line"/>
      <point x="777" y="0" type="line"/>
      <point x="777" y="470" type="line"/>
      <point x="756" y="413"/>
      <point x="669" y="317"/>
      <point x="533" y="245"/>
      <point x="449" y="245" type="qcurve" smooth="yes"/>
      <point x="330" y="245"/>
      <point x="182" y="356"/>
      <point x="114" y="549"/>
      <point x="114" y="669" type="qcurve" smooth="yes"/>
      <point x="114" y="997" type="line"/>
      <point x="221" y="997" type="line"/>
      <point x="221" y="661" type="line" smooth="yes"/>
      <point x="221" y="572"/>
      <point x="263" y="419"/>
      <point x="364" y="325"/>
      <point x="453" y="325" type="qcurve" smooth="yes"/>
      <point x="539" y="325"/>
      <point x="687" y="426"/>
      <point x="777" y="589"/>
      <point x="777" y="685" type="qcurve" smooth="yes"/>
      <point x="777" y="997" type="line"/>
      <point x="883" y="997" type="line"/>
      <point x="883" y="163" type="line"/>
      <point x="991" y="163" type="line"/>
    </contour>
  </outline>
</glyph>
<glyph name="Shhacyrillic" format="2">
  <advance width="1321"/>
  <unicode hex="04BA"/>
  <outline>
    <contour>
      <point x="1174" y="0" type="line"/>
      <point x="1060" y="0" type="line"/>
      <point x="1060" y="400" type="line" smooth="yes"/>
      <point x="1060" y="545"/>
      <point x="992" y="766"/>
      <point x="835" y="892"/>
      <point x="701" y="892" type="qcurve" smooth="yes"/>
      <point x="595" y="892"/>
      <point x="400" y="805"/>
      <point x="343" y="732" type="qcurve"/>
      <point x="343" y="0" type="line"/>
      <point x="227" y="0" type="line"/>
      <point x="227" y="1413" type="line"/>
      <point x="343" y="1413" type="line"/>
      <point x="343" y="845" type="line"/>
      <point x="466" y="999"/>
      <point x="701" y="999" type="qcurve" smooth="yes"/>
      <point x="860" y="999"/>
      <point x="1069" y="847"/>
      <point x="1174" y="569"/>
      <point x="1174" y="380" type="qcurve" smooth="yes"/>
    </contour>
  </outline>
</glyph>
<glyph name="shhacyrillic" format="2">
  <advance width="1105"/>
  <unicode hex="04BB"/>
  <outline>
    <contour>
      <point x="950" y="0" type="line"/>
      <point x="845" y="0" type="line"/>
      <point x="845" y="602" type="line" smooth="yes"/>
      <point x="845" y="680"/>
      <point x="803" y="823"/>
      <point x="702" y="915"/>
      <point x="613" y="915" type="qcurve" smooth="yes"/>
      <point x="523" y="915"/>
      <point x="374" y="817"/>
      <point x="285" y="654"/>
      <point x="285" y="556" type="qcurve" smooth="yes"/>
      <point x="285" y="0" type="line"/>
      <point x="184" y="0" type="line"/>
      <point x="184" y="1413" type="line"/>
      <point x="285" y="1413" type="line"/>
      <point x="285" y="804" type="line"/>
      <point x="338" y="900"/>
      <point x="523" y="1014"/>
      <point x="630" y="1014" type="qcurve" smooth="yes"/>
      <point x="741" y="1014"/>
      <point x="883" y="910"/>
      <point x="950" y="733"/>
      <point x="950" y="624" type="qcurve" smooth="yes"/>
    </contour>
  </outline>
</glyph>
<glyph name="Schwacyrillic" format="2">
  <advance width="1530"/>
  <unicode hex="04D8"/>
  <outline>
    <contour>
      <point x="763" y="-20" type="qcurve" smooth="yes"/>
      <point x="463" y="-20"/>
      <point x="301" y="192" type="qcurve" smooth="yes"/>
      <point x="150" y="390"/>
      <point x="150" y="707" type="qcurve" smooth="yes"/>
      <point x="150" y="738"/>
      <point x="153" y="768" type="qcurve"/>
      <point x="1272" y="768" type="line"/>
      <point x="1257" y="1004"/>
      <point x="1137" y="1156" type="qcurve" smooth="yes"/>
      <point x="1003" y="1325"/>
      <point x="763" y="1325" type="qcurve" smooth="yes"/>
      <point x="489" y="1325"/>
      <point x="352" y="1107" type="qcurve"/>
      <point x="262" y="1164" type="line"/>
      <point x="308" y="1243"/>
      <point x="451" y="1365"/>
      <point x="643" y="1434"/>
      <point x="763" y="1434" type="qcurve" smooth="yes"/>
      <point x="966" y="1434"/>
      <point x="1239" y="1244"/>
      <point x="1379" y="915"/>
      <point x="1379" y="707" type="qcurve" smooth="yes"/>
      <point x="1379" y="398"/>
      <point x="1233" y="198" type="qcurve" smooth="yes"/>
      <point x="1073" y="-20"/>
    </contour>
    <contour>
      <point x="763" y="88" type="qcurve" smooth="yes"/>
      <point x="925" y="88"/>
      <point x="1151" y="241"/>
      <point x="1270" y="510"/>
      <point x="1274" y="671" type="qcurve"/>
      <point x="253" y="671" type="line"/>
      <point x="256" y="435"/>
      <point x="378" y="269" type="qcurve" smooth="yes"/>
      <point x="512" y="88"/>
    </contour>
  </outline>
</glyph>
<glyph name="afii10846" format="2">
  <advance width="1028"/>
  <unicode hex="04D9"/>
  <outline>
    <contour>
      <point x="509" y="-13" type="qcurve" smooth="yes"/>
      <point x="295" y="-13"/>
      <point x="195" y="137" type="qcurve" smooth="yes"/>
      <point x="104" y="273"/>
      <point x="104" y="522" type="qcurve" smooth="yes"/>
      <point x="104" y="526"/>
      <point x="105" y="528" type="qcurve" smooth="yes"/>
      <point x="106" y="530"/>
      <point x="106" y="533" type="qcurve"/>
      <point x="811" y="533" type="line"/>
      <point x="811" y="557" type="line" smooth="yes"/>
      <point x="811" y="702"/>
      <point x="736" y="803" type="qcurve" smooth="yes"/>
      <point x="647" y="922"/>
      <point x="495" y="922" type="qcurve" smooth="yes"/>
      <point x="392" y="922"/>
      <point x="256" y="873"/>
      <point x="198" y="814" type="qcurve"/>
      <point x="127" y="866" type="line"/>
      <point x="205" y="942"/>
      <point x="289" y="975" type="qcurve" smooth="yes"/>
      <point x="377" y="1009"/>
      <point x="493" y="1009" type="qcurve" smooth="yes"/>
      <point x="695" y="1009"/>
      <point x="811" y="863" type="qcurve" smooth="yes"/>
      <point x="920" y="725"/>
      <point x="920" y="504" type="qcurve" smooth="yes"/>
      <point x="920" y="401"/>
      <point x="866" y="213"/>
      <point x="762" y="71"/>
      <point x="609" y="-13"/>
    </contour>
    <contour>
      <point x="509" y="85" type="qcurve" smooth="yes"/>
      <point x="650" y="85"/>
      <point x="732" y="187" type="qcurve" smooth="yes"/>
      <point x="809" y="282"/>
      <point x="811" y="440" type="qcurve"/>
      <point x="201" y="440" type="line"/>
      <point x="201" y="416" type="line" smooth="yes"/>
      <point x="201" y="272"/>
      <point x="272" y="185" type="qcurve" smooth="yes"/>
      <point x="354" y="85"/>
    </contour>
  </outline>
</glyph>
<glyph name="Umacroncyrillic" format="2">
  <advance width="1117"/>
  <unicode hex="04EE"/>
  <outline>
    <contour>
      <point x="825" y="1617" type="line"/>
      <point x="296" y="1617" type="line"/>
      <point x="296" y="1730" type="line"/>
      <point x="825" y="1730" type="line"/>
    </contour>
    <contour>
      <point x="409" y="0" type="line"/>
      <point x="284" y="0" type="line"/>
      <point x="483" y="456" type="line"/>
      <point x="88" y="1413" type="line"/>
      <point x="216" y="1413" type="line"/>
      <point x="542" y="571" type="line"/>
      <point x="899" y="1413" type="line"/>
      <point x="1032" y="1413" type="line"/>
    </contour>
  </outline>
</glyph>
<glyph name="umacroncyrillic" format="2">
  <advance width="952"/>
  <unicode hex="04EF"/>
  <outline>
    <contour>
      <point x="742" y="1203" type="line"/>
      <point x="213" y="1203" type="line"/>
      <point x="213" y="1316" type="line"/>
      <point x="742" y="1316" type="line"/>
    </contour>
    <contour>
      <point x="378" y="-432" type="line"/>
      <point x="277" y="-432" type="line"/>
      <point x="436" y="-4" type="line"/>
      <point x="55" y="997" type="line"/>
      <point x="172" y="997" type="line"/>
      <point x="481" y="121" type="line"/>
      <point x="782" y="997" type="line"/>
      <point x="899" y="997" type="line"/>
    </contour>
  </outline>
</glyph>
<glyph name="emdash" format="2">
  <advance width="2057"/>
  <unicode hex="2014"/>
  <outline>
    <contour>
      <point x="2054" y="610" type="line"/>
      <point x="3" y="610" type="line"/>
      <point x="3" y="689" type="line"/>
      <point x="2054" y="689" type="line"/>
    </contour>
  </outline>
</glyph>
<glyph name="quoteleft" format="2">
  <advance width="556"/>
  <unicode hex="2018"/>
  <outline>
    <contour>
      <point x="393" y="959" type="line"/>
      <point x="332" y="959" type="line"/>
      <point x="126" y="1413" type="line"/>
      <point x="283" y="1413" type="line"/>
    </contour>
  </outline>
</glyph>
<glyph name="daggerdbl" format="2">
  <advance width="876"/>
  <unicode hex="2021"/>
  <outline>
    <contour>
      <point x="496" y="-206" type="line"/>
      <point x="380" y="-206" type="line"/>
      <point x="380" y="227" type="line"/>
      <point x="158" y="227" type="line"/>
      <point x="158" y="347" type="line"/>
      <point x="380" y="347" type="line"/>
      <point x="380" y="864" type="line"/>
      <point x="158" y="864" type="line"/>
      <point x="158" y="977" type="line"/>
      <point x="380" y="977" type="line"/>
      <point x="380" y="1413" type="line"/>
      <point x="496" y="1413" type="line"/>
      <point x="496" y="977" type="line"/>
      <point x="718" y="977" type="line"/>
      <point x="718" y="864" type="line"/>
      <point x="496" y="864" type="line"/>
      <point x="496" y="347" type="line"/>
      <point x="718" y="347" type="line"/>
      <point x="718" y="227" type="line"/>
      <point x="496" y="227" type="line"/>
    </contour>
  </outline>
</glyph>
<glyph name="bullet" format="2">
  <advance width="854"/>
  <unicode hex="2022"/>
  <outline>
    <contour>
      <point x="427" y="245" type="qcurve" smooth="yes"/>
      <point x="332" y="245"/>
      <point x="191" y="380"/>
      <point x="191" y="480" type="qcurve" smooth="yes"/>
      <point x="191" y="536"/>
      <point x="248" y="645"/>
      <point x="353" y="716"/>
      <point x="427" y="716" type="qcurve" smooth="yes"/>
      <point x="520" y="716"/>
      <point x="662" y="577"/>
      <point x="662" y="480" type="qcurve" smooth="yes"/>
      <point x="662" y="380"/>
      <point x="521" y="245"/>
    </contour>
  </outline>
</glyph>
<glyph name="ellipsis" format="2">
  <advance width="1501"/>
  <unicode hex="2026"/>
  <outline>
    <contour>
      <point x="422" y="0" type="line"/>
      <point x="249" y="0" type="line"/>
      <point x="249" y="160" type="line"/>
      <point x="422" y="160" type="line"/>
    </contour>
    <contour>
      <point x="838" y="0" type="line"/>
      <point x="664" y="0" type="line"/>
      <point x="664" y="160" type="line"/>
      <point x="838" y="160" type="line"/>
    </contour>
    <contour>
      <point x="1252" y="0" type="line"/>
      <point x="1080" y="0" type="line"/>
      <point x="1080" y="160" type="line"/>
      <point x="1252" y="160" type="line"/>
    </contour>
  </outline>
</glyph>
<glyph name="guilsinglleft" format="2">
  <advance width="603"/>
  <unicode hex="2039"/>
  <outline>
    <contour>
      <point x="426" y="203" type="line"/>
      <point x="87" y="511" type="line"/>
      <point x="426" y="818" type="line"/>
      <point x="426" y="684" type="line"/>
      <point x="225" y="511" type="line"/>
      <point x="426" y="336" type="line"/>
    </contour>
  </outline>
</glyph>
<glyph name="guilsinglright" format="2">
  <advance width="603"/>
  <unicode hex="203A"/>
  <outline>
    <contour>
      <point x="175" y="203" type="line"/>
      <point x="175" y="336" type="line"/>
      <point x="377" y="511" type="line"/>
      <point x="175" y="684" type="line"/>
      <point x="175" y="818" type="line"/>
      <point x="514" y="511" type="line"/>
    </contour>
  </outline>
</glyph>
<glyph name="fraction" format="2">
  <advance width="710"/>
  <unicode hex="2044"/>
  <outline>
    <contour>
      <point x="46" y="0" type="line"/>
      <point x="-77" y="0" type="line"/>
      <point x="666" y="1413" type="line"/>
      <point x="787" y="1413" type="line"/>
    </contour>
  </outline>
</glyph>
<glyph name="zerosuperior" format="2">
  <advance width="876"/>
  <unicode hex="2070"/>
  <outline>
    <contour>
      <point x="444" y="477" type="qcurve" smooth="yes"/>
      <point x="353" y="477"/>
      <point x="224" y="563"/>
      <point x="142" y="704"/>
      <point x="103" y="878"/>
      <point x="103" y="966" type="qcurve" smooth="yes"/>
      <point x="103" y="1057"/>
      <point x="146" y="1247"/>
      <point x="245" y="1399"/>
      <point x="328" y="1436" type="qcurve" smooth="yes"/>
      <point x="375" y="1456"/>
      <point x="435" y="1456" type="qcurve" smooth="yes"/>
      <point x="516" y="1456"/>
      <point x="641" y="1377"/>
      <point x="728" y="1240"/>
      <point x="774" y="1061"/>
      <point x="774" y="962" type="qcurve" smooth="yes"/>
      <point x="774" y="825"/>
      <point x="681" y="583"/>
      <point x="585" y="517" type="qcurve"/>
      <point x="523" y="477"/>
    </contour>
    <contour>
      <point x="440" y="547" type="qcurve" smooth="yes"/>
      <point x="566" y="547"/>
      <point x="632" y="686" type="qcurve" smooth="yes"/>
      <point x="688" y="805"/>
      <point x="688" y="967" type="qcurve" smooth="yes"/>
      <point x="688" y="1020"/>
      <point x="672" y="1135"/>
      <point x="636" y="1243"/>
      <point x="577" y="1331"/>
      <point x="492" y="1382"/>
      <point x="435" y="1382" type="qcurve" smooth="yes"/>
      <point x="306" y="1382"/>
      <point x="238" y="1245" type="qcurve" smooth="yes"/>
      <point x="180" y="1129"/>
      <point x="180" y="966" type="qcurve" smooth="yes"/>
      <point x="180" y="805"/>
      <point x="238" y="686" type="qcurve"/>
      <point x="304" y="547"/>
    </contour>
  </outline>
</glyph>
<glyph name="Euro" format="2">
  <advance width="1288"/>
  <unicode hex="20AC"/>
  <outline>
    <contour>
      <point x="776" y="-20" type="qcurve" smooth="yes"/>
      <point x="645" y="-20"/>
      <point x="444" y="103"/>
      <point x="316" y="328"/>
      <point x="291" y="484" type="qcurve"/>
      <point x="172" y="484" type="line"/>
      <point x="214" y="586" type="line"/>
      <point x="276" y="586" type="line"/>
      <point x="273" y="608"/>
      <point x="273" y="638" type="qcurve"/>
      <point x="274" y="772" type="line"/>
      <point x="274" y="805"/>
      <point x="280" y="840" type="qcurve"/>
      <point x="172" y="840" type="line"/>
      <point x="214" y="933" type="line"/>
      <point x="293" y="933" type="line"/>
      <point x="318" y="1075"/>
      <point x="438" y="1301"/>
      <point x="635" y="1436"/>
      <point x="774" y="1436" type="qcurve" smooth="yes"/>
      <point x="992" y="1436"/>
      <point x="1130" y="1252" type="qcurve"/>
      <point x="1102" y="1228" type="line" smooth="yes"/>
      <point x="1074" y="1205"/>
      <point x="1047" y="1181" type="qcurve"/>
      <point x="956" y="1333"/>
      <point x="770" y="1333" type="qcurve" smooth="yes"/>
      <point x="670" y="1333"/>
      <point x="521" y="1225"/>
      <point x="423" y="1048"/>
      <point x="400" y="933" type="qcurve"/>
      <point x="925" y="933" type="line"/>
      <point x="881" y="832" type="line"/>
      <point x="383" y="832" type="line"/>
      <point x="379" y="758"/>
      <point x="379" y="712" type="qcurve" smooth="yes"/>
      <point x="379" y="666"/>
      <point x="383" y="581" type="qcurve"/>
      <point x="925" y="581" type="line"/>
      <point x="915" y="557"/>
      <point x="903" y="530" type="qcurve" smooth="yes"/>
      <point x="891" y="502"/>
      <point x="881" y="476" type="qcurve"/>
      <point x="400" y="476" type="line"/>
      <point x="423" y="363"/>
      <point x="521" y="187"/>
      <point x="673" y="82"/>
      <point x="776" y="82" type="qcurve" smooth="yes"/>
      <point x="958" y="82"/>
      <point x="1043" y="235" type="qcurve"/>
      <point x="1117" y="148" type="line"/>
      <point x="1051" y="63"/>
      <point x="874" y="-20"/>
    </contour>
  </outline>
</glyph>
<glyph name="uni20B4" format="2">
  <advance width="1244"/>
  <unicode hex="20B4"/>
  <anchor x="632" y="0" name="b.uni0326"/>
  <anchor x="632" y="1413" name="t.ringcmb_1"/>
  <anchor x="1" y="0" name="b.ogonekcmb_2"/>
  <anchor x="1" y="0" name="m.horncmb_3"/>
  <outline>
    <contour>
      <point x="613" y="-16" type="qcurve" smooth="yes"/>
      <point x="494" y="-16"/>
      <point x="305" y="79"/>
      <point x="194" y="256"/>
      <point x="194" y="380" type="qcurve" smooth="yes"/>
      <point x="194" y="470"/>
      <point x="253" y="592"/>
      <point x="306" y="635" type="qcurve" smooth="yes"/>
      <point x="375" y="692"/>
      <point x="529" y="760" type="qcurve" smooth="yes"/>
      <point x="589" y="787"/>
      <point x="668" y="827" type="qcurve"/>
      <point x="254" y="827" type="line"/>
      <point x="254" y="902" type="line"/>
      <point x="785" y="902" type="line"/>
      <point x="877" y="982"/>
      <point x="877" y="1105" type="qcurve" smooth="yes"/>
      <point x="877" y="1175"/>
      <point x="806" y="1281"/>
      <point x="692" y="1339"/>
      <point x="626" y="1339" type="qcurve" smooth="yes"/>
      <point x="530" y="1339"/>
      <point x="371" y="1252"/>
      <point x="329" y="1172" type="qcurve"/>
      <point x="251" y="1228" type="line"/>
      <point x="374" y="1434"/>
      <point x="627" y="1434" type="qcurve" smooth="yes"/>
      <point x="724" y="1434"/>
      <point x="886" y="1346"/>
      <point x="983" y="1190"/>
      <point x="983" y="1090" type="qcurve" smooth="yes"/>
      <point x="983" y="1023"/>
      <point x="939" y="919"/>
      <point x="865" y="839"/>
      <point x="820" y="811" type="qcurve"/>
      <point x="757" y="774"/>
      <point x="647" y="722" type="qcurve" smooth="yes"/>
      <point x="562" y="682"/>
      <point x="484" y="641" type="qcurve"/>
      <point x="934" y="641" type="line"/>
      <point x="934" y="566" type="line"/>
      <point x="386" y="566" type="line"/>
      <point x="301" y="481"/>
      <point x="301" y="366" type="qcurve" smooth="yes"/>
      <point x="301" y="224"/>
      <point x="470" y="84"/>
      <point x="613" y="84" type="qcurve" smooth="yes"/>
      <point x="698" y="84"/>
      <point x="856" y="145"/>
      <point x="964" y="276"/>
      <point x="978" y="377" type="qcurve"/>
      <point x="1077" y="343" type="line"/>
      <point x="1059" y="224"/>
      <point x="923" y="64"/>
      <point x="724" y="-16"/>
    </contour>
  </outline>
</glyph>
<glyph name="afii61352" format="2">
  <advance width="2300"/>
  <unicode hex="2116"/>
  <anchor x="1766" y="307" name="b.uni0326"/>
  <anchor x="1766" y="1170" name="t.ringcmb_1"/>
  <anchor x="1863" y="307" name="b.ogonekcmb_2"/>
  <anchor x="2235" y="1170" name="m.horncmb_3"/>
  <outline>
    <contour>
      <point x="1182" y="0" type="line"/>
      <point x="992" y="0" type="line"/>
      <point x="346" y="1308" type="line"/>
      <point x="346" y="0" type="line"/>
      <point x="228" y="0" type="line"/>
      <point x="228" y="1413" type="line"/>
      <point x="413" y="1413" type="line"/>
      <point x="1066" y="107" type="line"/>
      <point x="1066" y="1413" type="line"/>
      <point x="1182" y="1413" type="line"/>
    </contour>
    <contour>
      <point x="1760" y="286" type="qcurve" smooth="yes"/>
      <point x="1644" y="286"/>
      <point x="1465" y="403"/>
      <point x="1363" y="605"/>
      <point x="1363" y="732" type="qcurve" smooth="yes"/>
      <point x="1363" y="852"/>
      <point x="1461" y="1057"/>
      <point x="1639" y="1180"/>
      <point x="1760" y="1180" type="qcurve" smooth="yes"/>
      <point x="1875" y="1180"/>
      <point x="2055" y="1059"/>
      <point x="2156" y="854"/>
      <point x="2156" y="732" type="qcurve" smooth="yes"/>
      <point x="2156" y="609"/>
      <point x="2055" y="407"/>
      <point x="1875" y="286"/>
    </contour>
    <contour>
      <point x="1760" y="367" type="qcurve" smooth="yes"/>
      <point x="1895" y="367"/>
      <point x="2048" y="561"/>
      <point x="2048" y="732" type="qcurve" smooth="yes"/>
      <point x="2048" y="884"/>
      <point x="1984" y="982" type="qcurve" smooth="yes"/>
      <point x="1910" y="1097"/>
      <point x="1760" y="1097" type="qcurve" smooth="yes"/>
      <point x="1665" y="1097"/>
      <point x="1538" y="1004"/>
      <point x="1474" y="839"/>
      <point x="1474" y="732" type="qcurve" smooth="yes"/>
      <point x="1474" y="483"/>
      <point x="1631" y="396" type="qcurve" smooth="yes"/>
      <point x="1685" y="367"/>
    </contour>
    <contour>
      <point x="2080" y="0" type="line"/>
      <point x="1436" y="0" type="line"/>
      <point x="1436" y="99" type="line"/>
      <point x="2080" y="99" type="line"/>
    </contour>
  </outline>
</glyph>
<glyph name="arrowleft" format="2">
  <advance width="2181"/>
  <unicode hex="2190"/>
  <outline>
    <contour>
      <point x="982" y="166" type="line"/>
      <point x="135" y="639" type="line"/>
      <point x="982" y="1108" type="line"/>
      <point x="1025" y="1030" type="line"/>
      <point x="356" y="668" type="line"/>
      <point x="2039" y="668" type="line"/>
      <point x="2039" y="602" type="line"/>
      <point x="372" y="602" type="line"/>
      <point x="1025" y="240" type="line"/>
    </contour>
  </outline>
</glyph>
<glyph name="infinity" format="2">
  <advance width="1914"/>
  <unicode hex="221E"/>
  <outline>
    <contour>
      <point x="1365" y="356" type="qcurve" smooth="yes"/>
      <point x="1129" y="356"/>
      <point x="957" y="604" type="qcurve"/>
      <point x="780" y="356"/>
      <point x="550" y="356" type="qcurve" smooth="yes"/>
      <point x="390" y="356"/>
      <point x="204" y="558"/>
      <point x="204" y="735" type="qcurve" smooth="yes"/>
      <point x="204" y="842"/>
      <point x="282" y="1014"/>
      <point x="435" y="1115"/>
      <point x="550" y="1115" type="qcurve" smooth="yes"/>
      <point x="662" y="1115"/>
      <point x="872" y="986"/>
      <point x="957" y="867" type="qcurve"/>
      <point x="1040" y="984"/>
      <point x="1249" y="1115"/>
      <point x="1365" y="1115" type="qcurve" smooth="yes"/>
      <point x="1527" y="1115"/>
      <point x="1710" y="904"/>
      <point x="1710" y="735" type="qcurve" smooth="yes"/>
      <point x="1710" y="560"/>
      <point x="1525" y="356"/>
    </contour>
    <contour>
      <point x="583" y="448" type="qcurve" smooth="yes"/>
      <point x="675" y="448"/>
      <point x="848" y="605"/>
      <point x="905" y="735" type="qcurve"/>
      <point x="875" y="803"/>
      <point x="779" y="934"/>
      <point x="654" y="1023"/>
      <point x="583" y="1023" type="qcurve" smooth="yes"/>
      <point x="461" y="1023"/>
      <point x="316" y="866"/>
      <point x="316" y="735" type="qcurve" smooth="yes"/>
      <point x="316" y="606"/>
      <point x="458" y="448"/>
    </contour>
    <contour>
      <point x="1334" y="448" type="qcurve" smooth="yes"/>
      <point x="1449" y="448"/>
      <point x="1598" y="598"/>
      <point x="1598" y="735" type="qcurve" smooth="yes"/>
      <point x="1598" y="868"/>
      <point x="1450" y="1023"/>
      <point x="1334" y="1023" type="qcurve" smooth="yes"/>
      <point x="1266" y="1023"/>
      <point x="1143" y="946"/>
      <point x="1043" y="818"/>
      <point x="1008" y="735" type="qcurve"/>
      <point x="1065" y="607"/>
      <point x="1240" y="448"/>
    </contour>
  </outline>
</glyph>
<glyph name="approxequal" format="2">
  <advance width="1177"/>
  <unicode hex="2248"/>
  <outline>
    <contour>
      <point x="744" y="736" type="qcurve" smooth="yes"/>
      <point x="690" y="736"/>
      <point x="644" y="767" type="qcurve" smooth="yes"/>
      <point x="615" y="787"/>
      <point x="569" y="841" type="qcurve"/>
      <point x="525" y="883" type="line"/>
      <point x="466" y="936"/>
      <point x="410" y="936" type="qcurve" smooth="yes"/>
      <point x="352" y="936"/>
      <point x="322" y="883" type="qcurve" smooth="yes"/>
      <point x="298" y="843"/>
      <point x="298" y="763" type="qcurve"/>
      <point x="233" y="763" type="line"/>
      <point x="233" y="865"/>
      <point x="276" y="931" type="qcurve" smooth="yes"/>
      <point x="322" y="1001"/>
      <point x="408" y="1001" type="qcurve" smooth="yes"/>
      <point x="474" y="1001"/>
      <point x="523" y="970" type="qcurve" smooth="yes"/>
      <point x="551" y="952"/>
      <point x="610" y="890" type="qcurve"/>
      <point x="653" y="840"/>
      <point x="680" y="824" type="qcurve" smooth="yes"/>
      <point x="713" y="803"/>
      <point x="751" y="803" type="qcurve" smooth="yes"/>
      <point x="873" y="803"/>
      <point x="873" y="997" type="qcurve"/>
      <point x="944" y="997" type="line"/>
      <point x="944" y="874"/>
      <point x="835" y="736"/>
    </contour>
    <contour>
      <point x="746" y="391" type="qcurve" smooth="yes"/>
      <point x="693" y="391"/>
      <point x="649" y="419" type="qcurve" smooth="yes"/>
      <point x="612" y="442"/>
      <point x="557" y="503" type="qcurve"/>
      <point x="517" y="544" type="line"/>
      <point x="471" y="594"/>
      <point x="410" y="594" type="qcurve" smooth="yes"/>
      <point x="351" y="594"/>
      <point x="321" y="539" type="qcurve" smooth="yes"/>
      <point x="298" y="497"/>
      <point x="298" y="418" type="qcurve"/>
      <point x="233" y="418" type="line"/>
      <point x="233" y="520"/>
      <point x="276" y="587" type="qcurve" smooth="yes"/>
      <point x="322" y="659"/>
      <point x="408" y="659" type="qcurve" smooth="yes"/>
      <point x="474" y="659"/>
      <point x="523" y="627" type="qcurve" smooth="yes"/>
      <point x="551" y="609"/>
      <point x="610" y="547" type="qcurve"/>
      <point x="653" y="498"/>
      <point x="680" y="481" type="qcurve" smooth="yes"/>
      <point x="713" y="460"/>
      <point x="751" y="460" type="qcurve" smooth="yes"/>
      <point x="873" y="460"/>
      <point x="873" y="652" type="qcurve"/>
      <point x="944" y="652" type="line"/>
      <point x="944" y="531"/>
      <point x="840" y="391"/>
    </contour>
  </outline>
</glyph>
<glyph name="notequal" format="2">
  <advance width="1190"/>
  <unicode hex="2260"/>
  <outline>
    <contour>
      <point x="292" y="0" type="line"/>
      <point x="163" y="0" type="line"/>
      <point x="394" y="439" type="line"/>
      <point x="220" y="439" type="line"/>
      <point x="220" y="555" type="line"/>
      <point x="453" y="555" type="line"/>
      <point x="578" y="786" type="line"/>
      <point x="220" y="786" type="line"/>
      <point x="220" y="903" type="line"/>
      <point x="642" y="903" type="line"/>
      <point x="909" y="1413" type="line"/>
      <point x="1035" y="1413" type="line"/>
      <point x="768" y="903" type="line"/>
      <point x="962" y="903" type="line"/>
      <point x="962" y="786" type="line"/>
      <point x="708" y="786" type="line"/>
      <point x="583" y="555" type="line"/>
      <point x="962" y="555" type="line"/>
      <point x="962" y="439" type="line"/>
      <point x="520" y="439" type="line"/>
    </contour>
  </outline>
</glyph>
<glyph name="greaterequal" format="2">
  <advance width="1328"/>
  <unicode hex="2265"/>
  <outline>
    <contour>
      <point x="246" y="108" type="line"/>
      <point x="194" y="195" type="line"/>
      <point x="927" y="589" type="line"/>
      <point x="194" y="978" type="line"/>
      <point x="247" y="1068" type="line"/>
      <point x="1105" y="589" type="line"/>
    </contour>
    <contour>
      <point x="1192" y="-85" type="line"/>
      <point x="169" y="-85" type="line"/>
      <point x="169" y="-6" type="line"/>
      <point x="1192" y="-6" type="line"/>
    </contour>
  </outline>
</glyph>
